<svg width="22" height="22" viewBox="0 0 22 22" fill="none" xmlns="http://www.w3.org/2000/svg">
<path d="M1.00068 6C1.00084 3.23857 3.23955 1.00013 6.00098 1.0003L15.9981 1.0009C18.7595 1.00107 20.998 3.23978 20.9978 6.0012L20.9972 15.9983C20.997 18.7597 18.7583 20.9982 15.9969 20.998L5.99977 20.9974C3.23834 20.9972 0.999907 18.7585 1.00007 15.9971L1.00068 6Z" fill="#C6B780"/>
<path fill-rule="evenodd" clip-rule="evenodd" d="M0.25063 6C0.250821 2.82436 2.82534 0.250155 6.00098 0.250346L15.9981 0.250949C19.1737 0.25114 21.7479 2.82566 21.7477 6.0013L21.7471 15.9984C21.7469 19.174 19.1724 21.7483 15.9968 21.7481L5.99968 21.7475C2.82404 21.7473 0.249836 19.1727 0.250028 15.9971L0.25063 6ZM6.00089 1.75035C3.65368 1.75021 1.75077 3.65288 1.75063 6.00009L1.75003 15.9972C1.74989 18.3444 3.65256 20.2473 5.99977 20.2475L15.9969 20.2481C18.3441 20.2482 20.247 18.3455 20.2471 15.9983L20.2477 6.0012C20.2479 3.65399 18.3452 1.75109 15.998 1.75095L6.00089 1.75035Z" fill="#C6B780"/>
<path fill-rule="evenodd" clip-rule="evenodd" d="M15.0201 7.54311C15.3515 7.79164 15.4187 8.26174 15.1701 8.59311L10.9612 14.2051C10.632 14.644 9.9794 14.6607 9.62817 14.2392L6.85256 10.9085C6.58739 10.5903 6.63038 10.1174 6.94859 9.85219C7.2668 9.58702 7.73972 9.63001 8.0049 9.94822L10.2543 12.6475L13.9701 7.69311C14.2187 7.36174 14.6888 7.29458 15.0201 7.54311Z" fill="#080808"/>
</svg>
