<svg width="22" height="22" viewBox="0 0 22 22" fill="none" xmlns="http://www.w3.org/2000/svg">
<path d="M1 7.71436C1 7.16207 1.44772 6.71436 2 6.71436H20C20.5523 6.71436 21 7.16207 21 7.71436V20.0001C21 20.5524 20.5523 21.0001 20 21.0001H2C1.44772 21.0001 1 20.5524 1 20.0001V7.71436Z" fill="#080808"/>
<path fill-rule="evenodd" clip-rule="evenodd" d="M0.25 7.71436C0.25 6.74786 1.0335 5.96436 2 5.96436H20C20.9665 5.96436 21.75 6.74786 21.75 7.71436V20.0001C21.75 20.9666 20.9665 21.7501 20 21.7501H2C1.0335 21.7501 0.25 20.9666 0.25 20.0001V7.71436ZM2 7.46436C1.86193 7.46436 1.75 7.57628 1.75 7.71436V20.0001C1.75 20.1381 1.86193 20.2501 2 20.2501H20C20.1381 20.2501 20.25 20.1381 20.25 20.0001V7.71436C20.25 7.57628 20.1381 7.46436 20 7.46436H2Z" fill="#C6B780"/>
<path d="M3.5806 1.55279C3.74999 1.214 4.09625 1 4.47503 1H17.5247C17.9034 1 18.2497 1.214 18.4191 1.55279L20.9275 6.56956C20.9607 6.63605 20.9124 6.71429 20.838 6.71429H1.16165C1.08731 6.71429 1.03896 6.63605 1.07221 6.56956L3.5806 1.55279Z" fill="#080808"/>
<path fill-rule="evenodd" clip-rule="evenodd" d="M2.90977 1.21738C3.20621 0.624504 3.81217 0.25 4.47502 0.25H17.5247C18.1875 0.25 18.7935 0.624504 19.0899 1.21738L21.5983 6.23415C21.8809 6.79932 21.4699 7.46429 20.838 7.46429H1.16164C0.529777 7.46429 0.118795 6.79933 0.401381 6.23415L2.90977 1.21738ZM4.47502 1.75C4.38032 1.75 4.29376 1.8035 4.25141 1.8882L2.21337 5.96429H19.7863L17.7483 1.8882C17.7059 1.8035 17.6194 1.75 17.5247 1.75H4.47502Z" fill="#C6B780"/>
<path d="M8.14307 7.71436C8.14307 7.16207 8.59078 6.71436 9.14307 6.71436H12.8574C13.4096 6.71436 13.8574 7.16207 13.8574 7.71436V11.4286C13.8574 11.9809 13.4096 12.4286 12.8574 12.4286H9.14307C8.59078 12.4286 8.14307 11.9809 8.14307 11.4286V7.71436Z" fill="#080808"/>
<path fill-rule="evenodd" clip-rule="evenodd" d="M7.39307 7.71436C7.39307 6.74786 8.17657 5.96436 9.14307 5.96436H12.8574C13.8238 5.96436 14.6074 6.74786 14.6074 7.71436V11.4286C14.6074 12.3951 13.8239 13.1786 12.8574 13.1786H9.14307C8.17657 13.1786 7.39307 12.3951 7.39307 11.4286V7.71436ZM9.14307 7.46436C9.005 7.46436 8.89307 7.57628 8.89307 7.71436V11.4286C8.89307 11.5667 9.005 11.6786 9.14307 11.6786H12.8574C12.9954 11.6786 13.1074 11.5667 13.1074 11.4286V7.71436C13.1074 7.57629 12.9954 7.46436 12.8574 7.46436H9.14307Z" fill="#C6B780"/>
</svg>
