<svg width="21" height="21" viewBox="0 0 21 21" fill="none" xmlns="http://www.w3.org/2000/svg">
<path d="M14.2858 5.28571C14.2858 7.65265 12.367 9.57143 10.0001 9.57143C7.63314 9.57143 5.71436 7.65265 5.71436 5.28571C5.71436 2.91878 7.63314 1 10.0001 1C12.367 1 14.2858 2.91878 14.2858 5.28571Z" fill="#C6B780"/>
<path fill-rule="evenodd" clip-rule="evenodd" d="M10.0001 1.75C8.04735 1.75 6.46436 3.33299 6.46436 5.28571C6.46436 7.23844 8.04735 8.82143 10.0001 8.82143C11.9528 8.82143 13.5358 7.23844 13.5358 5.28571C13.5358 3.33299 11.9528 1.75 10.0001 1.75ZM4.96436 5.28571C4.96436 2.50457 7.21892 0.25 10.0001 0.25C12.7812 0.25 15.0358 2.50457 15.0358 5.28571C15.0358 8.06686 12.7812 10.3214 10.0001 10.3214C7.21892 10.3214 4.96436 8.06686 4.96436 5.28571Z" fill="#C6B780"/>
<path d="M19.5719 20.1429H1.00049C1.00049 17.7619 2.85763 13 10.2862 13C17.7148 13 19.5719 17.7619 19.5719 20.1429Z" fill="#C6B780"/>
<path fill-rule="evenodd" clip-rule="evenodd" d="M2.31007 15.1661C3.86731 13.5023 6.39993 12.25 10.2862 12.25C14.1725 12.25 16.7051 13.5023 18.2623 15.1661C19.8 16.8088 20.3219 18.7847 20.3219 20.1429C20.3219 20.5571 19.9861 20.8929 19.5719 20.8929H1.00049C0.586275 20.8929 0.250488 20.5571 0.250488 20.1429C0.250488 18.7847 0.772444 16.8088 2.31007 15.1661ZM1.81427 19.3929H18.7581C18.6021 18.4301 18.1405 17.2309 17.1672 16.1911C15.9387 14.8786 13.8285 13.75 10.2862 13.75C6.74391 13.75 4.63367 14.8786 3.40519 16.1911C2.43191 17.2309 1.97034 18.4301 1.81427 19.3929Z" fill="#C6B780"/>
</svg>
