<svg width="16" height="22" viewBox="0 0 16 22" fill="none" xmlns="http://www.w3.org/2000/svg">
<path d="M1 2C1 1.44772 1.44772 1 2 1H14C14.5523 1 15 1.44772 15 2V19.9464C15 20.3679 14.5104 20.6003 14.1838 20.3337L11.8162 18.401C11.6322 18.2507 11.3678 18.2507 11.1838 18.401L8.31619 20.7419C8.13216 20.8921 7.86784 20.8921 7.68381 20.7419L4.81619 18.401C4.63216 18.2507 4.36784 18.2507 4.18381 18.401L1.81619 20.3337C1.48963 20.6003 1 20.3679 1 19.9464V2Z" fill="#C6B780"/>
<path fill-rule="evenodd" clip-rule="evenodd" d="M0.25 2C0.25 1.0335 1.0335 0.25 2 0.25H14C14.9665 0.25 15.75 1.0335 15.75 2V19.9464C15.75 21.0003 14.5259 21.5812 13.7095 20.9147L11.5 19.111L8.79047 21.3229C8.33041 21.6984 7.6696 21.6984 7.20953 21.3229L4.5 19.111L2.29047 20.9147C1.47407 21.5812 0.25 21.0003 0.25 19.9464V2ZM2 1.75C1.86193 1.75 1.75 1.86193 1.75 2V19.4196L3.70953 17.82C4.1696 17.4444 4.83041 17.4444 5.29047 17.82L8 20.0318L10.7095 17.82C11.1696 17.4444 11.8304 17.4444 12.2905 17.82L14.25 19.4196V2C14.25 1.86193 14.1381 1.75 14 1.75H2Z" fill="#C6B780"/>
<path fill-rule="evenodd" clip-rule="evenodd" d="M3.25 7C3.25 6.58579 3.58579 6.25 4 6.25H12C12.4142 6.25 12.75 6.58579 12.75 7C12.75 7.41421 12.4142 7.75 12 7.75H4C3.58579 7.75 3.25 7.41421 3.25 7Z" fill="#080808"/>
<path fill-rule="evenodd" clip-rule="evenodd" d="M3.25 10C3.25 9.58579 3.58579 9.25 4 9.25H12C12.4142 9.25 12.75 9.58579 12.75 10C12.75 10.4142 12.4142 10.75 12 10.75H4C3.58579 10.75 3.25 10.4142 3.25 10Z" fill="#080808"/>
<path fill-rule="evenodd" clip-rule="evenodd" d="M3.25 13C3.25 12.5858 3.58579 12.25 4 12.25H12C12.4142 12.25 12.75 12.5858 12.75 13C12.75 13.4142 12.4142 13.75 12 13.75H4C3.58579 13.75 3.25 13.4142 3.25 13Z" fill="#080808"/>
</svg>
