<svg width="1120" height="224" viewBox="0 0 1120 224" fill="none" xmlns="http://www.w3.org/2000/svg">
<line y1="-25" x2="410.55" y2="-25" transform="matrix(0.652812 -0.75752 0.652812 0.75752 0 307.001)" stroke="#FF4435" stroke-width="50"/>
<line y1="-25" x2="410.55" y2="-25" transform="matrix(0.652812 -0.75752 0.652812 0.75752 -112 307)" stroke="#FF4435" stroke-width="50"/>
<line y1="-25" x2="410.55" y2="-25" transform="matrix(0.652812 -0.75752 0.652812 0.75752 -224 307)" stroke="#FF4435" stroke-width="50"/>
<line y1="-25" x2="460.714" y2="-25" transform="matrix(0.652812 -0.75752 0.652812 0.75752 81.0068 343.001)" stroke="#FF4435" stroke-width="50"/>
<line y1="-25" x2="459.394" y2="-25" transform="matrix(0.652812 -0.75752 0.652812 0.75752 193.899 342.001)" stroke="#FF4435" stroke-width="50"/>
<line y1="-25" x2="459.394" y2="-25" transform="matrix(0.652812 -0.75752 0.652812 0.75752 306.792 341.001)" stroke="#FF4435" stroke-width="50"/>
<line y1="-25" x2="459.394" y2="-25" transform="matrix(0.652812 -0.75752 0.652812 0.75752 419.685 340.001)" stroke="#FF4435" stroke-width="50"/>
<line y1="-25" x2="459.394" y2="-25" transform="matrix(0.652812 -0.75752 0.652812 0.75752 532.577 339.001)" stroke="#FF4435" stroke-width="50"/>
<line y1="-25" x2="459.394" y2="-25" transform="matrix(0.652812 -0.75752 0.652812 0.75752 645.47 338.001)" stroke="#FF4435" stroke-width="50"/>
<line y1="-25" x2="459.394" y2="-25" transform="matrix(0.652812 -0.75752 0.652812 0.75752 758 338.001)" stroke="#FF4435" stroke-width="50"/>
<line y1="-25" x2="459.394" y2="-25" transform="matrix(0.652812 -0.75752 0.652812 0.75752 870.53 338.001)" stroke="#FF4435" stroke-width="50"/>
<line y1="-25" x2="459.394" y2="-25" transform="matrix(0.652812 -0.75752 0.652812 0.75752 983.061 338.001)" stroke="#FF4435" stroke-width="50"/>
</svg>
