<svg width="229" height="202" viewBox="0 0 229 202" fill="none" xmlns="http://www.w3.org/2000/svg">
<g opacity="0.4">
<path fill-rule="evenodd" clip-rule="evenodd" d="M97.547 84.5983V23.3077L74.2393 0H23.3077L0 23.3077V84.5983L23.3077 107.906H74.2393L97.547 84.5983ZM64.7439 65.8969V39.4194L57.3185 29.3504H41.0925L33.667 39.4194V65.8969L41.0925 75.9658H57.3185L64.7439 65.8969Z" fill="#121212"/>
<path fill-rule="evenodd" clip-rule="evenodd" d="M228.762 177.829V116.538L205.454 93.2305H154.523L131.215 116.538V177.829L154.523 201.136H205.454L228.762 177.829ZM195.959 159.127V132.65L188.533 122.581H172.307L164.882 132.65V159.127L172.307 169.196H188.533L195.959 159.127Z" fill="#121212"/>
<path d="M150.206 0H189.915L80.2825 202H37.9834L150.206 0Z" fill="#121212"/>
</g>
</svg>
