<svg width="136" height="48" viewBox="0 0 136 48" fill="none" xmlns="http://www.w3.org/2000/svg">
<path d="M51.5265 20.4683V23.596H47.7038L44.2285 20.1208V16.6455H47.7038L51.5265 20.4683Z" fill="black"/>
<path d="M118.596 31.2416V26.3762H123.809V25.3337L115.469 16.9931L122.767 9H126.59V13.1703L122.767 16.9931L129.022 22.901V31.2416H118.596Z" fill="black"/>
<path d="M105.393 35.19L108.52 32.0623C105.74 31.0198 102.956 30.7668 101.917 26.8495C100.875 22.9185 102.265 17.4663 107.825 16.4237C112.691 15.5115 115.007 19.7831 115.818 21.9841V32.0623L108.52 39.3603H105.393V35.19Z" fill="black"/>
<path d="M64.7041 35.5377L67.8318 32.41C65.0517 31.3674 62.2678 31.1145 61.2289 27.1971C60.1864 23.2662 61.5764 17.814 67.1368 16.7714C72.0021 15.8591 74.319 20.1308 75.1299 22.3318V32.41L67.8318 39.708H64.7041V35.5377Z" fill="black"/>
<ellipse cx="108.868" cy="23.9433" rx="2.7802" ry="2.7802" fill="white"/>
<ellipse cx="68.1796" cy="24.2909" rx="2.7802" ry="2.7802" fill="white"/>
<path d="M78.2842 26.0284V31.2413H81.4119L85.2347 27.4185C86.1614 28.8086 88.8489 31.5888 92.1852 31.5888C96.3554 31.5888 99.4832 28.1136 99.4832 24.2908C99.4832 20.8155 97.7455 15.9502 92.1852 15.9502C88.0149 15.9502 83.497 22.5532 79.6743 26.0284H78.2842Z" fill="black"/>
<ellipse cx="91.4902" cy="24.2909" rx="2.7802" ry="2.7802" fill="white"/>
<path d="M58.8238 31.5891V11.7802L56.0436 9L53.2634 11.7802V26.0287H47.703L44.9229 29.1564L47.703 31.5891H58.8238Z" fill="black"/>
<path d="M42.4885 32.6313V23.5956L40.0558 20.8154L37.2756 23.5956V27.4184H32.7578V32.6313H42.4885Z" fill="black"/>
<path d="M32.4131 37.1495L34.8458 34.7168L37.2784 37.1495L34.8458 39.5821L32.4131 37.1495Z" fill="black"/>
<path d="M22.6807 13.5176L25.1133 11.085L27.546 13.5176L25.1133 15.9503L22.6807 13.5176Z" fill="black"/>
<path d="M38.666 37.1495L41.0987 34.7168L43.5314 37.1495L41.0987 39.5821L38.666 37.1495Z" fill="black"/>
<path d="M11.2129 27.145H18.1634C16.4257 19.847 22.6812 17.7619 24.4188 17.4144C26.1564 17.0668 31.3693 17.7619 32.7594 23.6698C33.8715 28.3961 29.2841 31.4312 26.8515 32.3579H6V23.6698L8.7802 20.8896L11.2129 23.6698V27.145Z" fill="black"/>
<ellipse cx="25.4609" cy="25.0595" rx="2.7802" ry="2.7802" fill="white"/>
</svg>
