<svg width="16" height="16" viewBox="0 0 16 16" fill="none" xmlns="http://www.w3.org/2000/svg">
<path fill-rule="evenodd" clip-rule="evenodd" d="M15 8.08011C14.4776 8.60254 15 8.08011 14.4776 8.60254L1.93875 8.60254C1.65022 8.60254 1.41632 8.36864 1.41632 8.08011C1.41632 7.79158 1.65022 7.55768 1.93875 7.55768L14.4776 7.55768C15 8.08011 14.4776 7.55768 15 8.08011Z" fill="#121212"/>
<path fill-rule="evenodd" clip-rule="evenodd" d="M5.05983 12.6611C4.32404 12.5942 5.05983 12.6612 4.32404 12.5943L2.63583 10.5184C2.50128 10.3569 0.825026 8.08035 0.825026 8.08035C0.825026 8.08035 2.50128 5.80379 2.63583 5.64233L4.32404 3.56645C5.05983 3.49957 4.32404 3.56645 5.05983 3.49957C5.12672 4.23537 5.05982 3.49957 5.12671 4.23537L1.92243 8.08035L5.12671 11.9253C5.05983 12.6611 5.12671 11.9253 5.05983 12.6611Z" fill="#121212"/>
</svg>
