<svg width="32" height="32" viewBox="0 0 32 32" fill="none" xmlns="http://www.w3.org/2000/svg">
<rect width="32" height="32" rx="5" fill="#ADA071"/>
<path fill-rule="evenodd" clip-rule="evenodd" d="M12.875 21.8926C12.2734 21.8926 11.75 22.4002 11.75 23.0711C11.75 23.742 12.2734 24.2496 12.875 24.2496C13.4766 24.2496 14 23.742 14 23.0711C14 22.4002 13.4766 21.8926 12.875 21.8926ZM10.25 23.0711C10.25 21.6118 11.4055 20.3926 12.875 20.3926C14.3445 20.3926 15.5 21.6118 15.5 23.0711C15.5 24.5304 14.3445 25.7496 12.875 25.7496C11.4055 25.7496 10.25 24.5304 10.25 23.0711Z" fill="#080808"/>
<path fill-rule="evenodd" clip-rule="evenodd" d="M20.3755 21.8926C19.7739 21.8926 19.2505 22.4002 19.2505 23.0711C19.2505 23.742 19.7739 24.2496 20.3755 24.2496C20.977 24.2496 21.5005 23.742 21.5005 23.0711C21.5005 22.4002 20.977 21.8926 20.3755 21.8926ZM17.7505 23.0711C17.7505 21.6118 18.906 20.3926 20.3755 20.3926C21.845 20.3926 23.0005 21.6118 23.0005 23.0711C23.0005 24.5304 21.845 25.7496 20.3755 25.7496C18.906 25.7496 17.7505 24.5304 17.7505 23.0711Z" fill="#080808"/>
<path fill-rule="evenodd" clip-rule="evenodd" d="M5.875 7C5.875 6.58579 6.21079 6.25 6.625 6.25H8.77856C9.41521 6.25 9.95014 6.72849 10.0208 7.3612L11.0459 16.5355H22.7729C22.8813 16.5355 22.9773 16.4656 23.0107 16.3625L24.8625 10.6484C24.9149 10.4869 24.7945 10.3214 24.6247 10.3214H12.875C12.4608 10.3214 12.125 9.98558 12.125 9.57137C12.125 9.15715 12.4608 8.82137 12.875 8.82137H24.6247C25.813 8.82137 26.6558 9.98043 26.2895 11.1109L24.4376 16.825C24.2038 17.5467 23.5315 18.0355 22.7729 18.0355H10.5791L9.5483 18.6413C9.47808 18.6826 9.45059 18.7267 9.43722 18.7629C9.42143 18.8058 9.41737 18.8623 9.43374 18.9225C9.45012 18.9826 9.48226 19.0293 9.51758 19.0582C9.54748 19.0827 9.59352 19.1068 9.67497 19.1068H22.25C22.6642 19.1068 23 19.4426 23 19.8568C23 20.271 22.6642 20.6068 22.25 20.6068H9.67497C7.89172 20.6068 7.25086 18.2517 8.78824 17.3481L9.57563 16.8853L8.55494 7.75H6.625C6.21079 7.75 5.875 7.41421 5.875 7Z" fill="#080808"/>
</svg>
