<svg width="240" height="240" viewBox="0 0 240 240" fill="none" xmlns="http://www.w3.org/2000/svg">
<g opacity="0.5">
<path d="M151.219 206.631C151.219 206.631 151.219 206.631 151.219 206.626C151.219 206.611 151.209 206.602 151.205 206.587C151.205 206.602 151.214 206.616 151.219 206.635V206.631Z" fill="white"/>
<path d="M210.643 170.88C210.144 169.493 210.201 167.981 210.225 166.522C210.259 163.694 210.105 160.848 209.462 158.083C208.464 153.595 206.304 149.414 203.39 145.848C203.635 145.661 203.87 145.469 204.115 145.282C208.358 141.768 204.888 138.494 203.707 134.568C202.512 130.018 203.837 125.232 203.496 120.595C203.27 117.168 202.185 113.832 200.405 110.928C200.894 109.675 202.099 108.653 202.68 107.419C204.95 103.397 204.619 98.2751 202.32 94.3295C201.283 92.3279 198.773 91.2911 198.47 88.9055C198.259 87.6095 198.552 86.2463 198.225 84.9407C197.39 81.3599 193.128 81.2927 190.536 79.6319C189.249 78.6527 188.558 77.1263 187.579 75.8783C185.611 72.9551 181.872 71.4239 178.406 71.7695C178.262 71.7983 178.07 71.8223 177.878 71.8559C177.965 70.7039 178.032 69.5567 178.046 68.4047C178.08 63.7631 175.205 59.9039 172.949 56.0735C171.777 54.2591 171.249 52.0655 169.977 50.2991C169.041 49.0415 167.673 47.8079 165.998 47.9759C162.998 48.2159 160.195 49.4015 157.272 50.0207C154.32 50.5679 151.238 50.3423 148.262 49.8479C143.544 49.1375 138.749 48.5471 133.977 49.0175C131.294 49.4063 126.456 50.2223 122.995 52.0511C123.139 49.3967 122.961 46.7231 122.429 44.1215C121.205 37.7951 115.209 33.6191 109.853 30.7727C105.576 28.6127 100.286 28.6367 101.155 22.3535C101.165 22.1327 101.15 21.8831 100.982 21.7199C100.267 21.1295 99.3167 22.8287 98.7934 23.2559C96.619 25.5023 94.4975 27.8255 92.8223 30.4895C89.5823 35.7407 87.2734 41.8511 87.5279 48.0959C87.6239 48.5039 87.6767 50.5871 88.1182 51.0431C85.8142 49.9007 83.3999 48.9791 80.8607 48.3935C77.2511 47.5247 73.5167 47.6927 69.8399 47.4623C66.4751 47.2367 63.1054 46.9775 59.7743 46.4447C58.9342 46.3967 56.6447 44.9375 56.9855 46.7615C58.4015 49.9247 60.4607 52.8047 62.4911 55.6079C63.1247 56.6783 64.531 57.7007 64.3918 59.0255C62.9711 65.1023 62.4719 71.7887 65.4095 77.5343C66.2495 79.4687 67.1087 81.4367 68.5055 83.0495C68.6399 83.2079 68.7839 83.3567 68.9183 83.5103C67.0367 84.6623 65.3231 86.0735 63.8783 87.7535C60.3695 92.0399 58.8382 97.8479 59.7695 103.306C60.2159 107.227 61.3775 109.147 64.9535 110.866C66.2111 111.653 66.403 113.28 66.2159 114.638C65.9422 116.16 65.7071 117.734 66.2974 119.222C66.5278 119.837 66.8159 120.422 67.1327 120.998C66.6383 120.686 66.1391 120.37 65.6495 120.072C63.8255 118.968 62.0543 117.787 60.2878 116.597C59.4431 115.954 58.5935 115.315 57.7583 114.638C56.0063 113.213 54.5327 111.47 53.0543 109.762C51.9455 108.302 51.0719 106.661 50.3375 104.962C50.3423 104.942 50.3615 104.928 50.3615 104.909C50.4335 103.282 51.1487 101.755 51.5903 100.2C52.3535 97.7951 53.1791 95.4047 53.8511 92.9759C55.4495 88.0607 54.7199 83.0783 52.2239 78.6047C51.3791 77.1503 51.3935 75.4895 51.3167 73.8575C51.0623 72.3647 49.6559 75.7583 49.3343 76.1279C45.1151 83.2655 40.8575 88.7375 44.9039 97.2863C46.2047 99.8063 47.9567 102.053 49.4879 104.429C50.8175 107.76 52.7999 110.755 55.3486 113.285C53.3855 111.998 51.3503 110.827 49.0271 110.414C48.9935 110.414 48.9551 110.41 48.9167 110.405C48.2639 110.174 46.3535 110.04 46.0895 109.93C44.3855 109.56 42.6767 108.965 41.2607 107.909C39.8351 106.742 38.5439 105.326 36.7871 104.645C35.3519 104.059 33.7775 103.762 32.2271 103.934C30.4607 104.222 28.7279 104.64 26.9183 104.64C24.5711 104.717 21.9215 103.224 25.1663 106.344C28.4111 109.608 31.5215 113.966 36.4607 114.456C39.5615 114.826 42.2063 112.901 44.9951 111.883C46.2575 111.446 47.5919 111.302 48.9311 111.278C49.0991 111.312 49.267 111.322 49.4351 111.36C52.8766 112.282 55.7279 114.629 58.675 116.544C61.7086 118.526 64.6271 120.778 67.9342 122.28C67.9823 122.352 68.0255 122.429 68.0783 122.506C67.2239 122.414 66.2015 122.458 65.8559 122.506C64.1758 122.789 62.5343 123.259 60.8927 123.706C60.3503 123.456 59.7935 123.25 59.2703 122.918C53.8511 119.237 47.4143 118.618 41.4719 121.435C38.6063 122.539 36.3695 124.93 33.2735 125.472C32.9231 125.573 30.9887 125.77 32.0207 126.302C34.8287 127.421 37.8959 127.123 40.7759 127.992C43.8047 128.899 46.7999 130.368 50.0494 130.085C53.0879 129.898 56.0399 128.717 58.3727 126.763C59.4335 125.962 60.3983 125.078 61.5167 124.354C63.8879 123.754 66.2542 123.173 68.7071 123.389C69.3983 124.32 70.1326 125.218 70.8718 126.091C72.091 127.714 73.6126 128.928 75.2974 129.893C75.2782 129.902 75.2543 129.912 75.2351 129.917C72.5567 130.963 69.7486 132.25 67.459 134.054C64.6126 133.858 61.7374 134.045 58.8671 134.755C52.2911 136.454 47.4959 138.946 40.5983 136.325C39.8015 136.138 38.9951 135.518 38.1647 135.696C36.5567 136.469 41.7119 142.243 42.6094 143.074C43.4927 143.981 44.4287 144.84 45.3791 145.675C45.9263 146.136 46.3487 146.63 46.1039 147.379C45.6815 156.634 54.0527 163.195 61.7758 166.565C67.2334 168.926 73.3102 169.402 79.1662 168.528C79.5982 168.475 80.0303 168.413 80.4623 168.341C86.8559 167.309 93.0382 164.578 98.0254 160.531C98.3374 160.824 98.6398 161.122 98.9566 161.4C97.6991 162.562 96.4606 163.738 95.299 165C90.4846 169.762 87.4894 175.987 85.7326 182.462C83.4862 190.142 83.9614 198.523 86.6207 206.035C87.4943 208.478 88.7374 210.773 89.9998 213.034C90.9118 214.603 91.7855 216.288 92.0879 218.102C92.3471 219.912 91.6895 221.63 91.4878 223.435C91.4015 224.016 91.4158 224.952 92.1982 224.962C93.4894 224.582 94.579 223.574 95.827 223.042C98.7694 221.496 101.769 220.056 104.664 218.424C110.462 215.16 116.121 211.147 120.038 205.69C121.67 203.419 122.789 200.866 123.552 198.202C123.888 198.989 124.214 199.776 124.517 200.554C125.03 201.778 125.318 203.141 125.707 204.413C125.75 204.509 125.808 204.61 125.918 204.629C126.144 204.643 126.211 204.374 126.278 204.202C126.931 202.291 127.32 200.266 127.901 198.322C130.017 192.902 132.053 187.565 129.6 181.829C128.856 179.65 127.526 177.778 126.365 175.814C125.985 174.25 125.462 172.718 124.79 171.24C125.352 171.317 125.913 171.418 126.47 171.538C126.552 171.95 126.897 172.44 126.984 172.79C129.077 177.926 132.897 181.853 136.781 185.698C136.781 185.75 136.766 185.803 136.79 185.861C137.477 191.698 139.075 198.072 143.597 202.147C145.478 203.813 147.696 205.027 149.501 206.779C150.614 207.85 151.277 209.395 152.419 210.422C152.904 210.466 152.601 209.669 152.582 209.328C152.409 208.123 152.313 206.928 152.275 205.709C152.174 202.474 152.342 199.152 150.921 196.147C148.987 190.618 143.448 187.91 138.417 185.75C138.11 185.602 137.822 185.414 137.525 185.237C133.617 181.339 129.71 177.398 127.704 172.138C127.651 172.056 127.613 171.931 127.569 171.797C128.832 172.162 130.022 172.699 131.237 173.203C131.237 173.213 131.246 173.227 131.251 173.237C132.513 176.136 134.947 178.406 137.659 179.962C140.357 181.406 143.438 181.877 146.424 182.342C149.189 182.654 151.305 184.594 153.763 185.698C154.685 185.837 153.182 183.797 153.043 183.422C152.059 181.67 150.614 180.254 149.424 178.651C147.523 175.766 145.617 173.059 142.257 172.094C144.374 171.038 146.4 170.534 149.155 171.758C150.446 172.267 151.742 172.872 153.158 172.906C154.829 173.03 156.369 172.277 157.809 171.518C159.187 170.765 160.574 169.987 161.693 168.864C162.158 168.403 162.566 167.899 162.955 167.381C163.598 167.837 165.23 167.928 165.777 168.014C167.803 168.264 169.824 168.23 171.845 168.091C177.139 173.88 184.406 178.104 192.293 178.814C197.093 179.285 201.897 178.666 206.688 178.277C209.001 178.075 211.329 177.974 213.643 177.701C213.686 177.701 213.72 177.691 213.758 177.686C215.141 177.461 214.118 176.136 213.566 175.493C212.477 174.029 211.248 172.613 210.667 170.861L210.643 170.88ZM50.0494 104.314C49.8335 103.786 49.6223 103.258 49.4303 102.73C49.3487 102.523 49.2911 102.317 49.2143 102.11C49.2143 102.101 49.2335 102.11 49.2335 102.096C49.2959 101.866 49.3631 101.64 49.4494 101.405C49.8862 100.186 50.6926 99.0911 51.5758 98.1647C50.9326 100.214 50.3423 102.264 50.0494 104.318V104.314ZM47.6543 96.9215C47.6687 97.0799 47.7071 97.2239 47.7215 97.3823C47.7215 97.3823 47.7215 97.3727 47.7215 97.368C47.5199 97.2239 47.3327 97.0607 47.1503 96.8927C45.5471 95.4767 44.5967 93.5471 43.7999 91.5887C43.6847 89.9567 43.8959 88.2143 44.5007 86.3135C44.8271 88.7568 45.7487 91.3151 47.6111 93.0239C47.6207 93.0335 47.6303 93.0191 47.6399 93.0239C47.5631 94.3199 47.5391 95.6159 47.6495 96.9119L47.6543 96.9215ZM48.1439 97.5215C48.3167 97.3343 48.4127 97.0607 48.5855 96.8639C49.8623 95.1407 51.5711 93.8207 53.2703 92.5247C52.7999 94.3823 52.1855 96.2399 51.6047 98.0879C50.4719 99.0767 49.5455 100.325 49.1039 101.765C48.6287 100.354 48.3167 98.9375 48.1487 97.5215H48.1439ZM53.2751 92.5055C51.5759 93.5615 49.8431 94.8479 48.5711 96.4655C48.3983 96.6911 48.2543 96.936 48.1103 97.1807C47.9711 95.8512 47.9327 94.5215 47.9807 93.1871C47.9807 93.1871 47.9903 93.1871 47.9951 93.1871C48.3167 92.6495 48.7247 92.1455 49.1183 91.6463C50.4959 89.9663 52.267 88.5551 54.0287 87.3503C53.9999 89.0783 53.7071 90.7967 53.2751 92.5103V92.5055ZM54.0287 87.3263C51.8111 88.5551 49.8143 90.1967 48.3263 92.2559C48.2063 92.4095 48.1055 92.5775 47.9999 92.7359C48.0719 91.2911 48.2303 89.8463 48.4367 88.4015H48.4463C48.7295 88.0175 49.0655 87.6623 49.3822 87.3071C50.6303 85.8623 52.1039 84.5231 53.5439 83.3423C53.9087 84.6767 54.0527 86.0063 54.0287 87.3263ZM48.2399 87.8399C47.0927 86.4239 46.4687 84.6767 46.003 82.9247C46.4687 82.0895 46.9631 81.2687 47.4479 80.4431C47.5535 81.8399 48.0191 83.3039 48.8351 84.4703C48.8159 84.5855 48.7919 84.7055 48.7727 84.8207C48.5903 85.8191 48.4079 86.8271 48.2447 87.8399H48.2399ZM53.5391 83.3327C51.8303 84.4751 50.2559 85.8719 48.9167 87.4511C48.7679 87.6143 48.6335 87.7871 48.4943 87.9551C48.6671 86.7695 48.8687 85.5887 49.0799 84.4031C49.0991 84.3935 49.1278 84.4128 49.1423 84.3935C50.1023 82.9151 51.2351 81.4655 52.4158 80.1983C52.7278 80.9183 53.0399 81.6383 53.2655 82.3871C53.3759 82.7039 53.4575 83.0207 53.5439 83.3327H53.5391ZM52.4063 80.1887C51.2975 81.1631 50.3327 82.3007 49.4543 83.4863C49.3487 83.6255 49.2575 83.7743 49.1567 83.9231C49.3631 82.7375 49.5695 81.5519 49.7567 80.3663C49.7759 80.3567 49.7999 80.3663 49.8143 80.3471C50.2847 79.4543 50.9615 78.6671 51.475 77.7983C51.7343 78.6095 52.0607 79.4015 52.4063 80.1887ZM51.0383 73.7807C51.1823 74.7935 51.0095 75.8687 51.2111 76.8863C51.2783 77.1935 51.3791 77.4863 51.475 77.7791C50.9135 78.5039 50.3039 79.1999 49.8239 79.9871C50.0111 78.7823 50.1695 77.5775 50.2847 76.3775C50.0591 77.5631 49.8383 78.8063 49.6175 80.0543C49.2623 79.3295 49.0751 78.5327 48.9503 77.7311C49.6415 76.4111 50.2943 75.0719 51.0479 73.7855L51.0383 73.7807ZM48.9071 77.7935C48.9503 78.6575 49.1231 79.6031 49.555 80.3663C49.3343 81.6191 49.1135 82.8719 48.8927 84.1151C48.1535 83.0015 47.6975 81.7199 47.4671 80.4095C47.6975 80.0207 47.9279 79.632 48.1391 79.2335C48.4175 78.7631 48.6575 78.2735 48.9119 77.7935H48.9071ZM45.9791 82.9583C46.2959 84.7871 46.9151 86.7215 48.163 88.1615C48.1679 88.1711 48.1823 88.1615 48.1871 88.1615C47.9423 89.6783 47.7647 91.2047 47.6639 92.7311C47.6159 92.6927 47.5727 92.6543 47.5439 92.6159C45.8687 90.9071 45.0335 88.5648 44.5151 86.2607C44.5967 86.0159 44.6639 85.7711 44.7599 85.5167C45.0767 84.6191 45.5135 83.7791 45.9743 82.9535L45.9791 82.9583ZM43.8287 91.8479C44.5438 94.0368 45.6863 96.1919 47.5919 97.5791C47.6399 97.6127 47.7119 97.5887 47.7503 97.5407C47.9567 99.3599 48.3358 101.122 48.8831 102.806C46.3198 99.0767 44.1935 95.7359 43.8335 91.8431L43.8287 91.8479ZM45.5711 110.17C45.1007 110.15 44.6255 110.131 44.1551 110.117C44.0063 109.949 43.7903 109.747 43.5935 109.579C44.2079 109.8 44.8319 109.992 45.4607 110.15C45.4991 110.16 45.5327 110.16 45.5711 110.17ZM43.4351 109.526C43.6223 109.709 43.7999 109.906 43.9775 110.112C43.1999 110.088 42.4271 110.069 41.6543 110.03C41.4575 109.464 39.8111 107.707 38.6255 106.526C39.3023 107.016 39.9599 107.544 40.6079 108.062C41.4719 108.701 42.4367 109.157 43.4399 109.526H43.4351ZM32.5007 108.672C31.4255 109.306 30.1151 109.459 28.9055 109.478C28.1327 108.691 27.3839 107.88 26.6303 107.083C27.0239 107.17 27.4847 107.189 27.8831 107.194C28.1327 107.189 28.3871 107.15 28.6271 107.069C29.8895 107.674 31.1855 108.202 32.5007 108.672ZM30.6719 109.498C30.8543 109.584 32.4238 109.09 32.803 108.782C34.195 109.272 35.6111 109.685 37.0511 110.006C36.2543 110.611 35.3615 111.106 34.4111 111.437C33.5279 111.73 32.5679 111.864 31.6367 111.936C30.6815 111.226 29.7935 110.39 28.9295 109.512C29.5055 109.565 30.0911 109.55 30.6671 109.502L30.6719 109.498ZM32.8175 111.926C34.4879 111.821 36.0862 111.125 37.3822 110.078C37.3822 110.078 37.3822 110.074 37.3822 110.069C38.0686 110.213 38.7551 110.366 39.4511 110.467C40.1375 110.558 40.8239 110.606 41.5103 110.65C41.1263 111.144 40.6847 111.571 40.2047 111.989C39.1583 112.954 37.8383 113.635 36.4607 113.971C34.6607 113.76 33.1103 113.011 31.7086 111.979C32.0735 111.974 32.4623 111.936 32.8175 111.926ZM38.1215 106.162C39.2351 107.381 40.3919 108.658 41.3567 110.011C40.5983 109.968 39.8447 109.915 39.0911 109.819C38.5391 109.747 37.9919 109.651 37.4447 109.555C37.3967 109.45 37.3055 109.339 37.2719 109.248C36.2447 107.472 34.7614 105.965 33.283 104.554C33.9646 104.558 34.6463 104.635 35.3327 104.856C36.3599 105.11 37.2719 105.586 38.1311 106.162H38.1215ZM33.2543 104.554C34.5647 106.056 36.0863 107.688 37.1087 109.502C35.6495 109.234 34.2142 108.874 32.803 108.432C32.803 108.427 32.8127 108.422 32.8079 108.413C32.6159 108.072 32.4047 107.746 32.1743 107.429C31.4495 106.522 30.5615 105.547 29.6159 104.933C30.8351 104.779 32.0447 104.549 33.2591 104.554H33.2543ZM29.5823 104.933C30.7103 105.888 31.6847 107.05 32.4479 108.326C31.6367 108.062 30.8303 107.774 30.0383 107.453C29.6303 107.285 29.2271 107.093 28.8191 106.915C28.8191 106.915 28.8191 106.915 28.8191 106.91C28.8095 106.886 28.7807 106.896 28.7615 106.891C28.5359 106.469 27.7487 105.547 27.3215 105.072C27.7967 105.086 28.2671 105.077 28.7423 105.024C29.0207 105 29.3039 104.971 29.5823 104.938V104.933ZM24.0911 104.645C25.1375 104.866 26.1935 105.029 27.2543 105.062C27.6479 105.595 28.0559 106.186 28.4639 106.752C27.4703 106.301 26.4863 105.821 25.5551 105.259C26.3567 105.888 27.3743 106.435 28.3151 106.925C28.3391 106.934 28.3631 106.944 28.3871 106.958C27.8207 107.102 27.1967 107.088 26.6063 107.059C25.7855 106.2 24.9599 105.37 24.0959 104.65L24.0911 104.645ZM37.4111 114.038C37.1375 114.038 36.8783 114.01 36.6191 113.981C38.6879 113.587 40.5215 112.339 41.8031 110.683C41.8031 110.683 41.8031 110.678 41.8031 110.674C42.6334 110.722 43.4687 110.755 44.2991 110.794C43.8335 111.422 43.2527 111.965 42.6383 112.454C40.9583 113.198 39.2878 114.005 37.4158 114.034L37.4111 114.038ZM44.3519 111.754C43.9151 111.912 43.4831 112.09 43.0511 112.277C43.5791 111.874 44.0783 111.422 44.4622 110.909C44.4862 110.875 44.4622 110.837 44.4431 110.803C45.5615 110.856 46.6751 110.957 47.7839 111.106C46.6127 111.154 45.4463 111.346 44.3519 111.749V111.754ZM59.9375 123.946C59.1935 124.138 58.4447 124.315 57.6911 124.464C57.4175 123.941 56.2751 122.698 56.1551 122.602C55.7374 122.198 55.2575 121.814 54.7535 121.483C54.9263 121.55 55.1039 121.598 55.2767 121.675C56.8847 122.314 58.3391 123.293 59.9375 123.95V123.946ZM54.1775 124.862C53.1023 122.578 50.7598 121.258 48.4559 120.422C50.4046 120.355 52.3487 120.634 54.2063 121.277C55.4735 122.117 56.5438 123.254 57.4222 124.502C56.731 124.632 56.0398 124.757 55.3295 124.814C54.9454 124.858 54.5615 124.853 54.1775 124.862ZM48.2735 120.437C50.4863 121.387 52.7855 122.664 53.8991 124.877C52.2143 124.872 50.5103 124.603 48.8255 124.435C48.8255 124.416 48.8495 124.402 48.8351 124.382C47.5007 122.827 45.4559 121.608 43.4447 121.301C45.0095 120.816 46.6367 120.514 48.2687 120.442L48.2735 120.437ZM41.5775 121.968C42.1679 121.723 42.7727 121.507 43.3871 121.315C45.3215 121.786 47.1551 122.928 48.5039 124.402C48.4751 124.402 48.451 124.397 48.4223 124.392C47.1263 124.267 45.8207 124.176 44.5247 124.19C44.4719 124.09 44.2991 124.018 44.2175 123.941C42.9551 123.11 41.3951 122.789 39.8831 122.779C40.4303 122.477 40.9871 122.194 41.5775 121.973V121.968ZM39.7727 124.81C39.5759 124.733 39.3791 124.661 39.1727 124.618C38.4719 124.498 37.6127 124.454 36.9119 124.55C37.8959 123.998 38.8415 123.37 39.8255 122.818C41.3087 122.947 42.8831 123.322 44.1263 124.21C43.0799 124.238 42.0335 124.325 41.0015 124.55C40.5887 124.613 40.1807 124.709 39.7775 124.81H39.7727ZM39.9743 125.05C41.3615 124.738 42.7679 124.512 44.2079 124.502C43.9343 124.781 43.6367 125.021 43.3391 125.285C42.4751 126.125 41.3423 126.658 40.2575 127.109C39.2015 126.888 38.1311 126.806 37.0607 126.739C38.1455 126.437 39.2111 125.928 39.9791 125.083C39.9887 125.074 39.9743 125.059 39.9791 125.045L39.9743 125.05ZM35.4094 125.294C35.8798 125.102 36.3263 124.862 36.7727 124.618C37.6415 124.584 38.5439 124.646 39.3839 124.906C37.9967 125.29 36.6574 125.832 35.2894 126.197C36.7294 125.88 38.1695 125.472 39.6335 125.131C38.9039 125.875 37.9535 126.365 36.9887 126.739C35.3758 126.643 33.7583 126.557 32.2127 126C33.2735 125.741 34.3823 125.688 35.4143 125.294H35.4094ZM40.3007 127.118C41.8991 126.643 43.3391 125.755 44.5103 124.565C44.5247 124.546 44.5055 124.526 44.5103 124.507C44.7263 124.507 44.9423 124.507 45.1583 124.517C46.3055 124.522 47.4431 124.642 48.5807 124.786C48.4079 124.997 48.2399 125.208 48.0527 125.414C46.8767 126.73 45.2543 127.45 43.6655 128.146C42.6671 127.776 41.6735 127.397 40.6367 127.186C40.5263 127.157 40.4111 127.142 40.3007 127.118ZM43.6894 128.15C45.6383 127.541 47.6255 126.542 48.8687 124.819C50.5438 125.04 52.2191 125.261 53.9039 125.342C53.5199 125.846 53.0447 126.278 52.5839 126.715C51.2927 127.882 49.6895 128.65 48.0671 129.259C47.3039 129.187 46.5407 129.062 45.7919 128.851C45.0815 128.664 44.3855 128.41 43.6847 128.15H43.6894ZM51.5807 129.086C50.4575 129.326 49.3103 129.37 48.1727 129.274C50.0975 128.717 52.0511 127.781 53.4286 126.278C53.6735 126.019 53.9135 125.755 54.1294 125.467C54.1535 125.434 54.1294 125.395 54.1151 125.357C54.5903 125.376 55.0655 125.419 55.5455 125.4C56.2271 125.39 56.8991 125.318 57.5662 125.218C57.1727 126.134 56.5055 126.883 55.7663 127.546C54.4607 128.27 53.0399 128.784 51.5807 129.086ZM56.3327 127.224C56.9663 126.638 57.4895 125.952 57.8303 125.17C58.5119 125.059 59.1935 124.925 59.8703 124.766C58.6559 125.534 57.5423 126.456 56.3327 127.229V127.224ZM137.433 186.389C138.317 187.262 139.195 188.141 140.054 189.029C139.997 189.274 139.944 189.523 139.896 189.773C139.579 191.664 139.55 193.613 139.785 195.518C138.561 192.629 137.875 189.456 137.438 186.389H137.433ZM151.478 200.482C151.497 200.765 151.502 201.053 151.517 201.341C150.729 200.458 149.721 199.67 148.718 199.032C148.603 198.994 148.44 198.864 148.286 198.797C147.547 197.405 146.721 196.056 145.819 194.76C145.958 194.794 146.102 194.822 146.184 194.875C147.84 195.485 149.366 196.392 150.763 197.472C151.061 198.394 151.31 199.382 151.478 200.482ZM148.541 199.258C149.621 199.848 150.624 200.597 151.521 201.427C151.565 202.382 151.608 203.338 151.651 204.298C151.233 203.746 150.71 203.208 150.105 202.858C149.654 201.629 149.141 200.424 148.541 199.258ZM145.541 195.25C146.443 196.478 147.264 197.765 148.017 199.09C147.984 199.195 147.969 199.325 147.926 199.406C147.355 201.192 147.456 203.136 147.902 204.946C147.043 204.269 146.179 203.606 145.329 202.896C144.902 200.534 145.109 198 145.473 195.61C145.493 195.49 145.517 195.37 145.541 195.254V195.25ZM145.646 194.424C145.646 194.424 145.622 194.448 145.603 194.458C144.787 193.306 143.933 192.182 143.03 191.112C143.265 191.174 143.505 191.232 143.741 191.294C145.593 191.813 147.336 192.691 148.925 193.776C149.654 194.837 150.278 196.018 150.734 197.4C149.285 196.109 147.561 194.885 145.646 194.429V194.424ZM140.827 189.826C141.403 190.387 141.965 190.968 142.512 191.558C142.435 191.827 142.401 192.101 142.368 192.374C141.931 195.038 142.094 197.765 142.728 200.381C141.566 198.998 140.635 197.443 139.905 195.773C139.79 194.045 139.814 192.254 140.102 190.536C140.16 190.123 140.246 189.71 140.328 189.302C140.496 189.475 140.669 189.648 140.832 189.821L140.827 189.826ZM143.621 190.973C143.328 190.891 143.03 190.829 142.733 190.771C142.253 190.21 141.768 189.658 141.273 189.12C141.139 188.976 140.995 188.837 140.861 188.688C142.785 189.216 144.672 189.95 146.395 190.968C147.293 191.746 148.099 192.61 148.795 193.579C147.269 192.398 145.473 191.496 143.616 190.968L143.621 190.973ZM142.781 200.453C142.497 198.499 142.2 196.45 142.401 194.448C142.464 193.555 142.555 192.677 142.718 191.794C143.645 192.816 144.513 193.882 145.339 194.986C145.296 195.182 145.262 195.384 145.224 195.581C144.854 197.976 144.662 200.525 145.31 202.882C145.233 202.819 145.157 202.762 145.085 202.699C144.211 202.032 143.472 201.259 142.781 200.448V200.453ZM148.901 205.738C148.584 205.469 148.253 205.219 147.931 204.965C147.672 203.347 147.624 201.59 148.022 199.958C148.075 199.771 148.137 199.579 148.195 199.392C148.853 200.578 149.433 201.806 149.952 203.059C149.707 203.405 149.937 206.107 150.11 207.024C149.741 206.563 149.352 206.122 148.901 205.733V205.738ZM152.328 210.058C151.579 209.107 150.931 208.07 150.182 207.12C150.048 205.944 150.038 204.691 150.12 203.472C150.528 204.494 150.907 205.531 151.214 206.597C150.965 205.421 150.609 204.274 150.206 203.146C150.739 203.482 151.214 203.904 151.651 204.36C151.737 206.27 151.881 208.181 152.323 210.062L152.328 210.058ZM138.273 185.957C141.086 187.397 143.597 188.736 145.694 190.382C144.576 189.706 143.371 189.13 142.161 188.688C141.624 188.506 141.072 188.405 140.515 188.318C139.718 187.483 138.907 186.653 138.081 185.832C138.149 185.87 138.211 185.923 138.278 185.957H138.273ZM209.294 162.586C208.19 161.419 206.347 160.766 204.801 160.81C206.405 160.973 207.859 161.923 209.294 162.619C209.299 162.754 209.323 162.883 209.328 163.018C209.357 167.424 209.102 169.594 210.158 172.003C208.046 169.176 206.016 166.253 203.937 163.373C205.694 163.675 207.293 164.678 208.901 165.413C207.768 163.896 205.723 163.152 203.88 163.291C202.603 161.53 201.297 159.797 199.939 158.112C202.925 158.05 206.049 158.443 208.925 159.413C209.112 160.454 209.246 161.51 209.299 162.586H209.294ZM208.896 159.269C206.227 157.776 202.92 157.747 199.925 158.098C198.715 156.605 197.472 155.15 196.142 153.782C196.041 153.677 195.931 153.576 195.83 153.47C197.784 152.453 200.064 152.27 202.157 151.608C199.953 151.416 197.64 152.237 195.811 153.451C195.681 153.322 195.557 153.192 195.427 153.062C197.625 150.547 200.169 148.387 202.805 146.333C205.79 150.158 208.013 154.522 208.905 159.274L208.896 159.269ZM177.825 72.8255C181.694 71.9567 185.769 74.1023 187.665 77.5295C188.433 78.9455 189.269 79.8095 190.128 80.4047C187.877 81.2591 185.678 82.6031 184.286 84.6383C186.139 83.1935 188.006 81.5135 190.171 80.4335C192.465 81.9935 194.952 81.6047 196.949 84.1439C197.837 85.5935 197.333 87.3599 197.597 88.9535C197.611 89.1167 197.669 89.2559 197.702 89.4143C197.51 89.4479 197.261 89.5103 197.093 89.5391C192.125 90.8351 187.085 93.4415 184.497 98.0591C187.819 94.1231 192.293 91.1231 197.246 89.5727C197.4 89.5295 197.558 89.4959 197.717 89.4575C198.317 92.1119 201.269 93.3311 202.181 95.9087C203.803 99.3887 203.846 103.454 202.113 106.925C201.561 108.211 200.678 109.474 200.352 110.846C198.609 108.043 196.219 105.653 193.301 104.011C189.83 102.01 185.971 100.234 181.877 100.406C180.422 100.31 178.709 100.666 177.638 101.664C178.392 96.8591 177.081 91.7327 176.76 86.8847C176.678 82.1951 177.422 77.5199 177.821 72.8351C177.821 72.8351 177.825 72.8351 177.83 72.8351L177.825 72.8255ZM152.102 51.1919C154.809 51.3455 157.526 51.0719 160.104 50.2079C162.019 49.6751 163.925 49.0367 165.917 48.9023C167.025 48.7439 168.057 49.4255 168.758 50.2367C169.171 50.6687 169.488 51.1679 169.771 51.6911C169.747 53.8031 168.749 55.9007 168.048 57.8687C166.032 63.2639 162.374 67.7711 159.797 72.8736C163.584 68.3183 170.049 58.0799 169.8 51.7391C170.193 52.4687 170.52 53.2415 170.856 53.9951C171.653 55.7663 172.689 57.4127 173.707 59.0687C177.965 65.4479 177.379 68.7983 176.616 76.0559C176.165 80.6495 175.469 85.2911 176.117 89.8943C177.12 96.5951 178.176 102.672 173.664 108.466C173.549 108.658 173.275 108.869 173.078 109.099C173.001 109.056 172.925 109.013 172.848 108.97C169.584 107.27 165.95 106.642 162.331 106.248C160.641 105.931 158.933 106.032 157.229 105.936C157.67 105.427 158.097 104.904 158.491 104.352C159.053 103.608 159.614 102.869 160.027 102.029C160.67 100.786 160.805 99.3119 161.649 98.1695C162.369 97.1567 163.411 96.4031 164.213 95.4383C165.163 94.3439 165.744 92.6351 164.87 91.3343C164.309 90.5759 163.694 89.9711 163.205 89.1215C162.081 87.2879 161.741 84.9311 160.272 83.2799C159.067 81.8639 156.993 81.6095 155.256 81.9599C154.329 82.1471 153.451 82.5023 152.568 82.8431C152.76 82.0367 152.808 81.0095 152.841 80.6543C153.125 77.0735 151.545 73.5119 147.825 72.5951C144.821 72.0095 141.787 72.9695 138.917 73.7999C137.237 74.2511 135.494 75.0959 133.728 74.5775C130.637 72.9983 128.803 75.9887 128.966 78.8015C129.029 80.9231 129.134 83.0495 129.221 85.1711C127.982 79.1615 125.467 73.4783 122.443 68.1551C122.366 68.0351 122.289 67.9055 122.213 67.7808C122.582 66.1488 122.381 64.3871 121.785 62.8319C121.142 61.0847 120.009 59.5247 119.875 57.6143C119.721 53.3423 125.448 51.9119 128.745 50.9567C136.377 48.4991 144.36 50.3615 152.093 51.1967L152.102 51.1919ZM167.995 127.243C167.995 127.277 167.995 127.306 167.995 127.339C167.246 127.622 166.517 127.934 165.806 128.29C166.267 127.272 165.653 125.88 165.005 125.021C162.945 122.39 159.153 122.894 156.187 122.366C157.041 122.592 158.025 122.765 158.923 122.957C161.064 123.331 163.449 123.658 164.808 125.573C165.345 126.312 166.08 127.363 165.777 128.299C165.081 128.654 164.405 129.043 163.8 129.557C162.95 130.272 162.485 131.28 161.793 132.125C161.097 132.638 160.229 133.042 159.35 133.099C157.315 133.003 155.573 131.616 153.696 130.925C149.947 129.36 145.987 128.376 142.094 127.248C135.216 125.4 129.441 121.19 124.046 116.688C120.499 113.957 116.213 112.478 111.907 111.432C116.841 110.837 121.766 112.373 126.475 113.736C131.611 115.118 136.685 116.717 141.753 118.31C145.944 119.736 150.374 120.427 154.79 119.866C157.661 119.582 160.344 118.31 163.219 118.094C166.123 118.051 168.95 119.501 171.878 118.877C172.277 118.786 172.766 118.67 173.064 118.474C171.753 118.987 170.256 118.867 168.883 118.632C166.901 118.253 164.966 117.557 162.931 117.48C161.861 117.49 160.814 117.667 159.773 117.898C158.529 116.318 156.691 115.43 154.862 114.61C155.045 114.389 155.203 114.13 155.333 113.966C156.307 112.57 156.749 110.87 156.912 109.19C156.993 108.398 156.969 107.568 157.056 106.762C158.309 106.973 160.464 106.843 160.987 106.987C164.635 107.4 168.321 107.779 171.681 109.387C173.246 110.126 174.897 111.014 175.814 112.555C177.777 115.637 177.585 119.909 175.411 122.87C174.038 124.747 171.917 125.808 169.795 126.653C169.2 126.883 168.595 127.109 167.995 127.334C168.091 125.669 167.237 123.85 165.797 123.014C166.91 124.181 167.654 125.664 167.99 127.243H167.995ZM103.901 134.064C102.912 133.181 102.024 132.158 101.021 131.29C94.2959 123.331 89.5342 113.558 87.2446 103.402C86.3326 99.4847 86.0494 95.4239 86.4958 91.4111C86.7454 89.0687 87.9118 86.8079 88.1134 84.4223C88.1663 78.2831 86.2078 74.9711 91.8142 70.3007C94.675 67.8239 98.0446 65.9807 101.232 63.9551C102.283 63.3311 103.253 62.4527 104.232 61.5791C106.152 63.2063 107.515 65.5535 108.787 67.7567C110.712 70.9823 112.171 74.4671 113.678 77.9039C112.934 74.6495 111.653 71.4431 109.877 68.5727C108.35 65.9903 106.699 63.3599 104.237 61.5743C106.286 59.7407 108.36 57.9119 111.259 58.4111C114.134 58.7087 116.285 60.7103 117.945 62.9423C120.053 65.6495 121.8 68.6687 123.36 71.7311C125.054 74.9711 126.494 78.3695 127.526 81.9023C128.016 83.5871 128.227 85.4351 128.779 87.1152C130.195 90.2975 130.997 93.1775 130.061 96.5999C127.901 95.1263 125.683 93.7343 123.566 92.1983C120.648 90.1967 118.089 87.7055 115.104 85.8047C114.149 85.2335 112.776 84.7055 111.806 85.5119C110.289 87.1727 113.558 91.2479 114.739 92.6351C115.267 93.2351 115.848 93.7775 116.467 94.2767C112.689 97.9967 109.881 104.102 110.112 109.608C109.958 109.253 109.824 108.893 109.67 108.542C107.213 103.277 105.821 97.1279 107.678 91.4399C108.048 90.2303 108.566 88.9775 109.161 87.9023C108.72 88.5455 108.331 89.2271 108.024 89.9471C103.665 100.387 108.403 107.174 112.142 116.611C115.152 124.042 118.181 131.741 118.665 139.814C118.349 139.704 118.037 139.598 117.71 139.512C115.166 138.835 112.478 139.32 110.049 138.144C107.817 137.155 105.705 135.725 103.905 134.069L103.901 134.064ZM137.496 75.1343C137.496 75.1343 137.51 75.1679 137.52 75.1823C138.638 77.1599 138.984 79.3583 138.989 81.6191C139.017 82.6127 138.893 83.6015 138.552 84.5375C139.613 82.9631 139.838 80.8367 139.425 78.9839C139.099 77.5631 138.24 76.3727 137.525 75.1247C140.726 74.1743 143.995 72.8975 147.389 73.4015C151.397 74.1887 152.448 78.3119 151.805 81.8879C151.733 82.2959 151.603 82.8047 151.464 83.2367C150.965 83.4047 150.461 83.5487 149.937 83.6351C147.504 83.9087 145.257 83.4335 143.328 84.4415C143.76 83.7551 144.173 83.0543 144.72 82.4111C145.853 81.0431 147.288 79.8815 148.915 79.1567C143.04 81.1727 143.76 83.9999 139.608 87.1295C137.136 88.9727 133.896 90.3023 132.989 93.5375C132.773 94.0463 132.177 96.6959 132.24 98.1743C131.765 97.8143 131.289 97.4495 130.8 97.1087C131.462 95.4527 131.501 93.3839 131.251 91.6319C130.968 89.7311 130.008 88.0463 129.456 86.2271C129.662 84.9119 129.917 83.6015 129.941 82.2719C130.104 79.9343 129.009 76.5455 131.472 75.1151C132.264 74.8127 133.017 75.3503 133.776 75.5135C134.937 75.792 136.128 75.5135 137.261 75.2159C137.337 75.1919 137.414 75.1679 137.491 75.1487L137.496 75.1343ZM111.696 110.501C111.264 110.558 110.875 110.645 110.587 110.765C110.549 110.678 110.515 110.592 110.481 110.506C110.808 104.87 113.021 99.1007 116.976 94.9871C117.062 94.9295 117.11 94.8431 117.163 94.7663C118.776 95.9375 120.585 96.8543 122.457 97.5311C124.569 98.3759 126.893 98.6735 128.87 99.8495C129.777 100.402 130.584 101.155 131.083 102.101C131.414 102.763 131.774 103.43 132.312 103.963C133.329 105.13 134.889 105.49 136.171 106.272C138.816 107.75 139.665 110.842 141.345 113.174C143.337 116.386 146.741 118.454 150.408 119.174C146.275 118.987 142.272 117.59 138.331 116.347C134.568 115.128 130.771 114.019 126.96 112.968C122.957 111.744 118.896 110.626 114.696 110.381C114.36 110.362 112.891 110.333 111.71 110.491C112.593 106.79 113.745 103.046 115.934 99.9023C113.371 102.749 112.272 106.752 111.701 110.491L111.696 110.501ZM153.168 119.146C149.678 118.752 146.001 117.106 143.654 114.773C141.168 112.339 140.381 108.566 137.707 106.282C136.598 105.331 135.245 104.837 133.963 104.179C132.797 103.541 132.216 102.307 131.592 101.194C131.001 100.315 130.19 99.5903 129.278 99.0623C127.425 97.9391 125.299 97.6463 123.283 96.8975C119.75 95.7263 116.376 93.7535 114.23 90.6287C113.592 89.7263 110.63 85.2959 113.611 86.0783C115.301 86.7023 116.664 87.9887 118.089 89.0639C119.688 90.3551 121.296 91.6319 122.966 92.8271C126.341 95.3183 130.032 97.3487 133.257 100.042C139.493 105.216 145.065 111.499 152.798 114.494C154.968 115.483 157.473 116.194 159.086 118.046C157.133 118.517 155.189 119.102 153.168 119.146ZM133.79 93.9311C136.915 90.7583 141.95 90.8639 146.121 90.0527C147.585 89.8415 149.059 89.3663 150.552 89.6927C154.262 90.5039 155.064 94.9535 154.685 98.2079C154.469 99.9935 154.229 101.837 153.441 103.478C153.345 103.656 153.235 103.853 153.12 104.035C151.382 105.869 149.414 107.51 147.384 108.97C147.192 109.171 146.501 109.517 146.121 109.867C145.915 109.723 145.713 109.57 145.507 109.421C146.366 108.821 147.494 107.645 147.811 107.366C149.553 105.682 151.449 104.035 152.409 101.75C153.465 99.5663 154.046 97.0032 153.446 94.6079C153.024 93.2207 151.929 92.1551 150.907 91.2239C152.246 92.4287 152.889 93.9887 153.033 95.6495C153 95.5967 152.966 95.5487 152.947 95.5007C152.462 94.6031 151.651 93.9407 150.763 93.4655C146.765 91.7663 142.195 92.8511 138.125 93.7967C136.229 94.2431 134.246 95.2127 133.219 96.9167C133.334 95.7023 133.517 94.7423 133.781 93.9359L133.79 93.9311ZM138.691 90.5855C140.52 89.5247 142.094 87.7823 144.269 87.5327C145.406 87.4463 146.093 88.3583 146.87 89.0543C145.334 89.3423 143.803 89.7311 142.248 89.9183C141.009 90.0671 139.819 90.2735 138.691 90.5903V90.5855ZM143.947 93.5615C147.278 93.2255 150.873 93.5423 152.99 96.3791C153.014 96.3983 153.043 96.3743 153.072 96.3791C153.072 97.2959 152.933 98.2319 152.678 99.1439C151.555 96.7583 148.152 95.7215 145.593 95.5536C145.68 95.4623 145.761 95.3711 145.829 95.2607C146.155 94.2191 144.965 93.7583 143.952 93.5663L143.947 93.5615ZM145.128 95.9231C145.185 95.9807 145.257 96.0287 145.344 96.0335C147.878 96.4319 151.137 96.9696 152.649 99.2351C152.145 100.978 151.229 102.629 150.101 103.906C149.957 104.054 149.813 104.198 149.669 104.347C150.331 103.354 151.017 102.264 150.931 101.05C150.849 100.003 150.062 99.4703 149.054 99.6623C148.349 99.7487 147.672 99.9983 146.99 100.243C146.88 98.5151 145.593 96.5231 143.875 96.3791C144.317 96.2591 144.753 96.1295 145.128 95.9136V95.9231ZM143.649 96.4511C145.104 96.5999 146.073 98.2511 146.299 99.6767C146.371 99.8687 146.337 100.19 146.347 100.474C145.497 100.752 144.633 100.934 143.712 100.685C142.454 100.44 141.566 99.216 140.256 99.1679C140.299 99.0527 140.337 98.9423 140.395 98.8607C140.851 98.0303 141.552 97.2911 142.435 96.8783C142.79 96.6815 143.213 96.5615 143.64 96.4463L143.649 96.4511ZM140.237 99.9359C141.187 100.066 141.859 100.862 142.718 101.251C143.846 101.813 145.157 101.765 146.342 101.429C147.437 101.146 148.435 100.426 149.597 100.454C151.421 100.843 148.195 105.47 147.605 106.478C146.741 107.338 145.848 108.173 144.921 108.974C144.499 108.653 144.072 108.346 143.664 108.005C141.24 106.037 138.979 103.867 136.641 101.789C136.752 101.654 136.881 101.53 137.001 101.414C137.933 100.714 138.984 99.8207 140.241 99.9359H140.237ZM133.128 98.2223C133.147 97.8719 133.171 97.5455 133.195 97.2239C133.238 97.1711 133.267 97.1087 133.31 97.0559C135.413 94.7567 138.725 94.4352 141.633 93.8736C142.267 93.7631 142.934 93.6719 143.616 93.5951C144.374 93.7967 145.137 94.1903 145.445 94.8815C145.421 95.0735 145.243 95.2079 145.08 95.2895C144.072 95.6783 142.944 95.7071 141.993 96.2736C141.005 96.84 140.251 97.7903 139.776 98.8127C139.728 98.9279 139.656 99.0767 139.622 99.2207C138.408 99.4703 137.515 100.56 136.766 101.501C136.728 101.563 136.656 101.654 136.593 101.746C135.667 100.92 134.731 100.114 133.761 99.3359C133.541 99.1487 133.301 98.9903 133.075 98.8079C133.118 98.6208 133.109 98.3903 133.128 98.2175V98.2223ZM154.013 114.216C153.777 114.11 153.537 114 153.307 113.89C151.752 113.213 150.245 112.43 148.785 111.571C148.838 111.557 148.896 111.528 148.944 111.523C151.91 110.621 154.478 108.864 156.581 106.642C156.6 106.646 156.609 106.656 156.629 106.661C156.062 108.418 156.053 110.405 155.309 112.128C155.025 112.824 154.545 113.486 154.104 114.106C154.07 114.139 154.041 114.178 154.013 114.221V114.216ZM152.28 109.018C151.406 109.55 150.441 110.002 149.505 110.41C149.261 110.558 148.449 110.798 147.969 111.086C147.547 110.827 147.139 110.549 146.726 110.27C147.029 110.083 147.336 109.901 147.633 109.704C150.547 107.851 153.182 105.566 155.347 102.874C156.768 101.141 157.857 99.048 157.771 96.7535C157.478 93.8975 156.758 91.0367 155.616 88.3967C155.371 87.9215 155.136 87.4223 154.809 86.9951C155.318 87.84 155.625 88.8335 155.798 89.8271C156.134 91.9343 156.624 94.0655 156.917 96.1871C157.032 97.8623 156.609 99.5615 155.645 100.978C155.352 101.41 155.006 101.808 154.685 102.216C155.088 101.227 155.337 100.176 155.467 99.1055C156.211 95.0303 154.982 89.2367 150.086 88.7375C149.035 88.7039 147.993 88.8527 146.957 89.0399C146.649 88.6703 146.429 88.2191 146.093 87.8639C144.71 86.2031 142.421 87.1487 140.981 88.2287C139.699 89.0447 138.499 89.9807 137.318 90.9311C137.251 91.0079 137.117 91.0799 137.025 91.1711C135.878 91.6799 134.851 92.3951 133.987 93.3983C134.957 91.0559 136.814 90.1247 140.112 87.8399C140.899 87.2255 141.667 86.5775 142.329 85.8239C142.517 85.6127 142.68 85.3919 142.843 85.1663C145.07 84.1583 147.955 84.9359 150.369 84.4511C153.365 83.8175 157.229 81.0239 159.782 84.0575C160.973 85.5935 161.304 87.5807 162.254 89.2559C163.694 91.7279 165.792 92.4959 163.147 95.3039C162.264 96.2159 161.256 97.0415 160.593 98.1407C159.739 99.8015 159.504 101.702 158.246 103.176C156.552 105.398 154.766 107.63 152.289 109.027L152.28 109.018ZM118.987 134.976C118.003 130.133 116.563 125.381 114.729 120.792C113.525 117.792 112.272 114.806 111.019 111.826C114.192 113.035 117.59 113.784 120.561 115.498C122.856 116.693 124.805 118.43 126.83 120.043C128.957 121.704 131.165 123.278 133.517 124.608C135.878 126.019 138.437 127.003 141.057 127.834C139.277 129.84 137.313 131.702 135.475 133.666C137.573 132.082 139.526 129.979 141.091 127.843C142.08 128.16 143.078 128.453 144.077 128.741C140.721 132.446 136.574 135.341 132.672 138.432C134.741 137.731 136.55 136.229 138.254 134.856C140.448 133.061 142.445 131.026 144.144 128.76C145.718 129.216 147.293 129.658 148.843 130.142C149.731 130.43 150.605 130.728 151.473 131.045C150.686 131.069 149.909 131.232 149.169 131.563C146.75 132.84 144.739 134.803 142.56 136.45C137.726 139.766 132.701 143.592 126.648 144.182C124.277 142.944 122.073 141.259 119.601 140.189C119.832 138.874 119.049 135.696 118.982 134.981L118.987 134.976ZM106.123 30.1871C104.784 30.8783 103.584 32.1119 102.921 33.5039C103.896 32.3807 104.913 31.0703 106.171 30.2063C107.899 30.8591 109.723 31.4639 111.23 32.4191C114.792 34.6751 118.613 37.2095 120.566 41.0879C122.064 44.3183 122.577 48.4127 122.544 52.3247C120.043 53.7695 118.397 55.7903 119.121 58.6559C119.885 61.6031 122.112 64.4639 122.073 67.5503C119.529 63.4655 116.75 58.4159 111.657 57.5951C114.451 55.4447 117.595 53.6447 120.907 52.4255C117.245 52.6367 114.168 55.1231 111.533 57.5663C111.494 57.5615 111.461 57.5423 111.417 57.5375C109.997 57.2399 108.739 57.4991 107.577 58.0463C109.003 56.2127 110.87 54.6767 112.694 53.2367C114.974 51.5519 117.581 50.4239 120.139 49.2335C120.744 48.9551 121.329 48.6671 121.973 48.4751C121.665 48.4511 121.272 48.5135 120.936 48.5663C115.425 49.7327 110.376 53.3423 107.39 58.1375C106.867 58.4015 106.363 58.7279 105.873 59.0831C104.184 55.1855 102.955 51.0959 102.053 46.9439C102.595 45.4559 103.526 44.1215 104.525 42.8879C106.488 40.3103 109.171 38.3855 112.032 36.8927C113.126 36.3167 114.24 35.7167 115.435 35.4047C115.118 35.3615 114.71 35.4287 114.369 35.4671C108.657 36.5999 103.68 41.2991 102.043 46.8863C101.693 45.2639 101.381 43.6367 101.121 42.0047C101.078 41.6687 101.069 41.3279 101.03 40.9871C102.345 37.2767 104.553 33.6575 107.769 31.2431C107.769 31.2335 107.865 31.1903 107.837 31.1807C103.944 32.9231 101.937 37.0175 101.03 40.9775C100.958 40.3007 100.901 39.6191 100.848 38.9423C100.848 38.9423 100.853 38.9423 100.857 38.9471C100.857 38.9567 100.939 39.0191 100.92 38.9807C100.92 38.9807 100.872 38.9375 100.848 38.9135C100.541 34.7519 100.608 30.5615 100.795 26.3951C101.75 28.3679 103.838 29.3375 106.118 30.1967L106.123 30.1871ZM96.1006 27.3647C97.5454 28.2719 98.8894 29.5151 100.166 30.6719C99.3166 29.1071 97.7806 28.0031 96.139 27.3167C97.4302 25.6991 98.8223 24.1535 100.305 22.7039C100.147 24.0287 100.267 25.0991 100.598 25.9775C100.272 30.1007 100.08 34.2431 100.301 38.3759C98.2318 36.4175 95.7694 34.6367 92.8942 34.3871C95.491 35.4719 98.059 36.8111 100.31 38.5343C100.353 39.2927 100.373 40.0463 100.445 40.8047C100.55 41.6447 100.709 42.4799 100.843 43.3199C98.0686 40.3919 93.955 38.9519 90.0718 38.0015C90.3694 37.1615 90.6958 36.3311 91.0654 35.5199C93.8783 36.8303 96.7103 38.4479 99.4366 40.0511C97.2862 37.6079 94.1518 36.3983 91.0942 35.4623C92.4046 32.5823 94.1039 29.8751 96.1006 27.3647ZM88.3918 51.1343C88.5262 51.0959 88.6318 50.9615 88.627 50.8175C88.579 50.4623 88.5502 50.1023 88.507 49.7423C88.6702 49.7759 88.8335 49.8047 88.9967 49.8431C94.8814 51.3359 99.9742 55.0127 104.606 58.8191C100.627 54.1775 94.6318 50.5823 88.507 49.7039C88.3774 48.5519 88.2814 47.3951 88.3486 46.2383C88.387 45.5471 88.4974 44.8799 88.5886 44.2079C92.9134 45.0719 96.8254 47.4959 100.502 49.8479C97.507 46.6175 93.019 44.3471 88.5886 44.2031C88.8622 42.0767 89.3662 40.0223 90.067 38.0447C92.7406 38.8367 95.2222 40.0703 97.6414 41.4671C98.7262 42.0911 99.8783 42.5999 100.862 43.3871C101.745 48.8831 103.209 54.3167 105.408 59.4335C104.265 60.3215 103.195 61.3535 102.125 62.2223C102.086 62.2511 102.038 62.2751 102 62.3087C98.1886 57.7199 93.5471 53.7743 88.2478 51.1247C88.2959 51.1391 88.3342 51.1631 88.3918 51.1439V51.1343ZM62.059 47.6015C62.347 50.4527 62.8654 53.3951 64.7662 55.6559C63.7342 53.0783 62.7167 50.3327 62.1023 47.6063C62.9231 47.6879 63.7486 47.7599 64.5646 47.8607C65.8846 48.0431 67.2143 48.1439 68.5439 48.2207C68.5487 48.2783 68.5534 48.3359 68.563 48.3887C68.9566 52.7327 70.4927 56.9471 73.4255 60.2255C71.3231 56.5055 69.4223 52.4783 68.5823 48.2207C71.9999 48.4127 75.4271 48.4031 78.8207 48.8351C81.4895 49.2527 84.0478 50.0639 86.4862 51.1535C85.9678 53.2799 85.9246 55.6607 86.0446 57.8783C86.1694 61.0559 86.7071 64.2287 88.1134 67.1039C87.403 63.8015 86.7454 60.3839 86.5294 56.9759C86.3951 55.0463 86.1982 53.0783 86.5102 51.1679C90.7678 53.0783 94.651 55.8623 98.059 59.0399C99.235 60.1871 100.44 61.3631 101.611 62.5583C98.6062 64.6895 95.3326 66.4319 92.4286 68.7119C92.2414 64.4303 92.6782 60.1295 93.4654 55.9247C91.4446 59.8319 91.6223 64.5119 92.3279 68.7887C92.0879 68.9807 91.8287 69.1487 91.5935 69.3503C89.6926 70.8863 88.5406 72.2783 87.8446 73.7039C86.9038 73.0175 85.9391 72.3599 84.9839 71.6975C83.7407 64.7951 80.4863 58.1951 80.5583 51.0431C80.5487 50.4479 80.5535 49.8335 80.5871 49.2191C80.5007 49.4159 80.4671 49.7135 80.4095 49.9535C79.0847 57.4943 83.0207 64.5503 84.9311 71.6639C82.5743 70.0271 80.1887 68.4239 77.7598 66.8927C77.2031 66.5423 76.6462 66.1919 76.0846 65.8367C74.1982 63.2543 71.9999 60.8207 70.2911 58.0943C68.5295 55.1759 67.1711 51.8351 66.8735 48.4031C66.2255 50.5679 67.9582 55.3295 69.6431 57.8639C71.419 60.6719 73.6894 63.1247 75.8158 65.6639C71.6014 62.9807 67.4399 60.0959 64.1423 56.3615C63.9695 56.1503 63.7871 55.9247 63.5711 55.6703C61.4495 52.8575 59.3615 49.9775 57.8014 46.7999C59.1694 47.2895 60.6046 47.4671 62.0446 47.6063L62.059 47.6015ZM66.2062 77.2367C69.0238 76.6751 71.8511 75.6287 74.7023 75.3311C71.7839 75.4463 68.8655 76.0079 66.1727 77.1647C66.1007 76.9871 66.0191 76.8143 65.9471 76.6319C63.6767 71.7791 63.6334 66.1583 64.9102 61.0175C65.3087 59.5151 65.4095 58.7135 65.1599 57.9695C68.2271 61.2863 71.9326 63.9887 75.739 66.4607C73.987 66.0767 72.1295 65.8943 70.3295 65.9855C68.5391 66.0911 66.7631 66.4415 64.9583 66.3167C68.5439 66.7247 72.2638 66.4175 75.9118 66.5711C76.531 66.9743 77.155 67.3727 77.779 67.7615C79.1134 68.6063 80.4286 69.4799 81.739 70.3535C75.9934 69.8447 70.2335 71.7455 64.5407 72.0191C67.6799 72.9791 70.9871 71.9759 74.1311 71.4959C76.7567 71.0783 79.4159 70.6943 82.0751 70.5695C83.9231 71.8079 85.7566 73.0703 87.5566 74.3759C86.9566 75.9503 86.8606 77.5967 86.9518 79.5311C86.1742 79.7855 85.2671 79.7567 84.4607 79.8815C82.5359 79.9871 80.5774 79.9391 78.6574 80.1791C75.4942 80.5343 72.403 81.5423 69.6287 83.1023C68.1166 81.3839 67.0847 79.3583 66.2015 77.2271L66.2062 77.2367ZM68.5199 121.565C66.6767 119.083 66.763 117.389 66.979 115.795C70.6078 113.064 75.499 112.406 79.819 111.168C80.3566 111.034 80.9711 110.938 81.4702 110.794C76.4254 110.957 70.8287 112.334 66.9839 115.747C67.1807 114.298 67.4735 112.93 66.4895 111.139C65.3279 109.44 62.8703 109.272 61.8767 107.366C61.5791 106.805 61.3439 106.176 61.1327 105.528C65.2175 103.464 69.9935 103.08 74.5246 102.629C75.0526 102.552 75.6575 102.518 76.1423 102.418C70.9775 101.99 65.6015 102.811 61.1278 105.514C59.9951 101.966 60.1535 97.3823 61.3439 94.1375C63.4703 87.2495 69.9887 82.6271 76.8911 81.3359C80.1263 80.5295 84.0478 81.3551 86.9614 79.6367C87.019 80.8079 87.1342 82.0799 87.2446 83.5151C87.2446 86.4287 85.7038 89.0879 85.5598 92.0015C85.2334 95.9759 85.5454 100.008 86.4862 103.882C88.7134 113.309 92.9422 122.87 99.4702 130.229C96.1966 128.818 92.4094 129.264 88.9438 129.528C86.2654 129.802 84.5855 130.589 84.3455 132.226C84.3263 132.221 84.3263 132.202 84.307 132.197C82.1375 131.573 79.987 131.083 77.8846 130.229C73.7662 128.664 70.9247 125.122 68.5151 121.574L68.5199 121.565ZM91.4446 157.181C88.531 154.618 86.1263 151.397 84.3839 147.883C84.2111 147.542 84.0335 147.197 83.8655 146.851C83.9423 147.154 84.1391 147.523 84.2639 147.85C85.7807 151.493 87.6478 155.386 91.363 157.195C88.9774 157.536 86.5727 157.709 84.1535 157.728C81.4319 155.184 79.1231 152.15 77.5151 148.781C76.3679 146.323 75.7727 143.621 75.2495 140.966C75.1727 140.496 75.1007 140.011 75.0335 139.517C74.9327 140.006 74.9279 140.602 74.9135 141.13C74.9951 147.715 78.9551 153.758 84.0479 157.728C82.5599 157.738 81.0719 157.694 79.5839 157.589C78.2063 156.461 76.6222 155.41 75.5087 154.008C76.4254 155.448 77.7983 156.773 79.3871 157.57C76.6463 157.373 73.915 157.003 71.2318 156.47C71.1358 156.451 71.0398 156.422 70.939 156.398C68.3614 153.955 66.1151 151.147 64.3007 148.07C64.4063 147.965 64.5023 147.854 64.6079 147.744C66.4655 145.622 69.2302 144.624 71.299 142.738C73.2718 141.106 74.2559 138.763 75.0911 136.411C79.2047 137.616 83.1358 139.416 86.7551 141.744C87.0958 141.955 87.4366 142.171 87.7726 142.387C88.5646 144.878 89.3326 147.384 90.427 149.765C91.4398 152.246 92.8222 154.541 94.4542 156.643C93.451 156.854 92.4479 157.032 91.4351 157.181H91.4446ZM63.0671 142.838C63.6575 142.531 64.9247 141.739 65.6879 141.144C65.0111 142.253 64.4302 143.4 63.9262 144.581C63.9118 144.581 63.9167 144.571 63.9023 144.576C63.5039 144.979 63.0719 145.373 62.6207 145.728C62.7215 144.758 62.8655 143.794 63.0671 142.843V142.838ZM77.5246 130.982C77.3374 131.165 77.1646 131.357 77.0014 131.544C75.6862 132.902 75.0863 134.63 74.4958 136.373C74.4095 134.942 74.6639 133.454 75.0383 132.053C75.5183 131.717 75.9935 131.371 76.483 131.059C76.5934 130.954 76.7999 130.862 76.9774 130.757C77.155 130.838 77.3422 130.906 77.5246 130.982ZM74.4623 136.469C74.0495 137.693 73.6319 138.917 72.9743 140.026C72.7583 140.371 72.4751 140.654 72.2207 140.962C71.8367 138.797 71.9134 136.469 72.4702 134.309C72.4702 134.208 72.5374 134.069 72.5662 133.944C73.2718 133.354 73.9918 132.792 74.7359 132.259C74.3998 133.637 74.2463 135.062 74.4623 136.469ZM64.1951 144.523C64.7807 143.314 65.4239 142.133 66.1727 141.01C65.8319 142.464 65.8943 144.034 66.3599 145.454C65.5199 146.054 64.7471 146.755 64.0559 147.528C63.9502 146.683 63.9071 145.742 64.1135 144.888C64.1087 144.787 64.1807 144.648 64.1999 144.528L64.1951 144.523ZM66.379 145.435C66.0478 144.01 66.0382 142.387 66.4127 140.928C66.4127 140.798 66.5471 140.606 66.5711 140.448C67.2911 139.416 68.083 138.432 68.923 137.491C68.9039 137.558 68.875 137.63 68.8559 137.698C68.3518 139.685 68.3951 141.845 68.8655 143.832C68.0543 144.365 67.2286 144.878 66.4271 145.397C66.4079 145.411 66.3935 145.426 66.3743 145.44L66.379 145.435ZM68.8414 139.123C68.9422 138.418 69.1247 137.702 69.3455 137.011C70.2527 136.027 71.2127 135.091 72.2255 134.218C71.6255 136.411 71.6207 138.787 72.1967 140.99C71.2607 142.104 70.1087 143.011 68.8799 143.818C68.6495 142.315 68.6399 140.664 68.8367 139.123H68.8414ZM72.1295 133.574C72.0191 133.622 71.9039 133.694 71.8079 133.704C70.2863 134.261 68.7454 134.798 67.1518 135.082C68.419 133.973 69.8975 133.104 71.4335 132.322C71.9855 132.293 72.5518 132.235 73.0942 132.182C73.4495 132.13 73.8046 132.053 74.1599 131.976C73.4687 132.48 72.7871 133.003 72.1343 133.57L72.1295 133.574ZM67.0846 135.149C67.2575 135.125 67.4399 135.096 67.5983 135.082C68.9855 134.89 70.3439 134.486 71.6639 134.016C70.7423 134.842 69.8686 135.725 69.043 136.651C69.0382 136.651 69.0382 136.651 69.0286 136.646C67.5598 137.525 65.9615 138.163 64.3823 138.816C64.6607 138.216 64.9679 137.63 65.3327 137.069C65.8367 136.349 66.4367 135.725 67.0799 135.149H67.0846ZM64.363 138.864C65.1358 138.629 67.3919 137.808 68.5295 137.227C67.6511 138.254 66.8207 139.325 66.0911 140.453C65.2031 141.35 64.1567 142.066 63.0911 142.742C63.3791 141.398 63.7919 140.098 64.363 138.864ZM62.6111 145.824C62.9711 145.589 63.4846 145.2 63.7871 144.912C63.3022 146.098 62.8799 147.302 62.6015 148.541C62.9327 147.418 63.3646 146.328 63.8447 145.258C63.7534 146.026 63.8303 146.808 64.0223 147.562C63.4175 148.238 62.8607 148.963 62.3807 149.731C62.4095 148.454 62.4814 147.139 62.6158 145.829L62.6111 145.824ZM75.3983 135.586C75.8783 134.237 76.2382 132.797 77.0975 131.606C77.2463 131.39 77.4431 131.218 77.6255 131.021C79.7038 131.894 81.9118 132.518 84.0718 133.085C84.1774 133.114 84.2591 133.08 84.3407 133.046C84.4271 133.728 84.6862 134.51 85.1854 135.442C86.0926 137.304 86.7742 139.253 87.4126 141.216C83.659 138.898 79.6126 136.896 75.403 135.586H75.3983ZM75.883 130.195C76.0606 130.286 76.2335 130.382 76.4111 130.469C75.7919 130.848 75.1774 131.232 74.5774 131.659C74.5774 131.659 74.5727 131.654 74.5679 131.654C73.9295 131.832 73.2766 131.971 72.619 132.077C72.2926 132.125 71.9711 132.168 71.6495 132.216C72.8303 131.626 74.0255 131.074 75.1727 130.507C75.4079 130.397 75.6479 130.296 75.883 130.195ZM38.8799 136.637C43.4879 138.576 48.6575 138.922 53.3903 137.198C57.6287 135.821 62.083 134.736 66.5326 134.832C64.9487 136.291 63.7055 138.058 63.1007 140.29C62.7071 141.518 62.4431 142.776 62.2655 144.048C61.5167 142.334 60.8735 140.573 60.403 138.758C60.2734 138.25 60.1535 137.736 60.0383 137.222C60.0095 137.698 60.0718 138.259 60.1151 138.763C60.4415 140.918 61.1663 143.074 62.1455 145.152C62.0591 146.04 61.9919 146.938 61.9727 147.83C61.9967 148.57 61.8047 149.467 62.2127 150.11C62.4527 150.269 62.6638 150 62.7887 149.822C63.1535 149.328 63.5518 148.877 63.9646 148.43C65.8846 151.469 68.3134 154.21 70.8671 156.374C67.7087 155.693 64.5791 154.814 61.5311 153.725C59.4527 151.757 57.2351 149.712 55.6463 147.278C56.9807 149.842 58.8095 152.39 61.5023 153.715C58.7615 152.736 56.0783 151.589 53.5007 150.226C50.4719 147.389 47.7311 143.611 47.3183 139.368C47.2415 143.15 49.0079 147.01 52.0511 149.347C50.0735 148.133 48.1487 146.803 46.3103 145.373C45.9455 144.994 45.5135 144.643 45.1007 144.293C44.2415 142.762 43.4927 141.12 43.1375 139.387C42.8879 140.966 43.5599 142.402 44.4479 143.698C42.2543 141.653 40.1711 139.397 38.8703 136.637H38.8799ZM82.2958 167.194C85.7519 165.173 89.347 162.605 90.3598 158.549C88.2622 162.053 85.3007 164.923 81.9743 167.261C78.043 168.144 74.107 168.35 70.2718 167.909C74.5966 166.464 79.0462 164.093 80.5774 159.552C80.251 159.979 79.9342 160.507 79.5455 160.934C77.0111 164.03 73.6799 166.33 69.9983 167.875C65.0159 167.251 60.2207 165.499 55.9103 162.408C51.1055 159.096 46.7615 153.936 46.9967 147.768C47.2079 147.101 47.1119 146.568 46.8575 146.093C51.3119 149.659 56.3471 152.496 61.7423 154.363C65.3471 155.688 69.0767 156.701 72.8639 157.397C72.2303 158.093 71.5678 158.77 70.843 159.374C68.0542 161.678 64.5455 163.061 60.9407 163.378C61.6078 163.469 62.3999 163.459 63.1055 163.392C67.0367 162.994 70.5311 160.632 72.8639 157.512C72.8879 157.478 72.9214 157.44 72.9502 157.406C78.739 158.458 84.6623 158.746 90.5135 158.093C91.1903 158.021 91.8574 157.934 92.5246 157.824C93.2638 157.704 93.9934 157.541 94.723 157.378C94.099 158.923 93.5422 160.565 92.4814 161.846C92.4766 161.846 92.4718 161.851 92.4766 161.856C93.6431 160.67 94.7134 159.058 94.819 157.358C94.8814 157.344 94.9486 157.334 95.0158 157.32C95.8606 158.347 96.7774 159.317 97.7374 160.243C93.1534 163.613 87.955 166.114 82.3102 167.189L82.2958 167.194ZM87.1342 204.893C86.5918 203.28 86.1886 201.629 85.8718 199.958C86.2414 199.051 86.5342 198.043 86.9518 197.218C86.4526 197.99 86.0927 198.859 85.8335 199.757C84.6239 193.267 85.075 186.48 87.283 180.216C88.9582 175.09 91.483 170.189 95.2607 166.262C96.6238 164.741 98.0879 163.31 99.595 161.938C101.28 163.349 103.085 164.616 104.971 165.725C101.035 166.68 96.4894 166.522 93.5902 169.858C96.955 167.554 101.237 167.102 105.053 165.773C105.283 165.907 105.509 166.056 105.739 166.186C106.133 166.416 106.531 166.627 106.934 166.843C106.445 167.894 105.96 168.95 105.494 170.011C102.777 171.595 99.643 172.33 96.8926 173.87C92.5247 176.304 88.195 179.539 86.227 184.291C88.7854 180.955 91.7758 177.912 95.3279 175.555C98.3855 173.405 102.048 172.315 105.211 170.328C105.273 170.285 105.345 170.242 105.413 170.198C103.925 173.621 102.629 177.125 101.616 180.71C95.5294 183.739 89.9422 188.851 87.9695 195.576C89.6638 192.946 91.2094 190.08 93.2495 187.651C95.6302 184.934 98.5006 182.616 101.606 180.749C101.405 181.459 101.184 182.16 101.006 182.875C100.632 184.243 100.368 185.626 100.161 187.018C100.152 187.027 100.142 187.037 100.128 187.042C95.971 189.926 93.0046 194.074 90.8878 198.619C93.7439 194.606 96.2542 190.253 100.147 187.07C99.5038 191.477 99.5135 195.97 99.0334 200.405C98.9519 201.13 98.8175 201.84 98.6782 202.555C96.4846 205.181 93.8878 207.538 91.6318 210.125C94.4782 208.339 96.691 205.69 98.6158 202.92C97.483 208.459 94.8526 213.59 93.0382 218.947C93.0382 218.482 92.9998 218.011 92.8751 217.546C91.6846 213.019 88.411 209.414 87.1294 204.888L87.1342 204.893ZM119.385 205.267C112.819 214.459 101.937 218.794 92.3279 224.002C92.4046 222.61 92.8559 221.198 92.9998 219.782C95.4334 213.773 98.5438 207.893 99.619 201.442C99.6574 201.384 99.6958 201.331 99.7294 201.274C99.6958 201.317 99.6574 201.36 99.6238 201.403C99.7198 200.808 99.8398 200.222 99.8974 199.618C100.094 197.885 100.205 196.142 100.31 194.395C101.045 200.146 104.294 205.459 108.744 209.112C105.379 204.398 101.52 199.584 100.353 193.718C100.541 190.747 100.747 187.781 101.405 184.862C101.669 183.576 102.005 182.309 102.355 181.042C104.51 190.954 112.617 197.966 119.059 205.296C117.307 201.389 113.793 198.6 111.072 195.36C107.745 191.386 104.669 187.133 102.787 182.27C102.629 181.853 102.494 181.411 102.369 180.974C102.84 179.275 103.363 177.595 103.958 175.934C104.472 177.806 105.537 179.669 106.757 181.224C105.902 179.467 104.659 177.782 103.958 175.93C104.693 173.885 105.518 171.869 106.401 169.877C106.886 170.578 107.4 171.293 108.043 171.869C107.568 171.216 106.953 170.467 106.401 169.872C106.8 168.974 107.203 168.082 107.621 167.198C109.003 167.909 110.424 168.528 111.883 169.056C107.299 173.933 106.857 179.606 109.469 185.789C110.131 187.368 110.472 189.043 110.784 190.723C110.851 190.92 110.837 191.237 111.057 191.333C111.288 191.352 111.293 191.035 111.355 190.867C111.979 188.654 112.8 186.514 113.985 184.531C114.845 183.269 115.641 181.958 116.313 180.619C117.379 181.752 118.157 183.115 119.025 184.416C119.52 185.155 119.99 185.909 120.47 186.658C120.269 190.224 121.617 193.67 123.038 197.016C122.299 199.944 121.152 202.762 119.376 205.253L119.385 205.267ZM119.294 170.741C120.374 173.357 121.397 175.997 122.294 178.685C122.4 179.006 122.491 179.333 122.592 179.659C121.877 181.152 121.233 182.683 120.845 184.301C120.734 184.714 120.701 185.122 120.633 185.53C120.446 185.266 120.269 184.992 120.077 184.733C119.016 183.202 117.777 181.795 116.357 180.586C117.921 177.442 118.68 174.082 117.326 170.496C117.979 170.602 118.637 170.683 119.299 170.741H119.294ZM129.893 190.186C129.259 188.722 128.337 187.286 127.152 186.187C127.185 185.683 127.248 185.184 127.272 184.68C127.281 184.008 127.272 183.331 127.248 182.654C127.368 182.76 127.493 182.856 127.608 182.966C128.625 183.95 129.413 185.15 130.113 186.384C130.19 187.546 130.161 188.765 129.907 190.114C129.907 190.138 129.893 190.162 129.893 190.186ZM122.736 194.539C123.307 193.426 123.989 192.264 124.944 191.41C125.347 191.04 125.803 190.685 126.23 190.325C126.139 191.4 126.033 192.48 125.961 193.56C125.865 193.618 125.784 193.747 125.707 193.814C124.843 194.822 124.094 195.979 123.749 197.275C123.403 196.363 123.057 195.456 122.736 194.544V194.539ZM121.507 184.91C122.597 183.01 124.257 181.402 125.904 179.938C125.961 179.861 126.072 179.798 126.182 179.726C126.302 180.648 126.389 181.574 126.437 182.506C125.717 183 125.064 183.6 124.497 184.262C123.36 185.568 122.198 186.878 121.305 188.362C121.229 187.224 121.277 186.072 121.512 184.906L121.507 184.91ZM126.393 182.938C126.393 182.938 126.437 182.904 126.461 182.89C126.509 184.027 126.504 185.165 126.461 186.302C126.225 186.336 125.952 186.696 125.76 186.797C124.171 188.165 122.769 189.902 121.896 191.818C121.608 190.718 121.401 189.614 121.315 188.501C122.765 186.494 124.478 184.522 126.403 182.942L126.393 182.938ZM126.312 186.778C126.345 186.744 126.393 186.71 126.441 186.677C126.427 186.926 126.427 187.181 126.408 187.43C126.389 188.275 126.326 189.125 126.259 189.974C126.235 189.979 126.216 189.955 126.197 189.97C124.646 191.136 123.422 192.696 122.721 194.506C122.409 193.622 122.131 192.739 121.896 191.846C122.957 189.912 124.589 188.198 126.312 186.778ZM126.801 190.277C127.737 191.17 128.419 192.278 129.038 193.406C128.702 194.366 128.347 195.317 128.001 196.277C127.627 195.374 127.085 194.496 126.417 193.762C126.542 192.6 126.672 191.438 126.801 190.277ZM126.835 189.989C126.96 188.832 127.046 187.67 127.133 186.509C128.261 187.579 129.153 188.88 129.888 190.248C129.725 191.304 129.417 192.322 129.072 193.325C128.529 192.115 127.829 190.896 126.84 189.989H126.835ZM126.139 179.342C125.659 179.726 125.184 180.12 124.752 180.562C123.494 181.81 122.304 183.192 121.531 184.795C121.627 184.344 121.752 183.893 121.905 183.437C122.803 180.562 124.401 177.95 125.227 175.061C125.64 176.462 125.937 177.893 126.144 179.342H126.139ZM110.323 172.248C111.417 171.494 112.661 170.914 113.99 170.784C114.086 170.774 114.197 170.779 114.302 170.774C114.009 171.528 113.726 172.291 113.448 173.054C111.571 173.669 109.901 174.917 108.686 176.477C108.979 174.989 109.545 173.558 110.328 172.243L110.323 172.248ZM115.243 171.394C116.193 172.229 116.904 173.309 117.485 174.427C117.398 175.651 117.182 176.861 116.822 178.032C116.256 176.386 115.406 174.744 114.245 173.414C114.528 172.694 114.806 171.979 115.094 171.264C115.152 171.307 115.209 171.346 115.243 171.394ZM108.657 176.578C109.857 175.243 111.398 174.082 113.097 173.434C113.15 173.4 113.237 173.376 113.333 173.357C113.03 174.197 112.742 175.042 112.478 175.891C112.329 175.915 112.152 176.083 112.017 176.126C110.534 177.077 109.305 178.488 108.504 180.067C108.379 178.896 108.437 177.725 108.657 176.578ZM112.373 176.251C112.013 177.451 111.725 178.661 111.499 179.885C111.393 179.995 111.283 180.11 111.182 180.226C110.385 181.205 109.709 182.299 109.238 183.475C109.085 182.966 108.95 182.448 108.854 181.92C108.691 181.33 108.581 180.73 108.513 180.134C109.459 178.608 110.774 177.163 112.377 176.256L112.373 176.251ZM111.393 180.418C111.216 181.498 111.129 182.587 111.11 183.686C110.87 183.691 110.294 185.146 110.054 185.938C109.785 185.136 109.502 184.339 109.257 183.528C109.814 182.424 110.549 181.368 111.393 180.418ZM111.105 183.96C111.096 185.078 111.153 186.202 111.35 187.334C111.398 187.344 111.379 187.171 111.355 187.31C111.264 186.115 111.317 184.939 111.432 183.768C111.936 184.546 112.353 185.386 112.694 186.24C112.032 187.747 111.528 189.317 111.096 190.906C110.861 189.85 110.808 188.765 110.568 187.709C110.438 187.147 110.265 186.6 110.088 186.058C110.347 185.347 110.678 184.613 111.101 183.96H111.105ZM112.723 186.173C112.555 185.563 111.835 183.854 111.461 183.422C111.609 182.126 111.859 180.845 112.185 179.578C113.088 180.677 113.707 181.973 114.201 183.307C113.779 184.003 113.366 184.704 113.016 185.443C112.901 185.678 112.824 185.933 112.718 186.173H112.723ZM114.221 183.274C113.846 181.862 113.227 180.413 112.262 179.275C112.512 178.334 112.79 177.403 113.107 176.477C113.189 176.549 113.28 176.626 113.318 176.702C114.307 177.917 115.089 179.29 115.709 180.725C115.253 181.594 114.729 182.429 114.216 183.274H114.221ZM115.742 180.667C115.267 179.227 114.489 177.806 113.582 176.578C113.481 176.501 113.347 176.299 113.208 176.179C113.505 175.33 113.822 174.485 114.144 173.65C114.158 173.664 114.173 173.678 114.182 173.698C115.281 174.998 116.117 176.525 116.803 178.08C116.549 178.896 116.251 179.698 115.857 180.461C115.824 180.533 115.781 180.6 115.742 180.667ZM117.547 173.347C117.547 173.674 117.509 173.995 117.489 174.322C116.966 173.093 116.217 171.878 115.19 171.024C115.305 170.731 115.425 170.438 115.541 170.146C116.097 170.275 116.659 170.386 117.225 170.477C117.384 171.422 117.533 172.378 117.547 173.352V173.347ZM114.413 170.477C112.973 170.582 111.6 171.173 110.433 172.042C111.043 171.058 111.773 170.141 112.603 169.33C113.27 169.555 113.942 169.752 114.624 169.934C114.552 170.117 114.485 170.299 114.413 170.482V170.477ZM123.753 197.285C124.224 196.08 125.006 194.909 125.942 193.963C125.889 194.846 125.856 195.734 125.88 196.613C125.587 196.699 124.805 198.538 124.536 199.368C124.286 198.672 124.022 197.976 123.758 197.285H123.753ZM125.918 204.293C125.64 202.67 125.136 201.062 124.56 199.464C124.915 198.61 125.357 197.702 125.889 196.901C125.923 197.798 126.005 198.696 126.177 199.589C126.177 199.598 126.192 199.589 126.192 199.589C126.067 198.806 126.048 198.01 126.072 197.213C126.475 197.851 126.806 198.528 127.118 199.214C126.729 200.914 126.403 202.622 125.918 204.293ZM127.253 198.624C127.214 198.787 127.181 198.946 127.147 199.109C126.921 198.461 126.403 197.232 126.081 196.8C126.134 195.878 126.249 194.962 126.384 194.05C127.008 194.741 127.541 195.504 127.982 196.32C127.709 197.078 127.454 197.842 127.253 198.624ZM130.109 186.23C129.437 184.834 128.573 183.456 127.401 182.438C127.349 182.41 127.291 182.357 127.233 182.299C127.195 181.378 127.128 180.451 127.017 179.534C127.819 180.221 128.51 181.018 129.115 181.882C129.643 183.254 129.989 184.685 130.109 186.226V186.23ZM128.87 181.315C128.352 180.509 127.709 179.76 126.969 179.155C126.854 178.262 126.696 177.379 126.504 176.506C127.373 178.162 128.208 179.722 128.87 181.32V181.315ZM124.992 174.379C124.747 175.061 124.521 175.766 124.219 176.434C123.84 177.168 123.456 177.907 123.081 178.651C123.077 178.632 123.067 178.613 123.062 178.594C122.097 175.973 121.128 173.347 119.971 170.803C120.024 170.803 120.072 170.813 120.125 170.818C121.329 170.938 122.525 171.005 123.715 171.125C124.219 172.181 124.632 173.275 124.987 174.379H124.992ZM134.088 174.187C134.621 175.181 134.947 176.266 135.216 177.36C134.006 176.266 132.979 174.989 132.139 173.587C132.571 173.75 133.003 173.914 133.449 174.043C133.656 174.11 133.872 174.134 134.083 174.187H134.088ZM135.283 177.413C135.144 176.347 134.851 175.238 134.366 174.25C135.149 174.413 135.941 174.48 136.728 174.418C136.728 174.427 136.718 174.432 136.728 174.442C136.896 174.672 137.064 174.902 137.222 175.142C138.225 176.659 138.921 178.368 139.478 180.096C139.31 180.029 139.137 179.99 138.969 179.914C137.616 179.28 136.392 178.411 135.283 177.413ZM138.739 173.942C138.763 173.971 138.773 174.005 138.806 174.024C139.267 174.336 139.752 174.619 140.232 174.902C140.395 175.118 140.558 175.344 140.712 175.57C141.83 177.307 142.665 179.237 143.313 181.2C142.017 180.936 140.741 180.595 139.507 180.106C139.104 178.31 138.417 176.453 137.361 174.902C137.241 174.725 137.112 174.552 136.987 174.374C137.587 174.307 138.173 174.158 138.739 173.938V173.942ZM143.328 181.205C142.915 179.376 142.166 177.518 141.201 175.882C141.062 175.656 140.899 175.445 140.75 175.224C141.965 175.925 143.208 176.582 144.427 177.283C144.456 177.312 144.485 177.341 144.504 177.37C145.752 178.747 146.63 180.418 147.504 182.05C146.87 180.523 146.083 178.939 145.013 177.619C145.67 178.013 146.323 178.43 146.947 178.882C147.47 179.294 147.989 179.731 148.507 180.163C149.15 181.114 149.678 182.146 150.144 183.192C149.395 182.75 148.632 182.347 147.782 182.107C146.318 181.738 144.816 181.502 143.333 181.2L143.328 181.205ZM148.157 178.08C147.302 177.854 146.39 177.648 145.531 177.317C144.441 176.501 143.318 175.738 142.166 175.032C143.198 175.234 144.249 175.349 145.296 175.248C145.488 175.229 145.694 175.21 145.901 175.181C146.712 176.093 147.446 177.086 148.157 178.08ZM149.985 180.422C149.664 180.322 149.323 180.235 149.021 180.12C148.718 180.235 149.52 180.389 150.048 180.494C151.363 182.006 152.649 183.533 153.59 185.323C152.429 184.714 151.353 183.926 150.225 183.25C150.043 182.717 149.52 181.474 149.078 180.638C149.976 181.406 150.849 182.198 151.651 183.048C150.009 181.08 148.075 179.275 145.987 177.662C146.707 177.874 147.451 178.003 148.185 178.118C148.502 178.56 148.819 179.006 149.131 179.438C149.414 179.77 149.702 180.096 149.99 180.422H149.985ZM145.819 175.09C144.729 175.166 143.625 175.133 142.555 174.922C142.233 174.864 141.902 174.768 141.571 174.682C140.923 174.298 140.27 173.928 139.613 173.582C139.891 173.424 140.165 173.266 140.433 173.112C141.283 173.098 142.133 173.03 142.973 172.91C143.064 172.896 143.15 172.867 143.241 172.848C144.197 173.472 145.046 174.235 145.819 175.094V175.09ZM143.198 172.814C143.198 172.814 143.155 172.824 143.136 172.824C142.373 172.867 141.6 172.872 140.832 172.882C141.259 172.642 141.677 172.416 142.089 172.205C142.473 172.387 142.848 172.589 143.198 172.819V172.814ZM160.905 168.418C159.192 169.915 157.051 171.086 154.901 171.859C154.161 172.08 153.446 172.085 152.741 171.984C152.059 167.16 149.582 162.456 145.694 159.475C145.253 159.168 144.768 158.818 144.317 158.587C144.566 158.808 144.816 159.024 145.061 159.25C148.795 162.586 151.661 167.03 152.693 171.979C150.835 171.691 149.064 170.606 147.192 170.299C143.222 169.286 140.472 172.992 136.838 173.554C132.638 173.861 129.139 170.626 124.963 170.39C121.305 169.958 117.595 169.973 114.029 168.912C109.608 167.539 105.365 165.317 101.669 162.523C92.731 155.875 90.5902 148.608 87.4174 138.49C84.8686 132.01 82.8671 130.834 91.3679 130.205C94.051 130.157 96.9406 129.898 99.403 131.184C100.761 132.077 101.813 133.344 103.017 134.424C104.731 136.066 106.689 137.448 108.801 138.528C108.816 138.538 108.835 138.542 108.849 138.552C105.643 140.011 103.704 143.568 103.238 146.957C103.997 145.258 104.875 143.515 105.921 141.936C106.737 140.731 107.515 139.334 108.806 138.6C108.835 138.586 108.869 138.586 108.897 138.571C112.075 140.419 115.934 139.464 119.222 140.966C123.845 142.978 128.318 147.619 133.752 145.67C132.081 146.165 129.696 145.498 127.925 144.739C133.574 144.139 138.192 140.462 142.761 137.405C145.056 135.754 147.081 133.685 149.597 132.36C151.411 131.578 153.465 131.928 155.141 132.941C156.24 133.55 157.397 134.275 158.707 134.155C160.358 134.165 161.789 132.936 163.43 133.181C166.593 133.603 168.59 135.71 169.819 138.566C171.019 141.72 170.654 145.229 169.819 148.45C168.062 153.677 166.344 159.014 163.968 164.016C163.171 165.643 162.23 167.15 160.905 168.418ZM163.469 166.637C164.525 165.043 165.336 163.282 166.041 161.51C167.294 158.525 168.374 155.472 169.406 152.405C171.235 147.59 172.709 141.744 170.016 136.982C169.219 135.595 168.264 134.242 166.862 133.416C165.648 132.782 164.227 132.24 162.83 132.269C163.411 131.477 163.862 130.574 164.693 129.994C167.27 128.102 170.621 127.69 173.294 125.938C178.123 123.269 179.52 116.376 176.443 111.874C175.819 110.899 174.921 110.17 173.942 109.57C174.686 108.859 175.521 107.347 175.781 106.862C176.697 105.355 177.249 103.786 177.557 102.178C178.584 101.4 180.062 101.237 181.334 101.246C187.689 100.963 195.321 105.192 199.032 110.304C201.307 113.578 202.593 117.552 202.699 121.546C202.795 125.078 202.185 128.63 202.397 132.163C202.478 134.366 203.405 136.334 204.302 138.302C201.297 135.086 197.755 132.269 194.184 129.696C190.992 127.282 187.209 125.995 183.336 125.146C183.989 125.467 184.761 125.75 185.462 126.053C192.653 128.683 198.917 133.334 204.432 138.586C204.696 139.176 204.96 139.762 205.185 140.362C206.045 143.165 203.232 144.941 201.317 146.419C199.853 147.586 198.369 148.738 197.04 150.062C186.84 160.81 187.685 166.666 170.477 167.328C168.144 167.304 165.749 167.366 163.488 166.646L163.469 166.637ZM191.208 177.878C184.517 176.952 178.296 173.53 173.558 168.763C173.323 168.523 173.097 168.274 172.867 168.029C174.264 167.909 175.656 167.765 177.053 167.616C177.845 167.491 178.55 167.304 179.261 167.122C178.689 167.765 178.214 168.629 177.993 169.435C178.483 168.706 178.886 167.827 179.433 167.083C181.632 166.493 183.48 165.643 185.078 164.544C182.573 166.862 180.302 169.714 180.038 173.213C181.301 169.901 183.24 166.704 185.688 164.069C188.808 161.717 191.145 158.486 193.987 154.747C194.275 154.363 194.606 154.018 194.913 153.653C195.653 154.354 196.349 155.098 197.04 155.856C193.617 157.79 190.771 160.8 188.827 164.242C191.501 161.448 193.805 158.088 197.078 155.899C197.299 156.144 197.549 156.36 197.769 156.614C198.24 157.176 198.691 157.757 199.147 158.328C194.505 160.613 190.209 164.746 189.153 170.04C191.448 165.456 194.678 161.04 199.152 158.338C199.584 158.885 200.011 159.432 200.438 159.984C200.198 160.2 199.939 160.406 199.694 160.618C195.283 164.587 190.627 170.112 190.723 176.357C192.105 170.587 195.432 165.346 199.435 161.006C199.747 160.661 200.15 160.325 200.443 159.994C202.915 163.234 205.272 166.579 207.797 169.781C206.347 171.648 205.19 174.182 205.301 176.659C206.136 174.437 206.51 171.854 207.816 169.8C208.901 171.173 210.014 172.526 211.19 173.818C211.805 174.734 212.606 175.747 213.686 176.966C206.208 177.25 198.701 178.757 191.213 177.878H191.208Z" fill="white"/>
<path d="M169.814 165.84C169.814 165.84 169.843 165.84 169.858 165.84C169.834 165.826 169.805 165.811 169.781 165.797C169.795 165.811 169.805 165.826 169.819 165.84H169.814Z" fill="white"/>
<path d="M106.426 84.912C107.078 83.9376 107.885 83.0352 108.59 82.1328C107.861 82.6272 107.17 83.184 106.531 83.7888C103.2 87.3984 101.314 92.5584 101.822 97.4736C102.422 102.278 104.549 106.814 106.637 111.134C102.61 101.328 99.6769 94.5072 106.43 84.9072L106.426 84.912Z" fill="white"/>
<path d="M131.203 148.066C129.859 147.864 128.53 147.518 127.272 147C129.533 148.138 132.23 148.728 134.794 148.752C137.904 148.781 141.058 147.619 143.165 145.334C139.57 147.456 135.408 148.805 131.203 148.066Z" fill="white"/>
<path d="M185.035 123.25C189.691 124.699 193.925 127.243 197.803 130.166C194.184 127.08 189.826 124.037 185.035 123.25Z" fill="white"/>
<path d="M193.233 138.331C196.214 139.977 199.406 141.283 202.133 143.352C199.617 141.12 196.449 139.329 193.233 138.331Z" fill="white"/>
<path d="M163.085 50.6254C163.349 50.3518 163.709 50.0782 163.91 49.7998C163.704 49.9966 163.478 50.1742 163.262 50.3518C158.539 54.1966 153.422 58.6606 152.323 64.963C154.555 58.7518 158.141 54.8494 163.085 50.6254Z" fill="white"/>
<path d="M160.987 56.3426C162.187 54.9314 163.373 53.2802 164.506 51.8306C163.176 53.189 161.962 54.701 160.987 56.3426Z" fill="white"/>
<path d="M145.857 68.3328C147.168 64.8048 148.536 61.1232 150.792 58.0176C148.363 60.912 146.165 64.4064 145.857 68.3328Z" fill="white"/>
<path d="M155.65 169.397C155.069 166.646 153.509 163.761 151.224 162.048C152.962 164.299 154.834 166.617 155.65 169.397Z" fill="white"/>
<path d="M165.135 154.392C162.36 149.817 156.523 147.6 151.291 148.329C151.282 148.329 151.282 148.339 151.291 148.344C151.311 148.344 151.33 148.349 151.349 148.353C156.279 149.145 161.971 150.149 165.139 154.392H165.135Z" fill="white"/>
<path d="M104.433 137.578C104.16 137.64 103.833 137.808 103.55 137.938C98.1071 141.101 94.9679 148.008 95.2367 154.195C95.3423 151.354 96.2879 148.459 97.4543 145.834C98.9903 142.819 101.285 140.194 103.857 138.01C104.04 137.866 104.232 137.722 104.433 137.582V137.578Z" fill="white"/>
<path d="M74.7887 109.104C73.2719 109.349 71.6927 109.896 70.3535 110.722C71.7551 110.102 73.2911 109.57 74.7887 109.104Z" fill="white"/>
<path d="M82.0034 101.813C81.2258 101.654 80.309 101.698 79.4834 101.702C79.781 101.798 80.237 101.746 80.5826 101.784C81.053 101.803 81.5282 101.813 82.0034 101.808V101.813Z" fill="white"/>
<path d="M66.8014 97.7952H66.787C66.7774 97.7952 66.7774 97.8096 66.787 97.8048C66.8638 97.7904 66.9358 97.7616 67.0126 97.7472C71.4718 96.6192 76.0798 96.8928 80.6158 97.3824C76.2046 95.8176 71.2222 96.4512 66.8014 97.7904V97.7952Z" fill="white"/>
<path d="M110.53 65.5728C111.821 67.6992 112.675 70.0512 113.563 72.3648C112.978 70.0128 112.032 67.4976 110.53 65.5728Z" fill="white"/>
<path d="M104.472 71.7598C105.759 73.0126 106.8 74.4862 107.779 75.9838C107.035 74.4046 105.888 72.7918 104.472 71.7598Z" fill="white"/>
<path d="M135.494 75.7438C135.485 75.7198 135.48 75.6958 135.475 75.6718C135.475 75.667 135.475 75.6574 135.475 75.6526V75.6382C135.456 75.6526 135.451 75.6814 135.456 75.7102C135.494 75.9454 135.605 76.1614 135.705 76.3726C136.589 78.1102 137.275 79.963 137.337 81.9358C137.64 80.9086 137.616 79.6846 137.227 78.6526C136.857 77.5678 135.936 76.7758 135.489 75.7438H135.494Z" fill="white"/>
<path d="M135.51 75.6289C135.51 75.6289 135.485 75.634 135.485 75.639C135.485 75.639 135.495 75.6239 135.51 75.6289Z" fill="white"/>
<path d="M181.287 98.2848C183.221 95.592 185.323 92.88 188.127 90.9888C185.271 92.6976 182.631 95.1456 181.287 98.2848Z" fill="white"/>
<path d="M118.33 98.7842C116.347 101.299 114.509 104.256 113.966 107.496C115.027 104.477 116.53 101.487 118.33 98.7842Z" fill="white"/>
<path d="M126.168 140.463C128.098 139.599 129.768 138.091 131.323 136.656C129.662 137.933 127.786 139.051 126.168 140.463Z" fill="white"/>
<path d="M74.2466 56.5488C75.2786 59.1456 77.8898 64.296 79.4258 67.7472C78.5618 63.7104 76.1234 60.192 74.2466 56.5488Z" fill="white"/>
<path d="M74.2417 56.5391L74.2467 56.5491C74.2467 56.5491 74.2467 56.5391 74.2417 56.5391Z" fill="white"/>
<path d="M85.5552 63.3071C85.776 65.2271 86.3328 67.2287 87.1056 69.0431C86.592 67.1807 86.0304 65.2175 85.5552 63.3071Z" fill="white"/>
<path d="M72.408 68.6592C72.4656 68.6352 72.5952 68.6448 72.6096 68.6064C72.3792 68.6352 72.1296 68.664 71.8944 68.6976C69.5472 69.0528 67.152 69.0576 64.7808 69.24C65.3904 69.384 66.12 69.4128 66.7776 69.4416C68.688 69.504 70.56 69.0817 72.408 68.6641V68.6592Z" fill="white"/>
<path d="M83.4718 76.416C84.475 76.3008 85.5406 76.2144 86.5102 76.0752C83.7214 75.6336 80.8606 75.7968 78.115 76.4352C76.7038 76.7904 75.2254 77.2272 73.9102 77.7648C76.9918 76.7616 80.2654 76.7376 83.4718 76.416Z" fill="white"/>
<path d="M114.024 39.5664C115.267 38.904 116.583 38.1696 117.984 37.896C114.197 38.592 110.309 40.5936 107.986 43.7856C109.738 42.1008 111.85 40.7088 114.019 39.5616L114.024 39.5664Z" fill="white"/>
<path d="M106.699 45.5186C105.336 46.3538 104.294 47.8946 103.713 49.421C104.616 48.1106 105.408 46.5458 106.699 45.5186Z" fill="white"/>
<path d="M114.605 45.7249C109.977 47.2321 106.195 51.5473 104.76 56.1265C104.76 56.1265 104.76 56.1265 104.765 56.1265C104.769 56.1265 104.774 56.1169 104.769 56.1121C106.349 52.0705 109.8 48.9169 113.333 46.5025C113.731 46.2193 114.221 45.9697 114.6 45.7153L114.605 45.7249Z" fill="white"/>
<path d="M110.765 50.8992C113.851 48.2928 117.374 46.176 121.09 44.5776C117.034 45.2496 113.674 48.1296 110.755 50.8944C110.75 50.904 110.76 50.904 110.765 50.904V50.8992Z" fill="white"/>
<path d="M95.6353 44.1743C97.6945 45.3743 99.7632 46.7759 101.712 48.2015C100.21 46.2527 97.8433 45.1823 95.6353 44.1743Z" fill="white"/>
<path d="M98.6162 57.3408C100.445 58.2432 102.221 59.568 104.136 60.4272C102.643 58.9584 100.531 58.1088 98.6162 57.3408Z" fill="white"/>
<path d="M198.101 155.813C200.669 155.314 203.352 155.424 205.915 155.914C203.477 155.179 200.529 154.925 198.101 155.813Z" fill="white"/>
<path d="M197.419 154.521C199.522 153.629 201.989 153.71 204.283 153.633C205.239 153.595 206.256 153.648 207.173 153.633C203.971 152.769 200.419 153.12 197.424 154.517L197.419 154.521Z" fill="white"/>
<path d="M203.155 164.366C199.253 167.141 195.221 172.478 195.273 177.432C196.689 172.762 199.377 168.341 202.747 164.774C202.977 164.554 203.251 164.338 203.491 164.15C203.371 164.198 203.265 164.294 203.155 164.362V164.366Z" fill="white"/>
<path d="M201.417 171.365C200.213 172.838 199.243 174.902 198.95 176.87C199.656 175.032 200.309 173.035 201.417 171.365Z" fill="white"/>
<path d="M188.328 172.128C187.411 173.395 187.061 175.147 187.205 176.731C187.747 175.291 187.637 173.534 188.328 172.128Z" fill="white"/>
<path d="M50.7983 138.077C51.3311 141.067 52.4975 144.019 54.6239 146.232C53.1407 143.683 51.5615 140.947 50.7983 138.077Z" fill="white"/>
<path d="M73.853 152.323C72.029 150.029 70.2386 147.49 69.0386 144.807C70.0562 147.629 71.5346 150.365 73.853 152.323Z" fill="white"/>
<path d="M69.0288 144.792C69.0288 144.792 69.0338 144.802 69.0388 144.807C69.0388 144.807 69.0388 144.797 69.0338 144.792H69.0288Z" fill="white"/>
<path d="M77.957 138.562C77.981 138.696 77.9858 138.835 78.0002 138.974C78.3266 144.259 80.3186 149.64 84.3218 153.23C81.557 149.054 79.0706 144.379 78.1106 139.378C78.053 139.123 78.0434 138.782 77.9618 138.562H77.957Z" fill="white"/>
<path d="M54.8784 160.79C55.584 160.958 56.5728 160.833 57.36 160.733C58.3632 160.574 59.3952 160.214 60.2832 159.811C58.4928 160.185 56.7264 160.857 54.8784 160.795V160.79Z" fill="white"/>
<path d="M61.9922 158.981C63.7154 158.611 65.5442 157.699 66.6098 156.25C65.093 157.19 63.6578 158.294 61.9922 158.981Z" fill="white"/>
<path d="M60.6334 154.584C57.3838 156.163 53.6926 156.854 50.083 156.658C51.4078 157.032 52.9294 157.09 54.3262 156.883C56.515 156.533 58.795 155.693 60.6334 154.584Z" fill="white"/>
<path d="M60.6382 154.585L60.6439 154.579L60.6382 154.585Z" fill="white"/>
<path d="M56.8704 153.528C54.7056 154.166 52.4832 154.637 50.2656 155.021C50.9808 155.021 51.8016 154.867 52.5504 154.771C54.024 154.55 55.584 154.233 56.8752 153.528H56.8704Z" fill="white"/>
<path d="M78.0626 160.061C76.733 161.419 75.3794 162.859 73.8242 163.915C75.4802 162.984 77.1506 161.731 78.0626 160.061Z" fill="white"/>
<path d="M106.368 200.146C107.655 203.534 109.738 206.678 112.762 208.747C110.117 206.318 107.808 203.381 106.354 200.04C106.306 199.896 106.339 200.093 106.368 200.146Z" fill="white"/>
<path d="M99.432 203.621C99.408 203.688 99.504 203.808 99.5376 203.894C101.626 207.883 103.786 212.174 107.534 214.862C104.578 211.411 101.698 207.729 99.4704 203.707C99.456 203.678 99.4368 203.645 99.432 203.621Z" fill="white"/>
<path d="M121.229 198.399C119.323 194.477 116.093 191.295 113.467 187.853C115.733 191.506 118.253 195.202 121.229 198.399Z" fill="white"/>
<path d="M96.979 210.729C98.1934 213.062 99.2734 215.707 100.464 218.136C100.075 215.429 98.539 212.937 96.979 210.729Z" fill="white"/>
<path d="M94.5362 198.178C92.4002 200.856 90.1538 203.611 88.1426 206.439C90.797 204.168 92.5538 201.039 94.5362 198.178Z" fill="white"/>
<path d="M94.5648 179.746C94.752 179.621 94.4688 179.765 94.3872 179.827C90.8832 182.074 87.5376 185.011 86.1792 189.062C88.2576 185.458 91.1328 182.174 94.5648 179.746Z" fill="white"/>
</g>
</svg>
