<svg width="24" height="24" viewBox="0 0 24 24" fill="none" xmlns="http://www.w3.org/2000/svg">
<path fill-rule="evenodd" clip-rule="evenodd" d="M8.875 17.8926C8.27344 17.8926 7.75 18.4002 7.75 19.0711C7.75 19.742 8.27344 20.2496 8.875 20.2496C9.47656 20.2496 10 19.742 10 19.0711C10 18.4002 9.47656 17.8926 8.875 17.8926ZM6.25 19.0711C6.25 17.6118 7.40549 16.3926 8.875 16.3926C10.3445 16.3926 11.5 17.6118 11.5 19.0711C11.5 20.5304 10.3445 21.7496 8.875 21.7496C7.40549 21.7496 6.25 20.5304 6.25 19.0711Z" fill="#080808"/>
<path fill-rule="evenodd" clip-rule="evenodd" d="M16.3755 17.8926C15.7739 17.8926 15.2505 18.4002 15.2505 19.0711C15.2505 19.742 15.7739 20.2496 16.3755 20.2496C16.977 20.2496 17.5005 19.742 17.5005 19.0711C17.5005 18.4002 16.977 17.8926 16.3755 17.8926ZM13.7505 19.0711C13.7505 17.6118 14.906 16.3926 16.3755 16.3926C17.845 16.3926 19.0005 17.6118 19.0005 19.0711C19.0005 20.5304 17.845 21.7496 16.3755 21.7496C14.906 21.7496 13.7505 20.5304 13.7505 19.0711Z" fill="#080808"/>
<path fill-rule="evenodd" clip-rule="evenodd" d="M1.875 3C1.875 2.58579 2.21079 2.25 2.625 2.25H4.77856C5.41521 2.25 5.95014 2.72849 6.02083 3.3612L7.04587 12.5355H18.7729C18.8813 12.5355 18.9773 12.4656 19.0107 12.3625L20.8625 6.64844C20.9149 6.48695 20.7945 6.32137 20.6247 6.32137H8.875C8.46079 6.32137 8.125 5.98558 8.125 5.57137C8.125 5.15715 8.46079 4.82137 8.875 4.82137H20.6247C21.813 4.82137 22.6558 5.98043 22.2895 7.11088L20.4376 12.825C20.2038 13.5467 19.5315 14.0355 18.7729 14.0355H6.57908L5.5483 14.6413C5.47808 14.6826 5.45059 14.7267 5.43722 14.7629C5.42143 14.8058 5.41737 14.8623 5.43374 14.9225C5.45012 14.9826 5.48226 15.0293 5.51758 15.0582C5.54748 15.0827 5.59352 15.1068 5.67497 15.1068H18.25C18.6642 15.1068 19 15.4426 19 15.8568C19 16.271 18.6642 16.6068 18.25 16.6068H5.67497C3.89172 16.6068 3.25086 14.2517 4.78824 13.3481L5.57563 12.8853L4.55494 3.75H2.625C2.21079 3.75 1.875 3.41421 1.875 3Z" fill="#080808"/>
</svg>
