<svg width="16" height="16" viewBox="0 0 16 16" fill="none" xmlns="http://www.w3.org/2000/svg">
<path fill-rule="evenodd" clip-rule="evenodd" d="M7.96993 2.91848C6.77425 2.91848 5.80495 3.88777 5.80495 5.08346C5.80495 6.27915 6.77425 7.24844 7.96993 7.24844C9.16562 7.24844 10.1349 6.27915 10.1349 5.08346C10.1349 3.88777 9.16562 2.91848 7.96993 2.91848ZM4.88647 5.08346C4.88647 3.38051 6.26699 2 7.96993 2C9.67288 2 11.0534 3.38051 11.0534 5.08346C11.0534 6.78641 9.67288 8.16692 7.96993 8.16692C6.26699 8.16692 4.88647 6.78641 4.88647 5.08346Z" fill="#14142B"/>
<path fill-rule="evenodd" clip-rule="evenodd" d="M3.26112 11.1332C4.21465 10.1145 5.76541 9.34766 8.14505 9.34766C10.5247 9.34766 12.0755 10.1145 13.029 11.1332C13.9705 12.1391 14.2901 13.349 14.2901 14.1806C14.2901 14.4342 14.0845 14.6398 13.8309 14.6398H2.45924C2.20561 14.6398 2 14.4342 2 14.1806C2 13.349 2.3196 12.1391 3.26112 11.1332ZM2.95753 13.7214H13.3326C13.237 13.1319 12.9544 12.3976 12.3584 11.7609C11.6062 10.9572 10.3141 10.2661 8.14505 10.2661C5.97604 10.2661 4.6839 10.9572 3.93168 11.7609C3.33573 12.3976 3.0531 13.1319 2.95753 13.7214Z" fill="#14142B"/>
</svg>
