<svg width="32" height="32" viewBox="0 0 32 32" fill="none" xmlns="http://www.w3.org/2000/svg">
<path fill-rule="evenodd" clip-rule="evenodd" d="M14.1282 21.2255C13.7734 21.2255 13.4647 21.5248 13.4647 21.9205C13.4647 22.3162 13.7734 22.6155 14.1282 22.6155C14.483 22.6155 14.7917 22.3162 14.7917 21.9205C14.7917 21.5248 14.483 21.2255 14.1282 21.2255ZM12.5801 21.9205C12.5801 21.0599 13.2615 20.3408 14.1282 20.3408C14.9948 20.3408 15.6763 21.0599 15.6763 21.9205C15.6763 22.7811 14.9948 23.5002 14.1282 23.5002C13.2615 23.5002 12.5801 22.7811 12.5801 21.9205Z" fill="#14142B"/>
<path fill-rule="evenodd" clip-rule="evenodd" d="M18.551 21.2255C18.1963 21.2255 17.8876 21.5248 17.8876 21.9205C17.8876 22.3162 18.1963 22.6155 18.551 22.6155C18.9058 22.6155 19.2145 22.3162 19.2145 21.9205C19.2145 21.5248 18.9058 21.2255 18.551 21.2255ZM17.0029 21.9205C17.0029 21.0599 17.6844 20.3408 18.551 20.3408C19.4177 20.3408 20.0991 21.0599 20.0991 21.9205C20.0991 22.7811 19.4177 23.5002 18.551 23.5002C17.6844 23.5002 17.0029 22.7811 17.0029 21.9205Z" fill="#14142B"/>
<path fill-rule="evenodd" clip-rule="evenodd" d="M10 12.4423C10 12.198 10.198 12 10.4423 12H11.7124C12.0879 12 12.4033 12.2822 12.445 12.6553L13.0495 18.0659H19.9656C20.0295 18.0659 20.0862 18.0247 20.1059 17.9639L21.198 14.594C21.2289 14.4988 21.1579 14.4011 21.0577 14.4011H14.1283C13.884 14.4011 13.686 14.2031 13.686 13.9588C13.686 13.7145 13.884 13.5165 14.1283 13.5165H21.0577C21.7586 13.5165 22.2556 14.2 22.0395 14.8667L20.9474 18.2366C20.8095 18.6623 20.413 18.9505 19.9656 18.9505H12.7743L12.1663 19.3078C12.1249 19.3322 12.1087 19.3582 12.1008 19.3796C12.0915 19.4048 12.0891 19.4382 12.0988 19.4736C12.1084 19.5091 12.1274 19.5367 12.1482 19.5537C12.1659 19.5682 12.193 19.5824 12.2411 19.5824H19.6572C19.9015 19.5824 20.0996 19.7804 20.0996 20.0247C20.0996 20.269 19.9015 20.467 19.6572 20.467H12.2411C11.1894 20.467 10.8114 19.0781 11.7181 18.5452L12.1825 18.2722L11.5805 12.8846H10.4423C10.198 12.8846 10 12.6866 10 12.4423Z" fill="#14142B"/>
<path d="M3 13.3333C3 5.96954 8.96954 0 16.3333 0C23.6971 0 29.6667 5.96954 29.6667 13.3333V31C29.6667 31.5523 29.219 32 28.6667 32H4C3.44771 32 3 31.5523 3 31V13.3333Z" fill="black" fill-opacity="0.2"/>
</svg>
