<svg width="16" height="16" viewBox="0 0 16 16" fill="none" xmlns="http://www.w3.org/2000/svg">
<path fill-rule="evenodd" clip-rule="evenodd" d="M7.64024 2.91463C5.03036 2.91463 2.91463 5.03036 2.91463 7.64024C2.91463 10.2501 5.03036 12.3659 7.64024 12.3659C10.2501 12.3659 12.3659 10.2501 12.3659 7.64024C12.3659 5.03036 10.2501 2.91463 7.64024 2.91463ZM2 7.64024C2 4.52522 4.52522 2 7.64024 2C10.7553 2 13.2805 4.52522 13.2805 7.64024C13.2805 10.7553 10.7553 13.2805 7.64024 13.2805C4.52522 13.2805 2 10.7553 2 7.64024Z" fill="#C6B780"/>
<path fill-rule="evenodd" clip-rule="evenodd" d="M10.9753 10.9753C11.1538 10.7967 11.4434 10.7967 11.622 10.9753L14.3659 13.7192C14.5445 13.8977 14.5445 14.1873 14.3659 14.3659C14.1873 14.5445 13.8977 14.5445 13.7192 14.3659L10.9753 11.622C10.7967 11.4434 10.7967 11.1538 10.9753 10.9753Z" fill="#C6B780"/>
</svg>
