<svg width="16" height="16" viewBox="0 0 16 16" fill="none" xmlns="http://www.w3.org/2000/svg">
<path fill-rule="evenodd" clip-rule="evenodd" d="M7.97018 2.91848C6.77449 2.91848 5.8052 3.88777 5.8052 5.08346C5.8052 6.27915 6.77449 7.24844 7.97018 7.24844C9.16587 7.24844 10.1352 6.27915 10.1352 5.08346C10.1352 3.88777 9.16587 2.91848 7.97018 2.91848ZM4.88672 5.08346C4.88672 3.38051 6.26723 2 7.97018 2C9.67313 2 11.0536 3.38051 11.0536 5.08346C11.0536 6.78641 9.67313 8.16692 7.97018 8.16692C6.26723 8.16692 4.88672 6.78641 4.88672 5.08346Z" fill="white"/>
<path fill-rule="evenodd" clip-rule="evenodd" d="M3.26112 11.1335C4.21465 10.1147 5.76541 9.3479 8.14505 9.3479C10.5247 9.3479 12.0755 10.1147 13.029 11.1335C13.9705 12.1393 14.2901 13.3492 14.2901 14.1808C14.2901 14.4345 14.0845 14.6401 13.8309 14.6401H2.45924C2.20561 14.6401 2 14.4345 2 14.1808C2 13.3492 2.3196 12.1393 3.26112 11.1335ZM2.95753 13.7216H13.3326C13.237 13.1321 12.9544 12.3978 12.3584 11.7611C11.6062 10.9575 10.3141 10.2664 8.14505 10.2664C5.97604 10.2664 4.6839 10.9575 3.93168 11.7611C3.33573 12.3978 3.0531 13.1321 2.95753 13.7216Z" fill="white"/>
</svg>
