<svg width="32" height="32" viewBox="0 0 32 32" fill="none" xmlns="http://www.w3.org/2000/svg">
<rect width="32" height="32" fill="white"/>
<path fill-rule="evenodd" clip-rule="evenodd" d="M26.5 16.1207C25.7164 16.9043 26.5 16.1207 25.7164 16.9043L6.90813 16.9043C6.47533 16.9043 6.12448 16.5534 6.12448 16.1206C6.12448 15.6879 6.47533 15.337 6.90813 15.337L25.7164 15.337C26.5 16.1207 25.7164 15.337 26.5 16.1207Z" fill="#121212"/>
<path fill-rule="evenodd" clip-rule="evenodd" d="M11.5896 22.9922C10.4859 22.8918 11.5896 22.9922 10.4859 22.8919L7.95362 19.778C7.7518 19.5358 5.23742 16.121 5.23742 16.121C5.23742 16.121 7.7518 12.7062 7.95362 12.464L10.4859 9.35016C11.5896 9.24985 10.4859 9.35016 11.5896 9.24985C11.69 10.3535 11.5896 9.24985 11.6899 10.3535L6.88353 16.121L11.6899 21.8885C11.5896 22.9922 11.6899 21.8885 11.5896 22.9922Z" fill="#121212"/>
</svg>
