<svg width="57" height="56" viewBox="0 0 57 56" fill="none" xmlns="http://www.w3.org/2000/svg">
<path d="M23.5 14.6875V24.6562C23.5 25.2085 23.0523 25.6562 22.5 25.6562H5C4.44772 25.6562 4 25.2085 4 24.6562V14.6875H23.5Z" fill="#CCEED7" stroke="#121212" stroke-width="2.5" stroke-linecap="square"/>
<path d="M21.875 26.0625V34C21.875 34.5523 21.4273 35 20.875 35H6.625C6.07272 35 5.625 34.5523 5.625 34V26.0625H21.875Z" fill="#CCEED7" stroke="#121212" stroke-width="2.5" stroke-linecap="square"/>
<path d="M9.6875 14.6875V9" stroke="#121212" stroke-width="2.5" stroke-linecap="square"/>
<path d="M17.8125 14.6875V9" stroke="#121212" stroke-width="2.5" stroke-linecap="square"/>
<path d="M7.25 22H14.1562" stroke="#121212" stroke-width="2.5" stroke-linecap="square"/>
<path d="M52.5 14.6875V24.6562C52.5 25.2085 52.0523 25.6562 51.5 25.6562H34C33.4477 25.6562 33 25.2085 33 24.6562V14.6875H52.5Z" fill="#CCEED7" stroke="#121212" stroke-width="2.5" stroke-linecap="square"/>
<path d="M50.875 26.0625V34C50.875 34.5523 50.4273 35 49.875 35H35.625C35.0727 35 34.625 34.5523 34.625 34V26.0625H50.875Z" fill="#CCEED7" stroke="#121212" stroke-width="2.5" stroke-linecap="square"/>
<path d="M38.6875 14.6875V9" stroke="#121212" stroke-width="2.5" stroke-linecap="square"/>
<path d="M46.8125 14.6875V9" stroke="#121212" stroke-width="2.5" stroke-linecap="square"/>
<path d="M36.25 22H43.1562" stroke="#121212" stroke-width="2.5" stroke-linecap="square"/>
<path d="M40 22V34.5C40 35.0523 39.5523 35.5 39 35.5H17C16.4477 35.5 16 35.0523 16 34.5V22H40Z" fill="#98DDAE" stroke="#121212" stroke-width="2.5" stroke-linecap="square"/>
<path d="M38 36V46C38 46.5523 37.5523 47 37 47H19C18.4477 47 18 46.5523 18 46V36H38Z" fill="#98DDAE" stroke="#121212" stroke-width="2.5" stroke-linecap="square"/>
<path d="M23 22V15" stroke="#121212" stroke-width="2.5" stroke-linecap="square"/>
<path d="M33 22V15" stroke="#121212" stroke-width="2.5" stroke-linecap="square"/>
<path d="M20 31H28.5" stroke="#121212" stroke-width="2.5" stroke-linecap="square"/>
</svg>
