<svg width="57" height="56" viewBox="0 0 57 56" fill="none" xmlns="http://www.w3.org/2000/svg">
<g clip-path="url(#clip0_365_112235)">
<path d="M10.0402 21.295C10.0402 23.8051 8.00533 25.84 5.4952 25.84C2.98506 25.84 0.950195 23.8051 0.950195 21.295C0.950195 18.7849 2.98506 16.75 5.4952 16.75C8.00533 16.75 10.0402 18.7849 10.0402 21.295Z" fill="#E6CCFF" stroke="#121212" stroke-width="1.5"/>
<path d="M24.9911 21.295C24.9911 23.8051 22.9563 25.84 20.4461 25.84C17.936 25.84 15.9011 23.8051 15.9011 21.295C15.9011 18.7849 17.936 16.75 20.4461 16.75C22.9563 16.75 24.9911 18.7849 24.9911 21.295Z" fill="#E6CCFF" stroke="#121212" stroke-width="1.5"/>
<path d="M12.9698 19.8311L15.5239 21.1081L12.9698 22.3851L10.4158 21.1081L12.9698 19.8311Z" fill="#121212"/>
<path d="M40.3 21.295C40.3 23.8051 38.2651 25.84 35.755 25.84C33.2448 25.84 31.21 23.8051 31.21 21.295C31.21 18.7849 33.2448 16.75 35.755 16.75C38.2651 16.75 40.3 18.7849 40.3 21.295Z" fill="#E6CCFF" stroke="#121212" stroke-width="1.5"/>
<path d="M55.2509 21.295C55.2509 23.8051 53.216 25.84 50.7059 25.84C48.1958 25.84 46.1609 23.8051 46.1609 21.295C46.1609 18.7849 48.1958 16.75 50.7059 16.75C53.216 16.75 55.2509 18.7849 55.2509 21.295Z" fill="#E6CCFF" stroke="#121212" stroke-width="1.5"/>
<path d="M43.2296 19.8311L45.7837 21.1081L43.2296 22.3851L40.6755 21.1081L43.2296 19.8311Z" fill="#121212"/>
<circle cx="16.0925" cy="31.2927" r="7.29268" fill="#CC99FE" stroke="#121212" stroke-width="2"/>
<circle cx="39.507" cy="31.2927" r="7.29268" fill="#CC99FE" stroke="#121212" stroke-width="2"/>
<path d="M27.7998 29L31.7998 31L27.7998 33L23.7998 31L27.7998 29Z" fill="#121212"/>
</g>
<defs>
<clipPath id="clip0_365_112235">
<rect width="56" height="56" fill="white" transform="translate(0.200195)"/>
</clipPath>
</defs>
</svg>
