<svg width="302" height="302" viewBox="0 0 302 302" fill="none" xmlns="http://www.w3.org/2000/svg">
<g opacity="0.25" filter="url(#filter0_f_215_272911)">
<circle cx="151" cy="151" r="60" fill="#C6B780"/>
</g>
<g clip-path="url(#clip0_215_272911)">
<path d="M150.4 176V149.722M150.4 138.972C150.665 137.38 152.231 134.194 156.372 134.194C156.372 134.194 156.505 140.83 156.372 144.148C156.106 146.006 154.54 149.722 150.4 149.722M150.4 138.972V149.722M150.4 138.972C150.4 137.38 147.613 134.194 144.029 134.194C144.029 135.389 144.029 137.778 144.029 142.555C144.029 147.333 147.214 149.722 150.4 149.722" stroke="#ADA071" stroke-width="0.7" stroke-linecap="round"/>
<path d="M156.372 135.787C154.912 136.185 151.992 137.937 151.992 141.759C151.992 145.582 151.992 148.395 151.992 149.324" stroke="#ADA071" stroke-width="0.7" stroke-linecap="round"/>
<path d="M144.029 135.787C145.489 136.185 148.409 137.937 148.409 141.759C148.409 145.582 148.409 148.395 148.409 149.324" stroke="#ADA071" stroke-width="0.7" stroke-linecap="round"/>
<path d="M156.372 138.176C155.576 138.574 153.983 140.246 153.983 143.75C153.983 147.254 153.983 148.395 153.983 148.528" stroke="#ADA071" stroke-width="0.7" stroke-linecap="round"/>
<path d="M144.03 138.176C144.826 138.574 146.418 140.246 146.418 143.75C146.418 147.254 146.418 147.997 146.418 148.129" stroke="#ADA071" stroke-width="0.7" stroke-linecap="round"/>
<path d="M148.409 135.787C149.603 134.593 150.798 134.593 151.992 135.787" stroke="#ADA071" stroke-width="0.7" stroke-linecap="round"/>
<path d="M146.816 134.593C148.939 132.469 151.461 132.469 153.584 134.593" stroke="#ADA071" stroke-width="0.7" stroke-linecap="round"/>
<path d="M150.4 166.046L161.946 156.889" stroke="#ADA071" stroke-width="0.7" stroke-linecap="round"/>
<path d="M150.4 162.065L138.456 152.907" stroke="#ADA071" stroke-width="0.7" stroke-linecap="round"/>
<path d="M152.391 164.454H160.354" stroke="#ADA071" stroke-width="0.7" stroke-linecap="round"/>
<path d="M140.048 160.233H148.011" stroke="#ADA071" stroke-width="0.7" stroke-linecap="round"/>
<path d="M155.178 162.065V155.694" stroke="#ADA071" stroke-width="0.7" stroke-linecap="round"/>
<path d="M145.224 158.083V151.713" stroke="#ADA071" stroke-width="0.7" stroke-linecap="round"/>
<path d="M144.428 160.104C142.835 162.282 140.844 162.68 138.456 160.104C140.446 157.317 142.835 157.504 144.428 160.104Z" stroke="#ADA071" stroke-width="0.7" stroke-linecap="round"/>
<path d="M145.194 155.694C143.016 154.102 142.618 152.111 145.194 149.722C147.981 151.713 147.794 154.102 145.194 155.694Z" stroke="#ADA071" stroke-width="0.7" stroke-linecap="round"/>
<path d="M141.445 155.126C138.723 155.959 136.789 155.036 136.399 151.35C139.843 150.254 141.743 151.922 141.445 155.126Z" stroke="#ADA071" stroke-width="0.7" stroke-linecap="round"/>
<path d="M158.844 159.266C161.566 160.099 163.5 159.177 163.89 155.491C160.446 154.394 158.546 156.062 158.844 159.266Z" stroke="#ADA071" stroke-width="0.7" stroke-linecap="round"/>
<path d="M155.148 159.676C152.97 158.083 152.572 156.093 155.148 153.704C157.935 155.694 157.748 158.083 155.148 159.676Z" stroke="#ADA071" stroke-width="0.7" stroke-linecap="round"/>
<path d="M155.974 164.484C157.566 166.661 159.557 167.059 161.946 164.484C159.955 161.697 157.566 161.883 155.974 164.484Z" stroke="#ADA071" stroke-width="0.7" stroke-linecap="round"/>
<path d="M127.5 155.5C127.5 158.973 126.559 162.05 125.116 164.214C123.666 166.389 121.828 167.5 120 167.5C118.172 167.5 116.334 166.389 114.884 164.214C113.441 162.05 112.5 158.973 112.5 155.5C112.5 152.027 113.441 148.95 114.884 146.786C116.334 144.611 118.172 143.5 120 143.5C121.828 143.5 123.666 144.611 125.116 146.786C126.559 148.95 127.5 152.027 127.5 155.5Z" stroke="#D8CDA7" stroke-width="3"/>
<path d="M188.5 155.5C188.5 158.973 187.559 162.05 186.116 164.214C184.666 166.389 182.828 167.5 181 167.5C179.172 167.5 177.334 166.389 175.884 164.214C174.441 162.05 173.5 158.973 173.5 155.5C173.5 152.027 174.441 148.95 175.884 146.786C177.334 144.611 179.172 143.5 181 143.5C182.828 143.5 184.666 144.611 186.116 146.786C187.559 148.95 188.5 152.027 188.5 155.5Z" stroke="#D8CDA7" stroke-width="3"/>
<path d="M119.826 143.19C119.826 117 146.891 117 149.597 117C152.304 117 181.174 117 181.174 143.19" stroke="#D8CDA7" stroke-width="3" stroke-linejoin="round"/>
<path d="M156 185.75C155.31 185.75 154.75 186.31 154.75 187C154.75 187.69 155.31 188.25 156 188.25V185.75ZM156 188.25C161.538 188.25 166.488 187.61 169.876 183.073C173.147 178.694 174.75 170.933 174.75 157.5H172.25C172.25 170.934 170.603 177.922 167.874 181.577C165.262 185.073 161.462 185.75 156 185.75V188.25Z" fill="#D8CDA7"/>
<rect width="18.3071" height="5.08003" rx="2.54001" transform="matrix(1 0 0.0169167 0.999857 144 184)" fill="#D8CDA7"/>
</g>
<defs>
<filter id="filter0_f_215_272911" x="0" y="0" width="302" height="302" filterUnits="userSpaceOnUse" color-interpolation-filters="sRGB">
<feFlood flood-opacity="0" result="BackgroundImageFix"/>
<feBlend mode="normal" in="SourceGraphic" in2="BackgroundImageFix" result="shape"/>
<feGaussianBlur stdDeviation="45.5" result="effect1_foregroundBlur_215_272911"/>
</filter>
<clipPath id="clip0_215_272911">
<rect width="96" height="96" fill="white" transform="translate(103 103)"/>
</clipPath>
</defs>
</svg>
