<svg width="32" height="32" viewBox="0 0 32 32" fill="none" xmlns="http://www.w3.org/2000/svg">
<g clip-path="url(#clip0_342_66803)">
<path d="M12.59 16.295C12.59 19.2193 10.2193 21.59 7.295 21.59C4.37065 21.59 2 19.2193 2 16.295C2 13.3707 4.37065 11 7.295 11C10.2193 11 12.59 13.3707 12.59 16.295Z" fill="#DCB8FF" stroke="#121212" stroke-width="2"/>
<path d="M30.3642 16.295C30.3642 19.2193 27.9935 21.59 25.0692 21.59C22.1448 21.59 19.7742 19.2193 19.7742 16.295C19.7742 13.3707 22.1448 11 25.0692 11C27.9935 11 30.3642 13.3707 30.3642 16.295Z" fill="#DCB8FF" stroke="#121212" stroke-width="2"/>
<path d="M16.0364 15L19.0728 16.5182L16.0364 18.0364L13 16.5182L16.0364 15Z" fill="#121212"/>
</g>
<defs>
<clipPath id="clip0_342_66803">
<rect width="32" height="32" fill="white"/>
</clipPath>
</defs>
</svg>
