<svg width="32" height="32" viewBox="0 0 32 32" fill="none" xmlns="http://www.w3.org/2000/svg">
<rect x="32" y="32" width="32" height="32" transform="rotate(-180 32 32)" fill="white"/>
<path fill-rule="evenodd" clip-rule="evenodd" d="M5.5 15.8793C6.28365 15.0957 5.5 15.8793 6.28365 15.0957L25.0919 15.0957C25.5247 15.0957 25.8755 15.4466 25.8755 15.8794C25.8755 16.3121 25.5247 16.663 25.0919 16.663L6.28365 16.663C5.5 15.8793 6.28365 16.663 5.5 15.8793Z" fill="#121212"/>
<path fill-rule="evenodd" clip-rule="evenodd" d="M20.4104 9.00781C21.5141 9.10821 20.4104 9.00777 21.5141 9.10813L24.0464 12.222C24.2482 12.4642 26.7626 15.879 26.7626 15.879C26.7626 15.879 24.2482 19.2938 24.0464 19.536L21.5141 22.6498C20.4104 22.7502 21.5141 22.6498 20.4104 22.7502C20.31 21.6465 20.4104 22.7502 20.3101 21.6465L25.1165 15.879L20.3101 10.1115C20.4104 9.00781 20.3101 10.1115 20.4104 9.00781Z" fill="#121212"/>
</svg>
