<svg width="72" height="72" viewBox="0 0 72 72" fill="none" xmlns="http://www.w3.org/2000/svg">
<g clip-path="url(#clip0_86_145017)">
<path d="M29.661 12.7261C28.521 12.7261 28.44 12.7351 27.813 13.0441C27.2106 13.3533 26.6847 13.7931 26.2737 14.3313C25.8627 14.8694 25.5769 15.4925 25.437 16.1551C25.287 16.9321 25.299 38.2381 25.446 38.9341C25.785 40.5151 27.006 41.8141 28.557 42.2341C30.795 42.8491 33.09 41.5591 33.795 39.3031C33.975 38.7271 33.984 38.2081 33.984 27.4831C33.984 16.6021 33.975 16.2541 33.786 15.6481C33.6103 15.0636 33.3095 14.5244 32.9043 14.068C32.4992 13.6116 31.9995 13.2489 31.44 13.0051C30.903 12.7471 30.756 12.7261 29.661 12.7261ZM42.384 16.8601C39.639 16.8421 37.515 19.4821 38.208 22.1701C38.439 23.0101 38.817 23.6491 39.471 24.2551C40.146 24.8821 40.983 25.3081 41.736 25.3981C43.647 25.6261 45.414 24.7111 46.251 23.0521C47.622 20.3311 45.732 17.0881 42.651 16.8721C42.5622 16.8661 42.4731 16.8601 42.384 16.8601ZM55.107 16.8901C54.531 16.8901 53.958 16.9711 53.565 17.1301C52.431 17.5771 51.486 18.5401 51.06 19.6831L50.832 20.2801V31.9081C50.832 44.9761 50.781 44.1211 51.588 45.8521C52.758 48.4051 55.164 50.2831 57.819 50.7421C58.077 50.7811 60.681 50.8111 63.603 50.8111L68.919 50.7901L69.594 50.4721C70.4948 50.0144 71.2338 49.292 71.712 48.4021C71.982 47.8381 72 47.7391 72 46.5661C72 45.4021 71.979 45.2851 71.721 44.7571C71.2845 43.8718 70.5686 43.1549 69.684 42.7171L68.928 42.3421L64.647 42.2911C59.946 42.2431 60.063 42.2521 59.658 41.6251C59.487 41.3791 59.478 40.6711 59.427 30.7651L59.379 20.1781L59.151 19.6321C58.9244 19.0732 58.5889 18.565 58.164 18.137C57.7391 17.709 57.2333 17.3698 56.676 17.1391C56.172 16.9634 55.6407 16.8791 55.107 16.8901ZM17.055 21.0991C15.9947 21.0767 14.9637 21.4478 14.1609 22.1409C13.3582 22.834 12.8406 23.7998 12.708 24.8521C12.666 25.2421 12.627 28.1431 12.618 31.3141C12.618 36.9211 12.609 37.0891 12.42 37.4041C12.051 38.0131 11.952 38.0221 7.62005 38.0221C3.40505 38.0221 3.22505 38.0431 2.16005 38.5801C1.51805 38.9101 0.750048 39.7201 0.363048 40.5001C0.0750476 41.0851 0.0450476 41.2531 0.0150476 42.1861C-0.0239524 43.1401 -0.00595237 43.2811 0.264048 43.9261C0.762048 45.1681 1.97405 46.2031 3.32405 46.5301C3.69305 46.6291 5.09405 46.6501 8.94005 46.6291C13.839 46.6081 14.088 46.5991 14.814 46.3891C17.388 45.6571 19.296 44.0851 20.43 41.7511C21.264 40.0291 21.264 40.0801 21.264 31.8901C21.264 25.2301 21.255 24.6871 21.084 24.1381C20.8157 23.2731 20.2824 22.5144 19.5594 21.9691C18.8365 21.4238 17.9604 21.1194 17.055 21.0991ZM42.273 29.5771C41.6237 29.5957 40.9865 29.7576 40.407 30.0511C39.381 30.5611 38.439 31.7911 38.169 32.9641C38.1 33.2341 38.061 35.7361 38.061 39.4651C38.061 45.2971 38.052 45.5371 37.86 45.8431C37.485 46.4731 37.464 46.4731 33.321 46.4731C31.251 46.4731 29.304 46.5091 28.986 46.5691C26.7 46.9381 25.032 49.2331 25.428 51.4501C25.578 52.3141 26.076 53.2801 26.661 53.8561C27.198 54.3721 27.684 54.6601 28.521 54.9271C29.025 55.0981 29.481 55.1071 34.281 55.0861C40.227 55.0561 40.227 55.0561 41.985 54.1741C43.695 53.3191 44.949 52.0441 45.813 50.2981C46.707 48.4981 46.707 48.5371 46.707 40.3381C46.707 33.6781 46.698 33.2311 46.518 32.6671C46.2477 31.7575 45.6855 30.9622 44.9184 30.4038C44.1512 29.8454 43.2217 29.5549 42.273 29.5771ZM50.802 50.7571C50.0034 50.7588 49.2216 50.9872 48.5477 51.4158C47.8737 51.8444 47.3353 52.4555 46.995 53.1781C46.665 53.8561 46.656 53.9041 46.656 55.0681C46.656 56.2201 46.665 56.2801 46.986 56.8861C47.553 57.9691 48.207 58.5751 49.38 59.0611C49.866 59.2621 50.076 59.2921 50.979 59.2711C51.945 59.2411 52.083 59.2111 52.719 58.9021C54.678 57.9421 55.629 55.7221 54.957 53.7151C54.6734 52.8415 54.1163 52.0824 53.3681 51.5498C52.62 51.0171 51.7203 50.7392 50.802 50.7571Z" fill="#ADA071"/>
</g>
<defs>
<clipPath id="clip0_86_145017">
<rect width="72" height="72" fill="white"/>
</clipPath>
</defs>
</svg>
