<svg width="73" height="72" viewBox="0 0 73 72" fill="none" xmlns="http://www.w3.org/2000/svg">
<path d="M56.9535 34.8268C54.299 37.7211 51.0706 40.0323 47.4737 41.6133C43.8768 43.1944 39.9899 44.0109 36.06 44.0109C32.1301 44.0109 28.2433 43.1944 24.6463 41.6133C21.0494 40.0323 17.8211 37.7211 15.1665 34.8268C14.9119 34.5464 14.7759 34.1784 14.7871 33.8C14.7983 33.4216 14.9558 33.0623 15.2265 32.7973L18.8531 29.1665C18.9956 29.0238 19.166 28.9119 19.3536 28.8376C19.5413 28.7633 19.7422 28.7283 19.9439 28.7347C20.1456 28.7412 20.3439 28.7889 20.5264 28.8749C20.7089 28.961 20.8718 29.0835 21.005 29.235C22.8895 31.3544 25.2037 33.0492 27.7941 34.2069C30.3846 35.3646 33.1919 35.9588 36.0298 35.9498C38.8677 35.9409 41.6713 35.3292 44.2544 34.1553C46.8375 32.9813 49.141 31.272 51.0121 29.1408C51.144 28.9876 51.3062 28.8634 51.4884 28.7759C51.6707 28.6883 51.8691 28.6394 52.0712 28.6322C52.2733 28.6249 52.4748 28.6595 52.6628 28.7338C52.8509 28.8081 53.0216 28.9204 53.1641 29.0637L56.8678 32.7631C57.1372 33.0305 57.2935 33.391 57.3047 33.7702C57.3159 34.1494 57.181 34.5184 56.9278 34.8011M45.4222 0H3.72946C2.74035 0 1.79174 0.392477 1.09233 1.09105C0.392924 1.78963 0 2.73709 0 3.72503V68.2835C0 69.2692 0.39202 70.2145 1.08982 70.9115C1.78762 71.6085 2.73405 72 3.72089 72H45.4222C48.9161 72 52.3756 71.312 55.603 69.9752C58.8304 68.6385 61.7622 66.6793 64.2307 64.2097C66.6992 61.7401 68.656 58.8086 69.9892 55.583C71.3223 52.3573 72.0056 48.9007 72 45.411V26.5718C72 19.5314 69.1998 12.7793 64.2155 7.80089C59.2312 2.82253 52.4711 0.0256888 45.4222 0.0256888" fill="#ADA071"/>
</svg>
