<svg width="72" height="72" viewBox="0 0 72 72" fill="none" xmlns="http://www.w3.org/2000/svg">
<path d="M7.2593 54.9037C6.88317 54.7752 6.5579 54.5286 6.33136 54.2C6.10481 53.8714 5.98896 53.4782 6.00083 53.0784C6.00083 52.3127 6.25504 51.9274 7.26686 51.1541C11.9383 47.5922 15.3312 42.973 16.9521 37.9635C17.4125 36.5975 17.7214 35.1844 17.8733 33.75C17.9966 32.5711 18.276 32.0565 18.9883 31.7041C19.2372 31.5692 19.5195 31.5094 19.8013 31.5317C20.1102 31.5075 20.4187 31.583 20.6822 31.7472C21.3895 32.1097 21.7443 32.7258 21.7443 33.5852C21.7443 34.4244 21.4473 36.2041 21.0698 37.6415C19.4011 43.9491 15.5627 49.5899 9.91972 54.0189C9.55606 54.3141 9.1707 54.581 8.76696 54.8175C8.29071 55.0265 7.75597 55.0571 7.2593 54.9037ZM27.1281 54.929C26.7599 54.8192 26.4396 54.5869 26.2195 54.2699C25.9502 53.9436 25.8119 53.5276 25.8319 53.1037C25.8149 52.7141 25.9206 52.329 26.1339 52.0034C26.2044 51.9071 26.7053 51.4584 27.2489 51.0096C29.8766 48.842 31.9053 46.8671 33.5539 44.8694C34.2183 44.0632 34.8828 43.1733 34.8425 43.1454C34.6805 43.042 34.5177 42.9398 34.3543 42.8387C33.7049 42.4381 33.2468 42.0452 32.9196 41.6066C31.5227 39.7305 31.7417 37.4742 33.574 34.906C35.0691 32.8094 36.7605 31.4151 38.5425 30.8142C38.8646 30.7052 39.0987 30.6723 39.5442 30.6723C40.0778 30.6723 40.1583 30.6875 40.5334 30.8751C41.3061 31.2554 41.7088 31.8207 41.9328 32.8297C42.114 33.646 42.1266 35.6818 41.958 36.6274C41.7322 37.8154 41.4028 38.9811 40.9738 40.1108C40.9361 40.2021 40.9688 40.2173 41.2004 40.2173C41.3463 40.2173 41.6987 40.1894 41.9806 40.1539C45.4238 39.7356 47.7042 37.9686 48.7638 34.9035C49.023 34.1506 49.1489 33.5852 49.2621 32.6548C49.31 32.2593 49.3955 31.8435 49.4509 31.7345C49.648 31.3309 49.9743 31.0058 50.3772 30.8117C50.7281 30.6246 51.1305 30.5595 51.5219 30.6264C51.9133 30.6933 52.2718 30.8886 52.5417 31.1818C53.0904 31.7446 53.2112 32.2948 53.0451 33.4914C52.7683 35.4967 51.9956 37.5553 50.9359 39.1145C49.8911 40.6818 48.4519 41.9416 46.7653 42.7652C44.7996 43.7488 43.1334 44.1012 40.4075 44.1114L38.8621 44.119L38.3034 44.9201C36.7038 47.1815 34.8788 49.2721 32.8567 51.1592C31.0772 52.8375 29.0309 54.564 28.5099 54.8302C28.0714 55.0102 27.5874 55.0449 27.1281 54.929ZM36.987 39.5353C37.2387 39.0384 37.664 37.8621 37.8352 37.1903C38.0265 36.4373 38.1775 35.5677 38.1246 35.517C38.0642 35.4536 37.1732 36.4246 36.7655 36.995C36.2722 37.6872 35.882 38.4604 35.8393 38.8331C35.8141 39.0739 35.8292 39.1424 35.9525 39.2767C36.0608 39.3959 36.69 39.7533 36.8435 39.7838C36.8989 39.7056 36.947 39.6225 36.987 39.5353ZM40.0879 50.8778C39.804 50.7923 39.5415 50.6468 39.318 50.4509C39.0945 50.255 38.915 50.0134 38.7916 49.742C38.5932 49.2196 38.6067 48.6395 38.8294 48.1271C39.0381 47.7076 39.3851 47.3742 39.811 47.184C40.0526 47.075 40.3194 47.0268 41.004 46.9711C43.0302 46.7936 45.0451 46.5041 47.0397 46.104C48.1371 45.8758 48.5826 45.8708 49.013 46.0685C49.4433 46.2516 49.7887 46.5922 49.9795 47.0218C50.1312 47.2848 50.1997 47.5881 50.1758 47.8913C50.1758 48.4567 49.9744 48.9232 49.5894 49.2756C49.1917 49.6355 48.8091 49.7699 47.3442 50.064C45.2023 50.495 43.4253 50.7485 41.5301 50.9006C40.5686 50.9767 40.4402 50.9767 40.0879 50.8778ZM53.2742 48.0891C52.9635 47.9916 52.6828 47.8155 52.4589 47.5776C52.2351 47.3397 52.0755 47.0479 51.9956 46.7302C51.9025 46.392 51.906 46.0341 52.0057 45.6978C52.1054 45.3614 52.2973 45.0602 52.5593 44.8288C52.8614 44.5499 52.9621 44.5043 54.1828 44.0911C58.9902 42.4609 61.7286 40.8105 62.3427 39.1753C62.8788 37.7404 62.3578 35.6843 60.8426 33.248C60.3493 32.4621 60.2461 32.1579 60.2839 31.6382C60.3105 31.2958 60.4249 30.9663 60.6159 30.6818C60.807 30.3974 61.0681 30.1679 61.3737 30.0156C61.5902 29.899 61.7311 29.8737 62.1842 29.8737C63.0726 29.8737 63.4477 30.1272 64.1373 31.192C65.1542 32.7587 65.9042 34.4877 66.2415 36.052C66.4177 36.8581 66.4605 38.2221 66.3396 39.0207C65.7557 42.8539 62.6297 45.3587 55.3355 47.8356C54.2734 48.1956 53.7524 48.2589 53.2742 48.0891ZM25.4191 44.4206C25.1462 44.2758 24.9096 44.0705 24.7269 43.8202C24.5442 43.5699 24.4203 43.2811 24.3645 42.9756C24.3192 42.7297 24.3393 42.428 24.4551 41.5787C25.1523 36.5336 25.7211 29.0928 26.0483 20.7901C26.1012 19.3881 26.1893 19.0915 26.7078 18.5718C27.0199 18.2574 27.1533 18.1687 27.4452 18.0825C28.452 17.7884 29.489 18.303 29.8565 19.274C29.9823 19.6036 29.9848 19.6847 29.9496 21.003C29.7571 26.1573 29.429 31.3056 28.9655 36.4424C28.5728 40.5418 28.228 43.1277 28.0166 43.5435C27.791 43.9498 27.4377 44.2691 27.0123 44.4511C26.5114 44.6387 25.8294 44.626 25.4191 44.4206Z" fill="#ADA071"/>
</svg>
