<svg width="72" height="72" viewBox="0 0 72 72" fill="none" xmlns="http://www.w3.org/2000/svg">
<g clip-path="url(#clip0_86_145021)">
<path d="M66.813 0.000167597C62.079 -0.0208324 57.519 1.93517 53.268 3.88817C44.025 8.18117 35.463 13.8542 27.558 20.2742C25.176 22.1582 23.052 24.3332 20.82 26.3792C18.507 28.5962 16.512 31.1102 14.427 33.5342C12.726 33.9602 11.187 34.8272 9.68699 35.7032C6.26699 37.7072 2.67299 39.9632 0.812988 43.6082V45.4652C1.52099 46.2392 2.24399 47.0462 3.21599 47.4902C5.65799 48.6092 8.39399 48.7712 11.04 48.8402C19.638 49.0112 28.152 47.3702 36.45 45.2552C42.021 43.7522 47.52 41.9492 52.83 39.6872C57.768 37.4852 62.778 35.1512 66.84 31.5062C68.202 30.2432 69.672 28.5752 69.378 26.5682C69.09 24.9062 67.338 24.1352 65.907 23.6612C62.712 22.7492 59.331 22.6052 56.031 22.7492C56.322 21.8492 57.171 21.3572 57.855 20.7782C61.2358 17.9586 64.3271 14.8091 67.083 11.3762C68.847 9.22217 70.311 6.79517 71.187 4.14017V2.04917C70.68 1.14917 69.927 0.300168 68.853 0.135168C68.1755 0.0472385 67.4961 0.00214893 66.813 0.000167597ZM64.557 3.63017C65.169 3.64217 65.775 3.70817 66.369 3.85517C67.119 4.38617 67.659 5.39417 67.419 6.32417C66.939 8.49617 65.781 10.4342 64.563 12.2642C63.189 14.2712 61.698 16.2122 59.955 17.9192C57.987 19.8302 56.271 22.0112 54.081 23.6912C54.507 23.7422 54.933 23.7992 55.362 23.8562C58.047 24.1322 60.924 24.1562 63.279 25.6622C64.11 26.1512 64.542 27.2522 64.107 28.1492C63.471 29.6582 62.109 30.6842 60.861 31.6712C56.49 34.8122 51.504 36.9692 46.5 38.8922C38.0099 42.1095 29.1565 44.2707 20.139 45.3272C16.944 45.7592 13.704 45.8372 10.488 45.6302C8.85899 45.4472 7.06499 45.1742 5.83199 43.9982C5.01899 43.1792 5.46599 41.8922 6.01799 41.0582C8.01299 38.2502 10.983 36.3962 13.842 34.5782C13.053 36.1262 12.195 37.6832 11.883 39.4142C11.733 40.2392 11.856 41.1362 12.384 41.8142C13.215 42.9002 14.685 43.2362 15.99 43.2842C18.816 43.2242 21.54 42.3752 24.207 41.5082C29.127 39.8192 33.777 37.4192 38.241 34.7642C33.15 37.0682 28.002 39.4562 22.476 40.4942C20.628 40.6202 18.342 41.0792 16.845 39.7082C16.503 38.6252 16.671 37.4042 17.139 36.3782C18.33 33.7652 20.205 31.5482 22.149 29.4602C26.682 24.7112 31.659 20.3522 37.092 16.6562C44.628 11.3912 52.677 6.63917 61.533 3.99617C62.514 3.76817 63.543 3.61517 64.557 3.63017ZM24.231 50.9942C23.49 51.2912 22.761 51.6092 22.029 51.9242C21.999 55.8242 22.047 59.7182 22.005 63.6152C22.02 64.4852 21.807 65.5022 20.958 65.9342C18.939 66.9782 16.839 67.8542 14.823 68.9072C14.028 69.2612 13.164 69.8522 12.264 69.5132C12.0676 69.3657 11.9023 69.1809 11.7777 68.9693C11.6531 68.7576 11.5716 68.5234 11.538 68.2802C11.6049 67.8775 11.7695 67.4974 12.0174 67.1731C12.2653 66.8488 12.5889 66.5903 12.96 66.4202C15.18 65.3102 17.487 64.3862 19.68 63.2222C19.7221 62.3658 19.6768 61.5074 19.545 60.6602C17.163 61.6202 14.847 62.7752 12.606 64.0382C10.254 65.2382 9.62999 68.5682 10.911 70.7492C11.607 71.6942 12.873 71.8082 13.95 71.6882C15.024 71.7272 15.849 70.9472 16.77 70.5242C18.504 69.7322 20.259 68.9642 21.942 68.0732C23.742 66.9722 24.3 64.7132 24.294 62.7332C24.282 58.8212 24.294 54.9092 24.234 50.9942H24.231ZM49.755 51.0092C49.0104 51.2905 48.2796 51.6068 47.565 51.9572C47.427 56.7482 47.505 61.5452 47.523 66.3422C48.3095 66.0769 49.0681 65.7353 49.788 65.3222C49.743 60.5522 49.809 55.7822 49.758 51.0122L49.755 51.0092ZM36.645 51.0272C35.889 51.2882 35.169 51.6272 34.452 51.9872C34.461 56.7842 34.41 61.5842 34.467 66.3812C35.22 66.0722 35.958 65.7272 36.678 65.3432C36.66 60.5732 36.72 55.8002 36.645 51.0272ZM55.8 51.0362C55.566 51.8762 55.419 52.7402 55.344 53.6102C53.646 55.1762 52.083 57.0512 51.474 59.3252C51.273 60.2252 51.234 61.3742 52.05 61.9952C52.8 62.5922 53.811 62.5562 54.693 62.3102C54.927 62.7092 55.173 63.1022 55.437 63.4892C51.168 65.5052 46.896 67.5212 42.645 69.5732C42.615 70.3832 42.612 71.1932 42.627 72.0032C49.011 69.1022 55.317 66.0272 61.698 63.1172C61.7769 62.0198 61.7849 60.9185 61.722 59.8202C60.303 60.4682 58.944 61.2392 57.516 61.8662C57.3123 61.9736 57.0876 62.0355 56.8576 62.0474C56.6276 62.0593 56.3977 62.021 56.184 61.9352C57.555 60.5612 59.883 60.3902 60.924 58.6442C61.305 57.5042 61.446 55.9652 60.414 55.1162C58.914 53.7212 57.585 52.0712 55.8 51.0362ZM57.189 55.2662C57.966 55.9502 58.731 56.6522 59.412 57.4322C58.503 58.0082 57.567 58.5422 56.616 59.0432C56.745 57.7772 56.967 56.5232 57.186 55.2692L57.189 55.2662ZM55.542 56.5772C55.44 57.6392 55.233 58.6862 55.041 59.7332C54.3 60.0212 53.535 60.2612 52.731 60.2402C53.226 58.7402 54.411 57.6182 55.542 56.5772ZM28.245 57.5012C27.924 57.5042 27.6 57.5612 27.276 57.6722C25.209 58.6262 24.657 61.3562 25.314 63.3602C25.4153 63.7203 25.6523 64.0271 25.975 64.2162C26.2978 64.4053 26.6813 64.4619 27.045 64.3742C28.776 63.9722 30.264 62.9102 31.989 62.4722C32.133 62.7392 32.277 63.0122 32.409 63.2882C32.0033 63.6084 31.5637 63.883 31.098 64.1072C28.713 65.1992 26.316 66.2822 23.97 67.4582C23.967 68.2892 23.964 69.1232 24.006 69.9542C26.397 68.9552 28.701 67.7792 31.071 66.7412C31.944 66.3212 33.009 65.9672 33.402 64.9862C34.122 63.0332 33.453 60.7442 31.938 59.3522C30.966 58.3982 29.637 57.4862 28.248 57.5012H28.245ZM41.25 58.4132C40.998 59.2382 40.929 60.0932 40.809 60.9392C39 62.8202 36.975 64.9442 36.804 67.6952C36.642 69.1412 38.226 70.2212 39.552 69.8552C41.232 69.3482 42.786 68.5202 44.34 67.7252C45.24 67.2422 46.302 66.6902 46.542 65.5952C46.656 64.5692 46.83 63.3212 45.924 62.5892C44.424 61.1492 43.038 59.5112 41.25 58.4132ZM28.632 60.0002C29.094 60.0152 29.553 60.2702 29.982 60.4292C28.9206 60.9983 27.8198 61.4905 26.688 61.9022C26.88 61.1582 27.249 60.3752 28.053 60.1382C28.2295 60.0394 28.4299 59.9917 28.632 60.0002ZM42.516 62.4752C43.323 63.2342 44.127 63.9992 44.883 64.8092C43.167 65.9012 41.379 66.9182 39.423 67.5122C39.012 67.6802 38.574 67.5932 38.163 67.4852C39.111 65.4302 41.004 64.0802 42.516 62.4752Z" fill="#ADA071"/>
</g>
<defs>
<clipPath id="clip0_86_145021">
<rect width="72" height="72" fill="white"/>
</clipPath>
</defs>
</svg>
