<svg width="73" height="72" viewBox="0 0 73 72" fill="none" xmlns="http://www.w3.org/2000/svg">
<g clip-path="url(#clip0_86_145025)">
<path d="M6.04219 25.668C2.89219 25.668 0.618188 27.753 0.618188 30.948C0.618188 33.993 2.30719 34.662 4.87519 35.391C5.75119 35.643 7.35619 36.039 7.35619 37.185C7.35619 38.292 6.33619 38.772 5.37619 38.772C3.97819 38.772 2.76619 38.04 1.74619 37.143L0.000188134 40.419C-0.00256735 40.4251 -0.00317801 40.432 -0.00154566 40.4385C8.6687e-05 40.4451 0.00386721 40.4508 0.00918813 40.455C1.62242 41.5948 3.54498 42.2154 5.52019 42.234C7.10419 42.234 8.75419 41.796 9.98419 40.752C11.2352 39.69 11.6132 38.082 11.6132 36.519C11.6132 33.972 9.92119 32.865 7.73119 32.22L6.68719 31.908C5.97919 31.677 4.87219 31.323 4.87219 30.405C4.87219 29.529 5.87419 29.091 6.62419 29.091C6.99619 29.091 7.36219 29.148 7.71019 29.25C8.21637 29.4009 8.75937 29.3701 9.24528 29.1631C9.73119 28.956 10.1295 28.5856 10.3712 28.116L10.9532 26.985C10.9556 26.9785 10.9558 26.9714 10.9536 26.9648C10.9514 26.9583 10.947 26.9527 10.9412 26.949C9.4323 26.1382 7.75481 25.6991 6.04219 25.668ZM64.4072 26.088V26.283H64.7222V27.114H64.9682V26.283H65.2832V26.085L64.4072 26.088ZM65.4092 26.088V27.114H65.6312V26.283H65.6372L65.9372 27.114H66.0692L66.3692 26.283H66.3722V27.114H66.5972V26.085H66.2372L66.0002 26.694L65.7692 26.085L65.4092 26.088ZM68.1002 26.088L65.5292 35.97H67.6682C68.1718 35.97 68.6611 35.8026 69.0591 35.4941C69.4572 35.1856 69.7415 34.7536 69.8672 34.266L72.0002 26.085L68.1002 26.088ZM19.6052 30.756C18.1292 30.756 17.0672 31.191 16.1912 32.475C16.1852 32.481 16.1792 32.487 16.1672 32.487C16.16 32.487 16.1532 32.4841 16.1481 32.4791C16.143 32.474 16.1402 32.4671 16.1402 32.46V31.14C16.1406 31.1362 16.1402 31.1323 16.1391 31.1287C16.1379 31.1251 16.136 31.1217 16.1334 31.1189C16.1309 31.1161 16.1278 31.1138 16.1243 31.1123C16.1208 31.1107 16.117 31.1099 16.1132 31.11H12.3722C12.3681 31.1095 12.364 31.1099 12.3602 31.1113C12.3563 31.1126 12.3528 31.1148 12.3499 31.1177C12.347 31.1206 12.3448 31.1241 12.3435 31.1279C12.3421 31.1318 12.3417 31.1359 12.3422 31.14V41.79C12.3422 41.802 12.3572 41.814 12.3722 41.814H13.8812C14.4801 41.8132 15.0542 41.5749 15.4777 41.1514C15.9011 40.728 16.1394 40.1539 16.1402 39.555V36.264C16.1402 34.929 16.5782 33.78 18.1232 33.78C20.0012 33.78 19.8332 35.574 19.8332 36.6V41.79C19.8332 41.802 19.8452 41.814 19.8632 41.814H21.3722C21.9716 41.8132 22.5462 41.5745 22.9697 41.1504C23.3933 40.7263 23.6312 40.1514 23.6312 39.552V35.202C23.6312 32.571 22.4852 30.756 19.6052 30.756ZM29.7152 30.756C26.5442 30.756 24.3542 33.384 24.3542 36.453C24.3542 39.519 26.5862 42.171 29.7572 42.171C31.0052 42.171 32.3132 41.691 32.9852 40.638C32.9912 40.629 32.9972 40.626 33.0062 40.626C33.0212 40.626 33.0332 40.638 33.0332 40.653V41.787C33.0332 41.802 33.0452 41.817 33.0602 41.817H34.5692C35.1691 41.817 35.7445 41.5787 36.1687 41.1544C36.5929 40.7302 36.8312 40.1549 36.8312 39.555V31.14C36.8312 31.1362 36.8304 31.1324 36.8289 31.1289C36.8273 31.1254 36.8251 31.1223 36.8223 31.1197C36.8194 31.1172 36.8161 31.1153 36.8124 31.1141C36.8088 31.1129 36.805 31.1125 36.8012 31.113H33.0602C33.0561 31.1125 33.052 31.1129 33.0482 31.1143C33.0443 31.1156 33.0408 31.1178 33.0379 31.1207C33.035 31.1236 33.0328 31.1271 33.0315 31.1309C33.0302 31.1348 33.0297 31.1389 33.0302 31.143V32.085C33.0302 32.109 33.0002 32.121 32.9852 32.103C32.1902 31.203 30.9212 30.759 29.7152 30.759V30.756ZM45.0662 30.756C43.8182 30.756 42.5312 31.254 41.8412 32.31C41.8352 32.316 41.8262 32.322 41.8172 32.322C41.8131 32.3225 41.809 32.322 41.8052 32.3207C41.8013 32.3193 41.7978 32.3171 41.7949 32.3143C41.792 32.3114 41.7898 32.3079 41.7885 32.304C41.7871 32.3001 41.7867 32.296 41.7872 32.292V31.11H37.9922V46.329H39.5282C40.1281 46.329 40.7035 46.0907 41.1277 45.6664C41.5519 45.2422 41.7902 44.6669 41.7902 44.067V40.803C41.7902 40.8 41.7902 40.797 41.7962 40.8C42.6092 41.733 43.8782 42.171 45.1082 42.171C48.2792 42.171 50.4692 39.582 50.4692 36.495C50.4692 33.426 48.2582 30.756 45.0662 30.756ZM58.2542 30.756C57.0062 30.756 55.7192 31.254 55.0262 32.31C55.0202 32.316 55.0142 32.322 55.0022 32.322C54.9984 32.322 54.9946 32.3212 54.9911 32.3197C54.9876 32.3181 54.9845 32.3159 54.982 32.313C54.9794 32.3102 54.9775 32.3069 54.9763 32.3032C54.9751 32.2996 54.9748 32.2958 54.9752 32.292V31.137C54.9752 31.1298 54.9723 31.1229 54.9673 31.1179C54.9622 31.1128 54.9554 31.11 54.9482 31.11H51.2102C51.2061 31.1095 51.202 31.1099 51.1982 31.1113C51.1943 31.1126 51.1908 31.1148 51.1879 31.1177C51.185 31.1206 51.1828 31.1241 51.1815 31.1279C51.1801 31.1318 51.1797 31.1359 51.1802 31.14V46.302C51.1802 46.317 51.1952 46.332 51.2102 46.332H52.7192C53.0165 46.332 53.3109 46.2734 53.5855 46.1595C53.8601 46.0456 54.1096 45.8787 54.3197 45.6684C54.5298 45.458 54.6964 45.2083 54.8099 44.9335C54.9234 44.6587 54.9816 44.3643 54.9812 44.067V40.863C54.9812 40.839 55.0112 40.827 55.0262 40.845C55.8422 41.745 57.0902 42.168 58.2962 42.168C61.4702 42.168 63.6602 39.582 63.6602 36.495C63.6602 33.426 61.4492 30.756 58.2572 30.756H58.2542ZM30.7172 34.053C32.2622 34.053 33.1592 35.16 33.1592 36.474C33.1592 37.83 32.2622 38.874 30.7172 38.874C29.1752 38.874 28.2782 37.83 28.2782 36.474C28.2782 35.16 29.1752 34.053 30.7172 34.053ZM44.1062 34.053C45.6512 34.053 46.5482 35.16 46.5482 36.474C46.5482 37.83 45.6512 38.874 44.1062 38.874C42.5612 38.874 41.6642 37.83 41.6642 36.474C41.6642 35.16 42.5642 34.053 44.1062 34.053ZM57.2942 34.053C58.8392 34.053 59.7362 35.16 59.7362 36.474C59.7362 37.83 58.8362 38.874 57.2942 38.874C55.7492 38.874 54.8522 37.83 54.8522 36.474C54.8522 35.16 55.7522 34.053 57.2942 34.053ZM66.8132 37.365C66.1759 37.365 65.5647 37.6181 65.114 38.0688C64.6634 38.5194 64.4102 39.1307 64.4102 39.768C64.4102 40.4053 64.6634 41.0165 65.114 41.4671C65.5647 41.9178 66.1759 42.171 66.8132 42.171C67.4505 42.171 68.0617 41.9178 68.5124 41.4671C68.963 41.0165 69.2162 40.4053 69.2162 39.768C69.2162 39.1307 68.963 38.5194 68.5124 38.0688C68.0617 37.6181 67.4505 37.365 66.8132 37.365Z" fill="#ADA071"/>
</g>
<defs>
<clipPath id="clip0_86_145025">
<rect width="72" height="72" fill="white"/>
</clipPath>
</defs>
</svg>
