<svg width="72" height="72" viewBox="0 0 72 72" fill="none" xmlns="http://www.w3.org/2000/svg">
<g clip-path="url(#clip0_86_145013)">
<path d="M21.2611 71.6638C20.9487 71.5617 20.6615 71.3944 20.4184 71.1731C20.1754 70.9517 19.982 70.6814 19.8511 70.3798C19.6396 69.8737 19.5833 69.3161 19.6891 68.7778L19.7671 68.4958L11.5771 60.3538L3.39014 52.2088L2.69714 52.2449C2.10614 52.2748 1.93514 52.2538 1.55414 52.1098C-0.254858 51.4258 -0.545858 48.8128 1.07414 47.7718L1.42814 47.5468V35.9968L1.43414 24.4468L1.13414 24.2758C0.650359 23.9504 0.288407 23.4734 0.105142 22.9198C-0.0671257 22.3519 -0.0316282 21.7412 0.20528 21.197C0.442188 20.6528 0.86504 20.2107 1.39814 19.9498C1.72254 19.7609 2.09897 19.681 2.47214 19.7218C2.79314 19.7278 3.13214 19.7398 3.22214 19.7518C3.35414 19.7668 5.16314 18.0058 11.5771 11.6338L19.7671 3.50384L19.6861 3.21884C19.5867 2.67411 19.6439 2.11234 19.8511 1.59884C20.6581 -0.10816 23.1571 -0.31516 24.1621 1.23884L24.4081 1.61384H47.5261L47.8981 1.14584C48.1071 0.855054 48.3818 0.617662 48.6997 0.452943C49.0177 0.288224 49.3701 0.200824 49.7281 0.19784C50.0793 0.154236 50.4357 0.201761 50.7631 0.33584C51.8941 0.761841 52.5931 2.03084 52.3261 3.17684L52.2541 3.49184L59.6641 10.8748C62.3925 13.5995 65.1265 16.3185 67.8661 19.0318L68.6611 19.8028L69.0961 19.7338C69.6342 19.6395 70.1883 19.7265 70.6715 19.9812C71.1548 20.2358 71.5398 20.6437 71.7661 21.1408C72.2641 22.2298 71.9101 23.5798 70.9621 24.2008L70.5811 24.4498L70.5841 35.9998L70.5871 47.5498L70.9411 47.7778C71.4113 48.1147 71.753 48.6013 71.9101 49.1578C72.0571 49.7149 72.0082 50.3055 71.7718 50.8309C71.5353 51.3563 71.1256 51.7845 70.6111 52.0438C70.2871 52.2058 70.1341 52.2268 69.4111 52.2268H68.5771L60.4171 60.3628L52.2541 68.5018L52.3261 68.8198C52.4078 69.2236 52.3887 69.6412 52.2704 70.0358C52.1521 70.4303 51.9384 70.7896 51.6481 71.0818C51.3889 71.3392 51.0768 71.5371 50.7336 71.662C50.3903 71.7869 50.024 71.8358 49.66 71.8053C49.296 71.7748 48.943 71.6656 48.6253 71.4852C48.3076 71.3049 48.0329 71.0577 47.8201 70.7608L47.5441 70.3829H24.4081L24.1651 70.7579C23.8831 71.1928 23.6191 71.3968 23.0311 71.6368C22.4637 71.8579 21.8358 71.8655 21.2611 71.6638ZM46.1581 68.2018C45.2714 67.6109 44.3793 67.0279 43.4821 66.4528L39.1111 63.6208L37.3411 62.4748L36.9961 62.6338C36.3564 62.8591 35.6589 62.8591 35.0191 62.6338L34.6741 62.4748L33.9631 62.9518C33.5731 63.2128 31.8271 64.3498 30.0811 65.4778C25.8841 68.1958 25.8931 68.1898 25.8931 68.2318C25.8931 68.2528 30.4681 68.2678 36.0631 68.2678C41.6671 68.2678 46.1971 68.2378 46.1581 68.2018ZM26.2801 65.3428C28.5661 63.852 30.8591 62.372 33.1591 60.9028C33.3691 60.7738 33.5101 60.6328 33.4981 60.5698C33.4861 60.5068 33.1441 60.3178 32.7241 60.1438C28.7114 58.4844 24.6964 56.8304 20.6791 55.1818C20.1961 54.9748 20.1841 55.0468 20.4931 56.5018C20.6461 57.2218 20.8531 58.1848 20.9431 58.6438L21.5011 61.2478L22.2331 64.6828C22.7221 67.0229 22.6651 66.8548 23.0431 67.0018C23.1835 67.0631 23.3341 67.0976 23.4871 67.1038C23.5561 67.0888 24.8131 66.2968 26.2801 65.3428ZM48.9181 67.0079L49.2781 66.8788L49.5871 65.4388L50.5021 61.1338C50.8321 59.5558 51.2581 57.5848 51.4411 56.7538C51.7021 55.5808 51.7561 55.2238 51.6871 55.1548C51.5911 55.0588 51.3931 55.1338 47.6701 56.6788C44.9689 57.7999 42.2639 58.9119 39.5551 60.0148C38.6341 60.3838 38.4541 60.4948 38.5171 60.6568C38.5381 60.7108 38.8591 60.9418 39.2281 61.1668C39.8581 61.5508 42.3361 63.1468 46.6081 65.9158C47.6401 66.5878 48.5011 67.1339 48.5191 67.1339C48.5371 67.1339 48.7171 67.0769 48.9181 67.0079ZM19.9261 64.1488L19.0981 60.2278C18.8614 59.1214 18.6274 58.0144 18.3961 56.9068L18.1471 55.7008L17.6611 55.4638C17.101 55.1939 16.6509 54.7395 16.3861 54.1768C16.2061 53.7928 16.1941 53.7868 15.7441 53.6998C14.7102 53.4883 13.6772 53.2723 12.6451 53.0518L8.01614 52.0768C7.3265 51.9406 6.6403 51.7876 5.95814 51.6178C5.91914 51.5938 5.88914 51.5998 5.88914 51.6298C5.88914 51.6898 20.2591 65.9998 20.2891 65.9698C20.2951 65.9608 20.1331 65.1418 19.9261 64.1488ZM65.5441 52.2088C65.8381 51.9088 66.0481 51.6598 66.0151 51.6598C65.9791 51.6598 65.0851 51.8428 64.0201 52.0678C61.3531 52.637 58.6831 53.192 56.0101 53.7328C55.7701 53.7688 55.7311 53.8138 55.6141 54.1438C55.4341 54.6538 54.9421 55.1638 54.3511 55.4638L53.8591 55.7128L53.6911 56.4988C53.0084 59.6441 52.3484 62.7941 51.7111 65.9488C51.7111 66.0178 63.7051 54.1018 65.5441 52.2088ZM34.6201 58.2598C35.4511 57.6988 36.5881 57.7318 37.5301 58.3468C37.7551 58.4968 37.2931 58.6618 41.6311 56.8678C44.4597 55.6993 47.2897 54.5343 50.1211 53.3728L50.7571 53.1118L50.8411 52.7428C50.9724 52.1903 51.2647 51.6891 51.6811 51.3028C52.0261 51.0238 52.6501 50.7508 52.9531 50.7508C53.1751 50.7508 53.2021 50.7028 53.7691 49.3168L54.8041 46.8268C55.5875 44.9532 56.3675 43.0782 57.1441 41.2018L58.2481 38.5378L58.6621 37.5328L58.4221 37.2568C58.0781 36.8579 57.8737 36.3576 57.8401 35.8318C57.7837 35.2843 57.916 34.7339 58.2151 34.2718L58.4461 33.9118L57.6721 32.0458C56.9105 30.2095 56.1455 28.3745 55.3771 26.5408L54.2311 23.7838C53.0701 21.0028 53.2231 21.2848 52.8721 21.2248C52.5134 21.1658 52.1724 21.0275 51.874 20.8199C51.5755 20.6123 51.3272 20.3407 51.1471 20.0248C51.0007 19.78 50.8934 19.5138 50.8291 19.2358L50.7841 18.9148L49.0741 18.2128L46.0111 16.9528L42.9151 15.6778C42.0075 15.3038 41.1015 14.9258 40.1971 14.5438C37.7131 13.4848 37.7491 13.4998 37.5271 13.6438C37.0849 13.9653 36.5462 14.1262 36.0001 14.0998C35.3941 14.1058 35.3161 14.0878 34.8151 13.8298L34.2811 13.5478L33.0121 14.0638C32.3161 14.3458 30.3721 15.1468 28.6891 15.8428C23.3671 18.0418 22.9321 18.2218 22.0741 18.5698C21.2461 18.9028 21.2311 18.9148 21.1801 19.1878C21.0001 20.1898 20.1001 21.0958 19.1611 21.2218C19.0051 21.2428 18.8491 21.2968 18.8101 21.3418C18.6519 21.6646 18.5098 21.995 18.3841 22.3318C16.8971 25.9835 15.3891 29.6265 13.8601 33.2608L13.4281 34.2958L13.5871 34.4998C13.8511 34.8358 14.0701 35.6818 14.0251 36.1888C13.9547 36.6788 13.7764 37.1471 13.5031 37.5598C13.4011 37.6978 13.4671 37.8748 14.8741 41.2438C16.0053 43.9463 17.1303 46.6513 18.2491 49.3588C18.4218 49.7954 18.6099 50.2257 18.8131 50.6488C18.8491 50.6968 19.0141 50.7538 19.1761 50.7748C20.1241 50.9008 20.9971 51.7918 21.1831 52.8148C21.2161 53.0098 21.2881 53.1298 21.3931 53.1748L28.3501 56.0368C29.6941 56.5888 32.1691 57.6118 33.2941 58.0798C33.7711 58.2778 34.2031 58.4428 34.2541 58.4488C34.388 58.4112 34.5133 58.3481 34.6231 58.2628L34.6201 58.2598ZM34.2721 39.7318V31.5028H28.6861V30.0028C28.6861 28.2928 28.6351 28.4068 29.3761 28.4068C30.6361 28.4068 32.3101 28.0708 33.1411 27.6538C34.1971 27.1198 34.9201 26.0668 35.1601 24.7138L35.2801 24.0298H39.1021V47.9578H34.2721V39.7318ZM16.7821 51.5638C16.7971 51.5098 16.7701 51.3838 16.7191 51.2788C16.4774 50.7292 16.2433 50.1761 16.0171 49.6199C15.2389 47.7305 14.4549 45.8434 13.6651 43.9588C13.3261 43.1488 12.6931 41.6038 12.2551 40.5238C11.5351 38.7478 11.3911 38.4538 11.2411 38.4478C11.2171 38.4478 10.1791 40.0018 8.94014 41.9008L5.67614 46.8928L4.66514 48.4318L4.79714 48.8278L4.93214 49.2239L5.54414 49.3468C8.65514 49.9858 15.4531 51.4018 16.0441 51.5368C16.6261 51.6748 16.7431 51.6778 16.7821 51.5638ZM56.7661 51.3718L60.5401 50.5738L65.1181 49.6108L67.0141 49.2118L67.1731 48.8398C67.2601 48.6328 67.3081 48.4288 67.2811 48.3808L65.2291 45.2008L62.0791 40.3198C61.4491 39.3358 60.8791 38.4538 60.8131 38.3608L60.6931 38.1928L60.5881 38.4538C59.1648 41.9175 57.7278 45.3755 56.2771 48.8278C55.3471 51.0388 55.1701 51.5038 55.2211 51.5878C55.2811 51.6868 55.3231 51.6778 56.7661 51.3718ZM6.48914 41.7538C8.04614 39.3748 9.31514 37.3648 9.30914 37.2808C9.28694 37.1254 9.24563 36.9732 9.18614 36.8278C9.03353 36.2845 9.03249 35.7097 9.18314 35.1658C9.24314 35.0008 9.31514 34.8118 9.33314 34.7458C9.36014 34.6738 8.54114 33.3598 7.26914 31.4248L4.45814 27.1288C4.20045 26.7187 3.93032 26.3165 3.64814 25.9228C3.56714 25.8328 3.54914 27.5428 3.54914 35.9428C3.54914 41.5168 3.57314 46.0738 3.60914 46.0738C3.63914 46.0738 4.93514 44.1298 6.48914 41.7538ZM68.4631 35.9218C68.4631 30.3388 68.4331 25.7698 68.4031 25.7728C68.3731 25.7728 67.0441 27.6988 65.4421 30.0508L62.5291 34.3228L62.6461 34.6318C62.8201 35.1028 62.7991 36.2098 62.6071 36.6328L62.4571 36.9688L64.5661 40.2208L67.5151 44.7718C67.9741 45.4858 68.3791 46.0738 68.4121 46.0738C68.4421 46.0738 68.4661 41.5048 68.4631 35.9218ZM12.6601 30.4498C14.0191 27.1768 14.4001 26.2648 15.3751 23.9578C16.7671 20.6578 16.8451 20.4598 16.7611 20.3788C16.6711 20.2888 16.4851 20.3248 12.4981 21.1678L5.13314 22.7158C4.98014 22.7458 4.91114 22.8358 4.80314 23.1568L4.66514 23.5618L5.59514 24.9478C6.35414 26.0878 9.50414 30.8878 10.8541 32.9638C11.0641 33.2848 11.2321 33.4678 11.3041 33.4528C11.3791 33.4378 11.8681 32.3518 12.6601 30.4498ZM62.9581 29.8318C64.2985 27.8673 65.6455 25.9072 66.9991 23.9518L67.3411 23.4568L67.1881 23.1088C67.0441 22.7848 67.0081 22.7548 66.6391 22.6768C66.2341 22.5868 63.4441 21.9988 59.3371 21.1288C55.4341 20.3068 55.3471 20.2888 55.2541 20.3848C55.1641 20.4748 55.3381 20.9308 56.5981 23.8828C57.2401 25.3828 57.6871 26.4508 59.2981 30.3358C60.5041 33.2338 60.4381 33.0898 60.6031 33.0898C60.6871 33.0898 61.4851 31.9888 62.9581 29.8318ZM9.93014 19.5298L14.2261 18.6298C15.3031 18.4078 16.2061 18.1978 16.2361 18.1648C16.3005 18.0514 16.3509 17.9305 16.3861 17.8048C16.5241 17.3788 17.3101 16.6018 17.7361 16.4758C17.9281 16.4158 18.0901 16.3138 18.1291 16.2208C18.1681 16.1368 18.3991 15.0988 18.6481 13.9138L19.7011 8.90384C20.0371 7.32584 20.3011 6.03284 20.2921 6.02384C20.2621 5.99384 5.88914 20.2888 5.89214 20.3398C5.89214 20.3698 6.27314 20.3038 6.74114 20.2018L9.93014 19.5298ZM58.9471 13.1728C56.5539 10.776 54.1448 8.39492 51.7201 6.02984C51.6961 6.05384 52.1041 8.04284 52.9141 11.8408C53.1631 13.0048 53.4781 14.4808 53.6101 15.1198L53.8561 16.2838L54.3361 16.5298C54.884 16.7713 55.324 17.2059 55.5721 17.7508C55.7221 18.0598 55.8601 18.2368 55.9621 18.2608L58.3111 18.7498C62.2051 19.5598 65.4751 20.2498 65.7811 20.3158C65.9491 20.3548 66.0961 20.3758 66.1111 20.3668C63.7364 17.9547 61.3464 15.5576 58.9411 13.1758L58.9471 13.1728ZM21.1381 16.6138C21.3661 16.5088 21.8581 16.2988 22.2331 16.1428L23.9671 15.4288C26.9978 14.1825 30.0298 12.9395 33.0631 11.6998C33.2911 11.6068 33.4861 11.4808 33.4981 11.4208C33.5101 11.3488 32.6611 10.7548 31.1221 9.75284L26.0851 6.48284L23.4481 4.77284L23.1421 4.90184C23.004 4.95682 22.8731 5.02834 22.7521 5.11484C22.7071 5.15984 22.4791 6.09584 22.2421 7.19684L20.4181 15.8308C20.1571 17.0668 20.1511 17.0638 21.1381 16.6138ZM51.7351 16.7458C51.7051 16.5418 50.8891 12.6448 50.5021 10.8598C50.2621 9.74084 49.9381 8.19284 49.7821 7.42484C49.4521 5.76284 49.3201 5.16284 49.2571 5.09984C49.135 5.02979 49.0064 4.97153 48.8731 4.92584L48.5341 4.79684L47.0071 5.78684C44.3766 7.48553 41.7476 9.18653 39.1201 10.8898C38.7781 11.1088 38.4991 11.3398 38.4991 11.3998C38.4991 11.5258 38.7841 11.6578 40.7341 12.4318C41.5171 12.7438 42.9061 13.3108 43.8211 13.6918L47.1031 15.0478C47.9971 15.4138 49.3381 15.9688 50.0851 16.2808C51.3511 16.8088 51.7651 16.9288 51.7351 16.7458ZM36.0091 9.20084C36.4981 9.20084 36.7291 9.23984 36.9931 9.35984L37.3351 9.51884L38.5411 8.73284L42.9781 5.85884L46.2121 3.76484L41.1121 3.74684C38.3041 3.73484 33.7111 3.73484 30.9031 3.74684L25.7971 3.76484L28.6531 5.61584L33.0931 8.49284L34.6711 9.52184L35.0191 9.35984C35.2861 9.23984 35.5141 9.20084 36.0091 9.20084Z" fill="#ADA071"/>
</g>
<defs>
<clipPath id="clip0_86_145013">
<rect width="72" height="72" fill="white"/>
</clipPath>
</defs>
</svg>
