<svg width="24" height="24" viewBox="0 0 24 24" fill="none" xmlns="http://www.w3.org/2000/svg">
<g opacity="0.5" clip-path="url(#clip0_86_145075)">
<path fill-rule="evenodd" clip-rule="evenodd" d="M5.2036 1.55117C6.03589 1.00404 7.09182 1.31954 7.56905 2.11491L9.70201 5.66984C10.1827 6.47108 9.94923 7.50865 9.17157 8.02666L7.67517 9.02345C7.55732 9.10195 7.53898 9.24531 7.60631 9.34181C8.3172 10.3607 9.54981 12.047 10.5985 13.0957C11.6472 14.1445 13.3338 15.3772 14.3526 16.0881C14.4491 16.1554 14.5924 16.1371 14.671 16.0193L15.6686 14.5229C16.1867 13.7456 17.224 13.5124 18.025 13.993L21.58 16.126C22.3756 16.6033 22.691 17.6596 22.1435 18.4919C21.7713 19.0577 21.2115 19.8327 20.5327 20.5272C19.867 21.2083 19.017 21.8849 18.0546 22.1428C16.7028 22.5051 15.1024 22.0442 13.9504 21.5855C12.7549 21.1095 11.8341 20.5485 11.7567 20.5009L11.7523 20.4982L11.7411 20.4912L11.7316 20.485L11.73 20.4839C11.6237 20.4137 8.60592 18.4194 6.94022 16.7537C5.27455 15.088 3.28077 12.071 3.21073 11.9649L3.20916 11.9625L3.20298 11.953L3.19595 11.9419L3.19323 11.9375C3.14574 11.8602 2.58467 10.9394 2.10857 9.74382C1.64984 8.59182 1.18888 6.99137 1.55134 5.63943C1.80939 4.67695 2.48629 3.82703 3.16767 3.16142C3.86241 2.48275 4.63768 1.9232 5.2036 1.55117ZM6.1511 2.78366C6.10812 2.77277 6.06732 2.77847 6.02757 2.80459C5.50431 3.14858 4.8157 3.64844 4.21584 4.23442C3.60261 4.83347 3.15418 5.45343 3.00017 6.02787C2.77441 6.86993 3.0543 8.06424 3.50214 9.18888C3.91875 10.2351 4.41098 11.0534 4.46697 11.1452C4.5995 11.3455 6.48183 14.174 8.00089 15.693C9.51995 17.2121 12.3484 19.0945 12.5489 19.2272C12.6408 19.2832 13.4591 19.7754 14.5053 20.1919C15.6299 20.6397 16.8243 20.9196 17.6664 20.694C18.2408 20.54 18.8609 20.0917 19.46 19.4787C20.0461 18.8791 20.5462 18.1907 20.8903 17.6675C20.9165 17.6278 20.9222 17.5869 20.9113 17.544C20.8997 17.4981 20.8675 17.4478 20.8083 17.4122L17.2533 15.2792C17.1388 15.2106 16.9907 15.2439 16.9166 15.3549L15.919 16.8513C15.3874 17.6488 14.2999 17.8803 13.4943 17.3182C12.4767 16.6082 10.6904 15.3089 9.5378 14.1564C8.38535 13.0039 7.0862 11.2178 6.37616 10.2001C5.8139 9.39431 6.04572 8.30654 6.84359 7.77507L8.33999 6.77827C8.45108 6.70427 8.48444 6.55605 8.41577 6.44159L6.28281 2.88665C6.24728 2.82744 6.19698 2.79529 6.1511 2.78366Z" fill="white"/>
</g>
<defs>
<clipPath id="clip0_86_145075">
<rect width="24" height="24" fill="white"/>
</clipPath>
</defs>
</svg>
