<svg width="24" height="24" viewBox="0 0 24 24" fill="none" xmlns="http://www.w3.org/2000/svg">
<g opacity="0.5">
<path fill-rule="evenodd" clip-rule="evenodd" d="M12 2.77148C9.15729 2.77148 6.25 5.20121 6.25 8.91804C6.25 11.6999 7.38582 14.4091 8.72797 16.6288C9.93645 18.6275 11.2793 20.1755 12 20.9468C12.7207 20.1755 14.0636 18.6275 15.272 16.6288C16.6142 14.4091 17.75 11.6999 17.75 8.91804C17.75 5.20121 14.8427 2.77148 12 2.77148ZM4.75 8.91804C4.75 4.359 8.34271 1.27148 12 1.27148C15.6573 1.27148 19.25 4.359 19.25 8.91804C19.25 12.0877 17.9655 15.0732 16.5556 17.405C15.1405 19.7454 13.5581 21.4943 12.8731 22.2061C12.3928 22.7052 11.6072 22.7052 11.1269 22.2061C10.4419 21.4943 8.8595 19.7454 7.44436 17.405C6.03452 15.0732 4.75 12.0877 4.75 8.91804Z" fill="white"/>
<path fill-rule="evenodd" clip-rule="evenodd" d="M12 8.75C11.3096 8.75 10.75 9.30964 10.75 10C10.75 10.6904 11.3096 11.25 12 11.25C12.6904 11.25 13.25 10.6904 13.25 10C13.25 9.30964 12.6904 8.75 12 8.75ZM9.25 10C9.25 8.48122 10.4812 7.25 12 7.25C13.5188 7.25 14.75 8.48122 14.75 10C14.75 11.5188 13.5188 12.75 12 12.75C10.4812 12.75 9.25 11.5188 9.25 10Z" fill="white"/>
</g>
</svg>
