<svg width="72" height="80" viewBox="0 0 72 80" fill="none" xmlns="http://www.w3.org/2000/svg">
<path d="M36 74V41M36 27.5C36.3333 25.5 38.3 21.5 43.5 21.5C43.5 21.5 43.6667 29.8334 43.5 34C43.1667 36.3334 41.2 41 36 41M36 27.5V41M36 27.5C36 25.5 32.5 21.5 28 21.5C28 23 28 26 28 32C28 38 32 41 36 41" stroke="#C6B780" stroke-linecap="round"/>
<path d="M43.5 23.5C41.6667 24 38 26.2 38 31C38 35.8 38 39.3333 38 40.5" stroke="#C6B780" stroke-linecap="round"/>
<path d="M28 23.5C29.8333 24 33.5 26.2 33.5 31C33.5 35.8 33.5 39.3333 33.5 40.5" stroke="#C6B780" stroke-linecap="round"/>
<path d="M43.5 26.5C42.5 27 40.5 29.1 40.5 33.5C40.5 37.9 40.5 39.3333 40.5 39.5" stroke="#C6B780" stroke-linecap="round"/>
<path d="M28 26.5C29 27 31 29.1 31 33.5C31 37.9 31 38.8333 31 39" stroke="#C6B780" stroke-linecap="round"/>
<path d="M33.5 23.5C35 22 36.5 22 38 23.5" stroke="#C6B780" stroke-linecap="round"/>
<path d="M31.5 22C34.1667 19.3333 37.3333 19.3333 40 22" stroke="#C6B780" stroke-linecap="round"/>
<path d="M36 61.5L50.5 50" stroke="#C6B780" stroke-linecap="round"/>
<path d="M36 56.5L21 45" stroke="#C6B780" stroke-linecap="round"/>
<path d="M38.5 59.5H48.5" stroke="#C6B780" stroke-linecap="round"/>
<path d="M23 54.2002H33" stroke="#C6B780" stroke-linecap="round"/>
<path d="M42 56.5V48.5" stroke="#C6B780" stroke-linecap="round"/>
<path d="M29.5 51.5V43.5" stroke="#C6B780" stroke-linecap="round"/>
<path d="M28.5 54.0378C26.5 56.7723 24 57.2724 21 54.0378C23.5 50.5378 26.5 50.7724 28.5 54.0378Z" stroke="#C6B780" stroke-linecap="round"/>
<path d="M29.4622 48.5C26.7277 46.5 26.2276 44 29.4622 41C32.9622 43.5 32.7276 46.5 29.4622 48.5Z" stroke="#C6B780" stroke-linecap="round"/>
<path d="M24.7549 47.7861C21.3363 48.8321 18.9079 47.6741 18.4181 43.0446C22.743 41.6679 25.1295 43.7627 24.7549 47.7861Z" stroke="#C6B780" stroke-linecap="round"/>
<path d="M46.6045 52.9853C50.0231 54.0313 52.4515 52.8734 52.9413 48.2438C48.6163 46.8671 46.2299 48.9619 46.6045 52.9853Z" stroke="#C6B780" stroke-linecap="round"/>
<path d="M41.9622 53.5C39.2277 51.5 38.7276 49 41.9622 46C45.4622 48.5 45.2276 51.5 41.9622 53.5Z" stroke="#C6B780" stroke-linecap="round"/>
<path d="M43 59.5378C45 62.2723 47.5 62.7724 50.5 59.5378C48 56.0378 45 56.2724 43 59.5378Z" stroke="#C6B780" stroke-linecap="round"/>
</svg>
