<svg width="24" height="24" viewBox="0 0 24 24" fill="none" xmlns="http://www.w3.org/2000/svg">
<g opacity="0.5">
<path fill-rule="evenodd" clip-rule="evenodd" d="M4 5.75C3.30964 5.75 2.75 6.30964 2.75 7V18C2.75 18.6904 3.30964 19.25 4 19.25H20C20.6904 19.25 21.25 18.6904 21.25 18V7C21.25 6.30964 20.6904 5.75 20 5.75H4ZM1.25 7C1.25 5.48122 2.48122 4.25 4 4.25H20C21.5188 4.25 22.75 5.48122 22.75 7V18C22.75 19.5188 21.5188 20.75 20 20.75H4C2.48122 20.75 1.25 19.5188 1.25 18V7Z" fill="white"/>
<path fill-rule="evenodd" clip-rule="evenodd" d="M1.827 8.22418C2.00963 7.8524 2.45907 7.69906 2.83085 7.88169L11.8899 12.3318C11.9595 12.3659 12.0409 12.3659 12.1104 12.3318L21.1695 7.88169C21.5413 7.69906 21.9907 7.8524 22.1733 8.22418C22.356 8.59596 22.2026 9.04539 21.8308 9.22802L12.7717 13.6781C12.2851 13.9171 11.7152 13.9171 11.2286 13.6781L2.16949 9.22802C1.79771 9.04539 1.64437 8.59596 1.827 8.22418Z" fill="white"/>
<path fill-rule="evenodd" clip-rule="evenodd" d="M15.6179 12.6268C15.543 12.5724 15.4442 12.5639 15.3611 12.6046L12.7701 13.8742C12.2843 14.1122 11.7158 14.1122 11.23 13.8742L8.63905 12.6046C8.55593 12.5639 8.4571 12.5724 8.38218 12.6268L2.44065 16.9399C2.10544 17.1832 1.63645 17.1088 1.39311 16.7736C1.14978 16.4384 1.22426 15.9694 1.55946 15.726L7.501 11.4129C8.02538 11.0323 8.71719 10.9725 9.29908 11.2576L11.89 12.5272C11.9594 12.5612 12.0407 12.5612 12.1101 12.5272L14.701 11.2576C15.2829 10.9725 15.9747 11.0322 16.4991 11.4129L22.4406 15.726C22.7759 15.9694 22.8503 16.4384 22.607 16.7736C22.3637 17.1088 21.8947 17.1832 21.5595 16.9399L15.6179 12.6268Z" fill="white"/>
</g>
</svg>
