<svg width="16" height="16" viewBox="0 0 16 16" fill="none" xmlns="http://www.w3.org/2000/svg">
<path fill-rule="evenodd" clip-rule="evenodd" d="M15 8.08011C14.4776 8.60254 15 8.08011 14.4776 8.60254L1.93875 8.60254C1.65022 8.60254 1.41632 8.36864 1.41632 8.08011C1.41632 7.79158 1.65022 7.55768 1.93875 7.55768L14.4776 7.55768C15 8.08011 14.4776 7.55768 15 8.08011Z" fill="white"/>
<path fill-rule="evenodd" clip-rule="evenodd" d="M5.05959 12.6611C4.32379 12.5942 5.05959 12.6612 4.32379 12.5943L2.63559 10.5184C2.50104 10.3569 0.824782 8.08035 0.824782 8.08035C0.824782 8.08035 2.50104 5.80379 2.63559 5.64233L4.32379 3.56645C5.05959 3.49957 4.32379 3.56645 5.05959 3.49957C5.12648 4.23537 5.05958 3.49957 5.12647 4.23537L1.92219 8.08035L5.12646 11.9253C5.05959 12.6611 5.12646 11.9253 5.05959 12.6611Z" fill="white"/>
</svg>
