<svg width="16" height="16" viewBox="0 0 16 16" fill="none" xmlns="http://www.w3.org/2000/svg">
<path fill-rule="evenodd" clip-rule="evenodd" d="M8.00002 1L15.1666 4.18507V4.5V13.3334C15.1666 13.9778 15.1666 14.5001 15.1666 14.5001H0.833023C0.833023 14.5001 0.833221 14.5001 0.833221 13.3334V4.81859L0.833008 4.18507L8.00002 1ZM8.00002 1.91537L1.93041 4.6671C1.87119 4.69426 1.83322 4.75344 1.83322 4.81859V13.3334C1.83322 13.4255 1.83322 13.5001 1.83322 13.5001H14.1666C14.1666 13.5001 14.1666 13.4255 14.1666 13.3334V4.81859C14.1666 4.75344 14.1286 4.69426 14.0694 4.6671L8.00002 1.91537Z" fill="white"/>
<path fill-rule="evenodd" clip-rule="evenodd" d="M0.904581 5.07584C1.04666 4.83905 1.35379 4.76226 1.59058 4.90434L8.00024 8.69854L14.4094 4.90434C14.6462 4.76226 14.9533 4.83905 15.0954 5.07584C15.2375 5.31263 15.1607 5.61976 14.9239 5.76183L8.00024 9.72229L1.07608 5.76183C0.839289 5.61976 0.762507 5.31263 0.904581 5.07584Z" fill="white"/>
</svg>
