<svg width="16" height="16" viewBox="0 0 16 16" fill="none" xmlns="http://www.w3.org/2000/svg">
<path fill-rule="evenodd" clip-rule="evenodd" d="M8 1.09199C6.03951 1.09199 4.03448 2.86083 4.03448 5.56666C4.03448 7.59183 4.8178 9.56411 5.74342 11.1801C6.57686 12.6351 7.50295 13.762 8 14.3236C8.49705 13.762 9.42314 12.6351 10.2566 11.1801C11.1822 9.56411 11.9655 7.59183 11.9655 5.56666C11.9655 2.86083 9.96049 1.09199 8 1.09199ZM3 5.56666C3 2.2477 5.47773 0 8 0C10.5223 0 13 2.2477 13 5.56666C13 7.87416 12.1141 10.0476 11.1418 11.7451C10.1659 13.449 8.47208 15.4818 7.99966 16C7.52725 15.4818 5.83414 13.449 4.85818 11.7451C3.88587 10.0476 3 7.87416 3 5.56666Z" fill="white"/>
<path fill-rule="evenodd" clip-rule="evenodd" d="M8.00065 4C7.35632 4 6.83398 4.52233 6.83398 5.16667C6.83398 5.811 7.35632 6.33333 8.00065 6.33333C8.64498 6.33333 9.16732 5.811 9.16732 5.16667C9.16732 4.52233 8.64498 4 8.00065 4ZM5.83398 5.16667C5.83398 3.97005 6.80403 3 8.00065 3C9.19727 3 10.1673 3.97005 10.1673 5.16667C10.1673 6.36328 9.19727 7.33333 8.00065 7.33333C6.80403 7.33333 5.83398 6.36328 5.83398 5.16667Z" fill="white"/>
</svg>
